{
.appVersion = "1230";
DisplayStrings = (
"+/minus =<>%^~×÷/notequal/greaterequal/lessequal ±/approxequal/plus.tf/minus.tf/multiply.tf/divide.tf/equal.tf/notequal.tf/greater.tf/less.tf/greaterequal.tf/lessequal.tf/plusminus.tf/approxequal.tf/asciitilde.tf/asciicircum.tf/percent.tf",
"¢$",
"/cent.tf",
",.;:!?#*///backslash/period.tf/comma.tf/colon.tf/semicolon.tf/exclam.tf/question.tf/asterisk.tf/numbersign.tf/slash.tf/backslash.tf",
"0123456789",
"¥",
"/yen.tf ×÷/greaterequal/lessequal",
"/zero.tf",
"/greaterequal.tf",
",.;:-/endash/emdash !'/apostrophe/quoteleft/quoteright ()?\"#*///backslash []_{}/period.tf/comma.tf/colon.tf/semicolon.tf/exclam.tf/question.tf/asterisk.tf/numbersign.tf/slash.tf/backslash.tf/parenleft.tf/parenright.tf/braceleft.tf/braceright.tf/bracketleft.tf/bracketright.tf/underscore.tf/quotedbl.tf",
A,
"/zero.prop",
"/zero.tf/one.tf/two.tf/three.tf/four.tf/five.tf/six.tf/seven.tf/eight.tf/nine.tf",
"/question.tf",
",.;:!?#*///backslash/period.tf/comma.tf/colon.tf/semicolon.tf/exclam.tf/question.tf/asterisk.tf/numbersign.tf/slash.tf/backslash.tf",
"/parenleft.tf",
"/euro.tf",
"õ",
o,
"!abcdefghijklmnopqrstuvwxyzABCDEFGHIJKLMNOPQRSTUVWXYZ",
"¤",

glyphs = (
{
glyphname = comma;
lastChange = "2019-04-17 01:54:56 +0000";
layers = (
{
background = {
paths = (
{
closed = 1;
nodes = (
"45 5 OFFCURVE",
"58 -5 OFFCURVE",
"76 -5 CURVE",
"72 -30 OFFCURVE",
"56 -45 OFFCURVE",
"30 -59 CURVE",
"54 -71 LINE",
"91 -51 OFFCURVE",
"105 -19 OFFCURVE",
"105 7 CURVE SMOOTH",
"105 32 OFFCURVE",
"90 49 OFFCURVE",
"71 49 CURVE SMOOTH",
"54 49 OFFCURVE",
"45 36 OFFCURVE",
"45 22 CURVE SMOOTH"
);
}
);
};
layerId = UUID0;
paths = (
{
closed = 1;
nodes = (
"111 -58 OFFCURVE",
"128 -22 OFFCURVE",
"128 9 CURVE SMOOTH",
"128 36 OFFCURVE",
"109 57 OFFCURVE",
"86 57 CURVE SMOOTH",
"66 57 OFFCURVE",
"55 41 OFFCURVE",
"55 26 CURVE SMOOTH",
"55 6 OFFCURVE",
"70 -6 OFFCURVE",
"92 -6 CURVE",
"87 -35 OFFCURVE",
"68 -52 OFFCURVE",
"36 -68 CURVE",
"66 -81 LINE"
);
}
);
width = 164;
},
{
background = {
paths = (
{
closed = 1;
nodes = (
"36 27 OFFCURVE",
"64 3 OFFCURVE",
"98 -3 CURVE",
"87 -38 OFFCURVE",
"53 -65 OFFCURVE",
"14 -85 CURVE",
"98 -131 LINE",
"162 -97 OFFCURVE",
"203 -30 OFFCURVE",
"203 29 CURVE SMOOTH",
"203 88 OFFCURVE",
"169 136 OFFCURVE",
"114 136 CURVE SMOOTH",
"69 136 OFFCURVE",
"36 105 OFFCURVE",
"36 64 CURVE SMOOTH"
);
}
);
};
layerId = UUID1;
paths = (
{
closed = 1;
nodes = (
"219 -123 OFFCURVE",
"275 -38 OFFCURVE",
"275 39 CURVE SMOOTH",
"275 115 OFFCURVE",
"230 176 OFFCURVE",
"153 176 CURVE SMOOTH",
"92 176 OFFCURVE",
"46 137 OFFCURVE",
"46 84 CURVE SMOOTH",
"46 36 OFFCURVE",
"84 6 OFFCURVE",
"129 -4 CURVE",
"114 -45 OFFCURVE",
"68 -80 OFFCURVE",
"18 -104 CURVE",
"135 -164 LINE"
);
}
);
width = 299;
}
);
unicode = 002C;
},
{
glyphname = period;
lastChange = "2019-04-15 18:34:05 +0000";
layers = (
{
background = {
paths = (
{
closed = 1;
nodes = (
"30 5 OFFCURVE",
"42 -7 OFFCURVE",
"57 -7 CURVE SMOOTH",
"73 -7 OFFCURVE",
"86 5 OFFCURVE",
"86 20 CURVE SMOOTH",
"86 36 OFFCURVE",
"73 49 OFFCURVE",
"57 49 CURVE SMOOTH",
"42 49 OFFCURVE",
"30 36 OFFCURVE",
"30 20 CURVE SMOOTH"
);
}
);
};
layerId = UUID0;
paths = (
{
closed = 1;
nodes = (
"36 6 OFFCURVE",
"51 -9 OFFCURVE",
"69 -9 CURVE SMOOTH",
"89 -9 OFFCURVE",
"104 6 OFFCURVE",
"104 23 CURVE SMOOTH",
"104 41 OFFCURVE",
"89 57 OFFCURVE",
"69 57 CURVE SMOOTH",
"51 57 OFFCURVE",
"36 41 OFFCURVE",
"36 23 CURVE SMOOTH"
);
}
);
width = 141;
},
{
background = {
paths = (
{
closed = 1;
nodes = (
"16 25 OFFCURVE",
"48 -7 OFFCURVE",
"94 -7 CURVE SMOOTH",
"140 -7 OFFCURVE",
"174 25 OFFCURVE",
"174 71 CURVE SMOOTH",
"174 116 OFFCURVE",
"140 150 OFFCURVE",
"94 150 CURVE SMOOTH",
"48 150 OFFCURVE",
"16 116 OFFCURVE",
"16 71 CURVE SMOOTH"
);
}
);
};
layerId = UUID1;
paths = (
{
closed = 1;
nodes = (
"18 34 OFFCURVE",
"62 -9 OFFCURVE",
"125 -9 CURVE SMOOTH",
"188 -9 OFFCURVE",
"234 34 OFFCURVE",
"234 94 CURVE SMOOTH",
"234 152 OFFCURVE",
"188 196 OFFCURVE",
"125 196 CURVE SMOOTH",
"62 196 OFFCURVE",
"18 152 OFFCURVE",
"18 94 CURVE SMOOTH"
);
}
);
width = 253;
}
);
unicode = 002E;
},
{
glyphname = semicolon;
lastChange = "2019-04-14 20:13:24 +0000";
layers = (
{
background = {
paths = (
{
closed = 1;
nodes = (
"65 5 OFFCURVE",
"78 -5 OFFCURVE",
"96 -5 CURVE",
"92 -30 OFFCURVE",
"76 -45 OFFCURVE",
"50 -59 CURVE",
"74 -71 LINE",
"111 -51 OFFCURVE",
"125 -19 OFFCURVE",
"125 7 CURVE SMOOTH",
"125 32 OFFCURVE",
"110 49 OFFCURVE",
"91 49 CURVE SMOOTH",
"74 49 OFFCURVE",
"65 36 OFFCURVE",
"65 22 CURVE SMOOTH"
);
},
{
closed = 1;
nodes = (
"65 342 OFFCURVE",
"77 330 OFFCURVE",
"92 330 CURVE SMOOTH",
"108 330 OFFCURVE",
"121 342 OFFCURVE",
"121 357 CURVE SMOOTH",
"121 373 OFFCURVE",
"108 386 OFFCURVE",
"92 386 CURVE SMOOTH",
"77 386 OFFCURVE",
"65 373 OFFCURVE",
"65 357 CURVE SMOOTH"
);
}
);
};
components = (
{
name = comma;
transform = "{1, 0, 0, 1, 24, 0}";
},
{
name = period;
transform = "{1, 0, 0, 1, 43, 364}";
}
);
layerId = UUID0;
width = 213;
},
{
background = {
paths = (
{
closed = 1;
nodes = (
"62 27 OFFCURVE",
"90 3 OFFCURVE",
"124 -3 CURVE",
"113 -38 OFFCURVE",
"79 -65 OFFCURVE",
"40 -85 CURVE",
"124 -131 LINE",
"188 -97 OFFCURVE",
"229 -30 OFFCURVE",
"229 29 CURVE SMOOTH",
"229 88 OFFCURVE",
"195 136 OFFCURVE",
"140 136 CURVE SMOOTH",
"95 136 OFFCURVE",
"62 105 OFFCURVE",
"62 64 CURVE SMOOTH"
);
},
{
closed = 1;
nodes = (
"68 290 OFFCURVE",
"100 258 OFFCURVE",
"146 258 CURVE SMOOTH",
"192 258 OFFCURVE",
"226 290 OFFCURVE",
"226 336 CURVE SMOOTH",
"226 381 OFFCURVE",
"192 415 OFFCURVE",
"146 415 CURVE SMOOTH",
"100 415 OFFCURVE",
"68 381 OFFCURVE",
"68 336 CURVE SMOOTH"
);
}
);
};
components = (
{
name = comma;
transform = "{1, 0, 0, 1, 33, 0}";
},
{
name = period;
transform = "{1, 0, 0, 1, 70, 289}";
}
);
layerId = UUID1;
width = 357;
}
);
unicode = 003B;
},
{
glyphname = colon;
lastChange = "2019-04-14 20:13:24 +0000";
layers = (
{
background = {
paths = (
{
closed = 1;
nodes = (
"50 342 OFFCURVE",
"62 330 OFFCURVE",
"77 330 CURVE SMOOTH",
"93 330 OFFCURVE",
"106 342 OFFCURVE",
"106 357 CURVE SMOOTH",
"106 373 OFFCURVE",
"93 386 OFFCURVE",
"77 386 CURVE SMOOTH",
"62 386 OFFCURVE",
"50 373 OFFCURVE",
"50 357 CURVE SMOOTH"
);
},
{
closed = 1;
nodes = (
"50 5 OFFCURVE",
"62 -7 OFFCURVE",
"77 -7 CURVE SMOOTH",
"93 -7 OFFCURVE",
"106 5 OFFCURVE",
"106 20 CURVE SMOOTH",
"106 36 OFFCURVE",
"93 49 OFFCURVE",
"77 49 CURVE SMOOTH",
"62 49 OFFCURVE",
"50 36 OFFCURVE",
"50 20 CURVE SMOOTH"
);
}
);
};
components = (
{
name = period;
transform = "{1, 0, 0, 1, 24, 49}";
},
{
name = period;
transform = "{1, 0, 0, 1, 24, 364}";
}
);
layerId = UUID0;
width = 190;
},
{
background = {
paths = (
{
closed = 1;
nodes = (
"40 290 OFFCURVE",
"72 258 OFFCURVE",
"118 258 CURVE SMOOTH",
"164 258 OFFCURVE",
"198 290 OFFCURVE",
"198 336 CURVE SMOOTH",
"198 381 OFFCURVE",
"164 415 OFFCURVE",
"118 415 CURVE SMOOTH",
"72 415 OFFCURVE",
"40 381 OFFCURVE",
"40 336 CURVE SMOOTH"
);
},
{
closed = 1;
nodes = (
"40 25 OFFCURVE",
"72 -7 OFFCURVE",
"118 -7 CURVE SMOOTH",
"164 -7 OFFCURVE",
"198 25 OFFCURVE",
"198 71 CURVE SMOOTH",
"198 116 OFFCURVE",
"164 150 OFFCURVE",
"118 150 CURVE SMOOTH",
"72 150 OFFCURVE",
"40 116 OFFCURVE",
"40 71 CURVE SMOOTH"
);
}
);
};
components = (
{
name = period;
transform = "{1, 0, 0, 1, 29, 0}";
},
{
name = period;
transform = "{1, 0, 0, 1, 29, 289}";
}
);
layerId = UUID1;
width = 311;
}
);
unicode = 003A;
},
{
glyphname = hyphen;
lastChange = "2019-04-14 20:13:24 +0000";
layers = (
{
background = {
paths = (
{
closed = 1;
nodes = (
"25 230 LINE",
"240 230 LINE",
"240 257 LINE",
"25 257 LINE"
);
}
);
};
layerId = UUID0;
paths = (
{
closed = 1;
nodes = (
"292 265 LINE",
"292 296 LINE",
"30 296 LINE",
"30 265 LINE"
);
}
);
width = 322;
},
{
background = {
paths = (
{
closed = 1;
nodes = (
"45 213 LINE",
"280 213 LINE",
"280 318 LINE",
"45 318 LINE"
);
}
);
};
layerId = UUID1;
paths = (
{
closed = 1;
nodes = (
"345 242 LINE",
"345 382 LINE",
"55 382 LINE",
"55 242 LINE"
);
}
);
width = 400;
}
);
unicode = 002D;
},
{
glyphname = endash;
lastChange = "2019-04-14 20:13:24 +0000";
layers = (
{
background = {
paths = (
{
closed = 1;
nodes = (
"45 230 LINE",
"300 230 LINE",
"300 257 LINE",
"45 257 LINE"
);
}
);
};
layerId = UUID0;
paths = (
{
closed = 1;
nodes = (
"364 265 LINE",
"364 296 LINE",
"55 296 LINE",
"55 265 LINE"
);
}
);
width = 419;
},
{
background = {
paths = (
{
closed = 1;
nodes = (
"45 213 LINE",
"410 213 LINE",
"410 318 LINE",
"45 318 LINE"
);
}
);
};
layerId = UUID1;
paths = (
{
closed = 1;
nodes = (
"525 242 LINE",
"525 382 LINE",
"55 382 LINE",
"55 242 LINE"
);
}
);
width = 580;
}
);
unicode = 2013;
},
{
glyphname = emdash;
lastChange = "2019-04-14 20:13:24 +0000";
layers = (
{
background = {
paths = (
{
closed = 1;
nodes = (
"45 230 LINE",
"515 230 LINE",
"515 257 LINE",
"45 257 LINE"
);
}
);
};
layerId = UUID0;
paths = (
{
closed = 1;
nodes = (
"626 265 LINE",
"626 296 LINE",
"55 296 LINE",
"55 265 LINE"
);
}
);
width = 680;
},
{
background = {
paths = (
{
closed = 1;
nodes = (
"45 213 LINE",
"607 213 LINE",
"607 318 LINE",
"45 318 LINE"
);
}
);
};
layerId = UUID1;
paths = (
{
closed = 1;
nodes = (
"759 242 LINE",
"759 382 LINE",
"55 382 LINE",
"55 242 LINE"
);
}
);
width = 814;
}
);
unicode = 2014;
},
{
glyphname = exclam;
lastChange = "2019-04-17 01:55:41 +0000";
layers = (
{
background = {
paths = (
{
closed = 1;
nodes = (
"98 114 LINE",
"118 114 LINE",
"123 511 LINE",
"93 511 LINE"
);
},
{
closed = 1;
nodes = (
"80 5 OFFCURVE",
"92 -7 OFFCURVE",
"107 -7 CURVE SMOOTH",
"123 -7 OFFCURVE",
"136 5 OFFCURVE",
"136 20 CURVE SMOOTH",
"136 36 OFFCURVE",
"123 49 OFFCURVE",
"107 49 CURVE SMOOTH",
"92 49 OFFCURVE",
"80 36 OFFCURVE",
"80 20 CURVE SMOOTH"
);
}
);
};
layerId = UUID0;
paths = (
{
closed = 1;
nodes = (
"143 131 LINE",
"149 589 LINE",
"113 589 LINE",
"119 131 LINE"
);
},
{
closed = 1;
nodes = (
"149 -9 OFFCURVE",
"165 6 OFFCURVE",
"165 23 CURVE SMOOTH",
"165 41 OFFCURVE",
"149 57 OFFCURVE",
"130 57 CURVE SMOOTH",
"112 57 OFFCURVE",
"97 41 OFFCURVE",
"97 23 CURVE SMOOTH",
"97 6 OFFCURVE",
"112 -9 OFFCURVE",
"130 -9 CURVE SMOOTH"
);
}
);
width = 262;
},
{
background = {
paths = (
{
closed = 1;
nodes = (
"75 210 LINE",
"180 210 LINE",
"190 596 LINE",
"65 596 LINE"
);
},
{
closed = 1;
nodes = (
"50 25 OFFCURVE",
"82 -7 OFFCURVE",
"128 -7 CURVE SMOOTH",
"174 -7 OFFCURVE",
"208 25 OFFCURVE",
"208 71 CURVE SMOOTH",
"208 116 OFFCURVE",
"174 150 OFFCURVE",
"128 150 CURVE SMOOTH",
"82 150 OFFCURVE",
"50 116 OFFCURVE",
"50 71 CURVE SMOOTH"
);
}
);
};
layerId = UUID1;
paths = (
{
closed = 1;
nodes = (
"230 264 LINE",
"247 702 LINE",
"72 702 LINE",
"89 264 LINE"
);
},
{
closed = 1;
nodes = (
"224 -9 OFFCURVE",
"270 34 OFFCURVE",
"270 94 CURVE SMOOTH",
"270 152 OFFCURVE",
"224 196 OFFCURVE",
"160 196 CURVE SMOOTH",
"97 196 OFFCURVE",
"53 152 OFFCURVE",
"53 94 CURVE SMOOTH",
"53 34 OFFCURVE",
"97 -9 OFFCURVE",
"160 -9 CURVE SMOOTH"
);
}
);
width = 309;
}
);
unicode = 0021;
},
{
glyphname = a;
lastChange = "2019-04-17 11:16:55 +0000";
layers = (
{
anchors = (
{
name = above;
position = "{264, 486}";
}
);
background = {
paths = (
{
closed = 1;
nodes = (
"195 216 LINE",
"234 216 OFFCURVE",
"280 205 OFFCURVE",
"320 188 CURVE",
"320 165 LINE",
"286 180 OFFCURVE",
"232 191 OFFCURVE",
"195 191 CURVE"
);
}
);
};
layerId = UUID0;
paths = (
{
closed = 1;
nodes = (
"423 0 LINE",
"423 306 LINE SMOOTH",
"423 434 OFFCURVE",
"352 480 OFFCURVE",
"258 480 CURVE SMOOTH",
"168 480 OFFCURVE",
"85 448 OFFCURVE",
"85 351 CURVE",
"128 351 LINE",
"128 424 OFFCURVE",
"190 450 OFFCURVE",
"258 450 CURVE SMOOTH",
"338 450 OFFCURVE",
"386 411 OFFCURVE",
"386 306 CURVE SMOOTH",
"386 91 LINE",
"391 0 LINE"
);
},
{
closed = 1;
nodes = (
"326 -9 OFFCURVE",
"397 69 OFFCURVE",
"397 156 CURVE",
"386 156 LINE",
"386 94 OFFCURVE",
"307 22 OFFCURVE",
"225 22 CURVE SMOOTH",
"141 22 OFFCURVE",
"104 68 OFFCURVE",
"104 126 CURVE SMOOTH",
"104 203 OFFCURVE",
"165 232 OFFCURVE",
"237 232 CURVE SMOOTH",
"282 232 OFFCURVE",
"347 219 OFFCURVE",
"389 200 CURVE",
"389 228 LINE",
"340 249 OFFCURVE",
"284 262 OFFCURVE",
"237 262 CURVE SMOOTH",
"148 262 OFFCURVE",
"66 228 OFFCURVE",
"66 126 CURVE SMOOTH",
"66 61 OFFCURVE",
"114 -9 OFFCURVE",
"225 -9 CURVE SMOOTH"
);
}
);
width = 515;
},
{
anchors = (
{
name = above;
position = "{315, 547}";
}
);
background = {
paths = (
{
closed = 1;
nodes = (
"215 240 LINE",
"262 240 OFFCURVE",
"294 235 OFFCURVE",
"332 227 CURVE",
"332 154 LINE",
"304 160 OFFCURVE",
"273 164 OFFCURVE",
"245 164 CURVE"
);
}
);
};
layerId = UUID1;
paths = (
{
closed = 1;
nodes = (
"548 0 LINE",
"548 311 LINE SMOOTH",
"548 443 OFFCURVE",
"458 509 OFFCURVE",
"315 509 CURVE SMOOTH",
"152 509 OFFCURVE",
"69 454 OFFCURVE",
"69 337 CURVE",
"242 337 LINE",
"242 368 OFFCURVE",
"265 394 OFFCURVE",
"315 394 CURVE SMOOTH",
"375 394 OFFCURVE",
"388 366 OFFCURVE",
"388 317 CURVE SMOOTH",
"388 132 LINE",
"408 0 LINE"
);
},
{
closed = 1;
nodes = (
"372 -16 OFFCURVE",
"425 78 OFFCURVE",
"425 193 CURVE",
"388 193 LINE",
"388 151 OFFCURVE",
"366 104 OFFCURVE",
"298 104 CURVE SMOOTH",
"245 104 OFFCURVE",
"221 125 OFFCURVE",
"221 151 CURVE SMOOTH",
"221 185 OFFCURVE",
"250 199 OFFCURVE",
"298 199 CURVE SMOOTH",
"332 199 OFFCURVE",
"369 194 OFFCURVE",
"403 187 CURVE",
"403 276 LINE",
"357 286 OFFCURVE",
"318 292 OFFCURVE",
"261 292 CURVE SMOOTH",
"123 292 OFFCURVE",
"49 237 OFFCURVE",
"49 151 CURVE SMOOTH",
"49 58 OFFCURVE",
"120 -16 OFFCURVE",
"252 -16 CURVE SMOOTH"
);
}
);
width = 621;
}
);
unicode = 0061;
},
{
glyphname = b;
lastChange = "2019-04-17 11:17:08 +0000";
layers = (
{
background = {
paths = (
{
closed = 1;
nodes = (
"144 557 LINE",
"174 557 LINE",
"174 75 LINE",
"170 0 LINE",
"144 0 LINE"
);
},
{
closed = 1;
nodes = (
"468 69 OFFCURVE",
"389 -7 OFFCURVE",
"300 -7 CURVE SMOOTH",
"216 -7 OFFCURVE",
"155 57 OFFCURVE",
"155 159 CURVE",
"174 159 LINE",
"174 65 OFFCURVE",
"237 18 OFFCURVE",
"300 18 CURVE SMOOTH",
"371 18 OFFCURVE",
"434 82 OFFCURVE",
"434 194 CURVE SMOOTH",
"434 306 OFFCURVE",
"371 370 OFFCURVE",
"300 370 CURVE SMOOTH",
"237 370 OFFCURVE",
"174 323 OFFCURVE",
"174 229 CURVE",
"155 229 LINE",
"155 331 OFFCURVE",
"216 395 OFFCURVE",
"300 395 CURVE SMOOTH",
"389 395 OFFCURVE",
"468 319 OFFCURVE",
"468 194 CURVE SMOOTH"
);
}
);
};
layerId = UUID0;
paths = (
{
closed = 1;
nodes = (
"407 -9 OFFCURVE",
"503 84 OFFCURVE",
"503 236 CURVE SMOOTH",
"503 388 OFFCURVE",
"407 480 OFFCURVE",
"299 480 CURVE SMOOTH",
"197 480 OFFCURVE",
"123 402 OFFCURVE",
"123 278 CURVE",
"146 278 LINE",
"146 391 OFFCURVE",
"221 450 OFFCURVE",
"299 450 CURVE SMOOTH",
"385 450 OFFCURVE",
"462 372 OFFCURVE",
"462 236 CURVE SMOOTH",
"462 100 OFFCURVE",
"385 22 OFFCURVE",
"299 22 CURVE SMOOTH",
"222 22 OFFCURVE",
"146 79 OFFCURVE",
"146 193 CURVE",
"123 193 LINE",
"123 69 OFFCURVE",
"197 -9 OFFCURVE",
"299 -9 CURVE SMOOTH"
);
},
{
closed = 1;
nodes = (
"141 0 LINE",
"146 103 LINE",
"146 677 LINE",
"109 677 LINE",
"109 0 LINE"
);
}
);
width = 570;
},
{
background = {
paths = (
{
closed = 1;
nodes = (
"70 568 LINE",
"202 568 LINE",
"202 91 LINE",
"165 0 LINE",
"70 0 LINE"
);
},
{
closed = 1;
nodes = (
"58 335 OFFCURVE",
"140 419 OFFCURVE",
"243 419 CURVE SMOOTH",
"312 419 OFFCURVE",
"377 368 OFFCURVE",
"377 229 CURVE",
"323 229 LINE",
"323 272 OFFCURVE",
"294 299 OFFCURVE",
"261 299 CURVE SMOOTH",
"226 299 OFFCURVE",
"189 267 OFFCURVE",
"189 198 CURVE SMOOTH",
"189 267 OFFCURVE",
"226 299 OFFCURVE",
"261 299 CURVE SMOOTH",
"294 299 OFFCURVE",
"323 272 OFFCURVE",
"323 229 CURVE",
"377 229 LINE",
"377 368 OFFCURVE",
"312 419 OFFCURVE",
"243 419 CURVE SMOOTH",
"140 419 OFFCURVE",
"58 335 OFFCURVE",
"58 198 CURVE SMOOTH"
);
}
);
};
layerId = UUID1;
paths = (
{
closed = 1;
nodes = (
"493 -16 OFFCURVE",
"594 92 OFFCURVE",
"594 250 CURVE SMOOTH",
"594 405 OFFCURVE",
"499 509 OFFCURVE",
"377 509 CURVE SMOOTH",
"265 509 OFFCURVE",
"202 429 OFFCURVE",
"202 270 CURVE",
"245 270 LINE",
"245 327 OFFCURVE",
"287 363 OFFCURVE",
"335 363 CURVE SMOOTH",
"399 363 OFFCURVE",
"435 315 OFFCURVE",
"435 250 CURVE SMOOTH",
"435 180 OFFCURVE",
"397 130 OFFCURVE",
"337 130 CURVE SMOOTH",
"292 130 OFFCURVE",
"245 174 OFFCURVE",
"245 226 CURVE",
"202 226 LINE",
"202 58 OFFCURVE",
"278 -16 OFFCURVE",
"363 -16 CURVE SMOOTH"
);
},
{
closed = 1;
nodes = (
"185 0 LINE",
"245 129 LINE",
"245 690 LINE",
"85 690 LINE",
"85 0 LINE"
);
}
);
width = 637;
}
);
unicode = 0062;
},
{
glyphname = c;
lastChange = "2019-04-17 11:17:23 +0000";
layers = (
{
background = {
paths = (
{
closed = 1;
nodes = (
"297 395 OFFCURVE",
"358 331 OFFCURVE",
"358 229 CURVE",
"324 229 LINE",
"324 322 OFFCURVE",
"277 370 OFFCURVE",
"213 370 CURVE SMOOTH",
"142 370 OFFCURVE",
"79 306 OFFCURVE",
"79 194 CURVE SMOOTH",
"79 82 OFFCURVE",
"142 18 OFFCURVE",
"213 18 CURVE SMOOTH",
"276 18 OFFCURVE",
"324 65 OFFCURVE",
"324 159 CURVE",
"358 159 LINE",
"358 57 OFFCURVE",
"297 -7 OFFCURVE",
"213 -7 CURVE SMOOTH",
"124 -7 OFFCURVE",
"45 69 OFFCURVE",
"45 194 CURVE SMOOTH",
"45 319 OFFCURVE",
"124 395 OFFCURVE",
"213 395 CURVE SMOOTH"
);
}
);
};
layerId = UUID0;
paths = (
{
closed = 1;
nodes = (
"362 -9 OFFCURVE",
"441 51 OFFCURVE",
"441 148 CURVE",
"400 148 LINE",
"400 67 OFFCURVE",
"349 22 OFFCURVE",
"260 22 CURVE SMOOTH",
"162 22 OFFCURVE",
"96 115 OFFCURVE",
"96 236 CURVE SMOOTH",
"96 372 OFFCURVE",
"174 450 OFFCURVE",
"260 450 CURVE SMOOTH",
"326 450 OFFCURVE",
"377 412 OFFCURVE",
"400 344 CURVE",
"440 354 LINE",
"411 429 OFFCURVE",
"350 480 OFFCURVE",
"260 480 CURVE SMOOTH",
"152 480 OFFCURVE",
"55 388 OFFCURVE",
"55 236 CURVE SMOOTH",
"55 84 OFFCURVE",
"152 -9 OFFCURVE",
"260 -9 CURVE SMOOTH"
);
}
);
width = 502;
},
{
background = {
paths = (
{
closed = 1;
nodes = (
"365 419 OFFCURVE",
"419 334 OFFCURVE",
"419 259 CURVE",
"282 240 LINE",
"282 271 OFFCURVE",
"266 299 OFFCURVE",
"234 299 CURVE SMOOTH",
"200 299 OFFCURVE",
"166 276 OFFCURVE",
"166 203 CURVE SMOOTH",
"166 130 OFFCURVE",
"200 107 OFFCURVE",
"234 107 CURVE SMOOTH",
"271 107 OFFCURVE",
"282 125 OFFCURVE",
"282 160 CURVE",
"419 160 LINE",
"419 72 OFFCURVE",
"379 -13 OFFCURVE",
"235 -13 CURVE SMOOTH",
"128 -13 OFFCURVE",
"35 73 OFFCURVE",
"35 203 CURVE SMOOTH",
"35 345 OFFCURVE",
"128 419 OFFCURVE",
"235 419 CURVE SMOOTH"
);
}
);
};
layerId = UUID1;
paths = (
{
closed = 1;
nodes = (
"433 -16 OFFCURVE",
"502 80 OFFCURVE",
"502 186 CURVE",
"343 186 LINE",
"343 153 OFFCURVE",
"329 130 OFFCURVE",
"284 130 CURVE SMOOTH",
"243 130 OFFCURVE",
"202 158 OFFCURVE",
"202 247 CURVE SMOOTH",
"202 335 OFFCURVE",
"243 363 OFFCURVE",
"284 363 CURVE SMOOTH",
"320 363 OFFCURVE",
"338 335 OFFCURVE",
"343 306 CURVE",
"502 306 LINE",
"502 397 OFFCURVE",
"431 509 OFFCURVE",
"286 509 CURVE SMOOTH",
"156 509 OFFCURVE",
"43 419 OFFCURVE",
"43 247 CURVE SMOOTH",
"43 89 OFFCURVE",
"156 -16 OFFCURVE",
"286 -16 CURVE SMOOTH"
);
}
);
width = 544;
}
);
unicode = 0063;
},
{
glyphname = d;
lastChange = "2019-04-17 11:17:34 +0000";
layers = (
{
background = {
paths = (
{
closed = 1;
nodes = (
"340 395 OFFCURVE",
"419 319 OFFCURVE",
"419 194 CURVE SMOOTH",
"419 69 OFFCURVE",
"340 -7 OFFCURVE",
"251 -7 CURVE SMOOTH",
"167 -7 OFFCURVE",
"106 57 OFFCURVE",
"106 159 CURVE",
"125 159 LINE",
"125 65 OFFCURVE",
"188 18 OFFCURVE",
"251 18 CURVE SMOOTH",
"322 18 OFFCURVE",
"385 82 OFFCURVE",
"385 194 CURVE SMOOTH",
"385 306 OFFCURVE",
"322 370 OFFCURVE",
"251 370 CURVE SMOOTH",
"187 370 OFFCURVE",
"125 322 OFFCURVE",
"125 229 CURVE",
"106 229 LINE",
"106 331 OFFCURVE",
"167 395 OFFCURVE",
"251 395 CURVE"
);
}
);
};
layerId = UUID0;
paths = (
{
closed = 1;
nodes = (
"373 -9 OFFCURVE",
"447 69 OFFCURVE",
"447 193 CURVE",
"424 193 LINE",
"424 79 OFFCURVE",
"347 22 OFFCURVE",
"271 22 CURVE SMOOTH",
"185 22 OFFCURVE",
"108 100 OFFCURVE",
"108 236 CURVE SMOOTH",
"108 372 OFFCURVE",
"185 450 OFFCURVE",
"271 450 CURVE SMOOTH",
"349 450 OFFCURVE",
"424 391 OFFCURVE",
"424 278 CURVE",
"447 278 LINE",
"447 402 OFFCURVE",
"373 480 OFFCURVE",
"271 480 CURVE SMOOTH",
"163 480 OFFCURVE",
"67 388 OFFCURVE",
"67 236 CURVE SMOOTH",
"67 84 OFFCURVE",
"163 -9 OFFCURVE",
"271 -9 CURVE SMOOTH"
);
},
{
closed = 1;
nodes = (
"460 0 LINE",
"460 677 LINE",
"424 677 LINE",
"424 103 LINE",
"429 0 LINE"
);
}
);
width = 570;
},
{
background = {
paths = (
{
closed = 1;
nodes = (
"113 419 OFFCURVE",
"35 333 OFFCURVE",
"35 206 CURVE SMOOTH",
"35 76 OFFCURVE",
"118 -13 OFFCURVE",
"225 -13 CURVE SMOOTH",
"295 -13 OFFCURVE",
"358 48 OFFCURVE",
"358 186 CURVE",
"322 186 LINE",
"322 143 OFFCURVE",
"284 107 OFFCURVE",
"247 107 CURVE SMOOTH",
"197 107 OFFCURVE",
"166 148 OFFCURVE",
"166 206 CURVE SMOOTH",
"166 259 OFFCURVE",
"196 299 OFFCURVE",
"248 299 CURVE SMOOTH",
"288 299 OFFCURVE",
"322 269 OFFCURVE",
"322 222 CURVE",
"358 222 LINE",
"358 353 OFFCURVE",
"306 419 OFFCURVE",
"214 419 CURVE"
);
}
);
};
layerId = UUID1;
paths = (
{
closed = 1;
nodes = (
"358 -16 OFFCURVE",
"435 58 OFFCURVE",
"435 226 CURVE",
"391 226 LINE",
"391 174 OFFCURVE",
"345 130 OFFCURVE",
"300 130 CURVE SMOOTH",
"239 130 OFFCURVE",
"202 180 OFFCURVE",
"202 250 CURVE SMOOTH",
"202 315 OFFCURVE",
"238 363 OFFCURVE",
"301 363 CURVE SMOOTH",
"350 363 OFFCURVE",
"391 327 OFFCURVE",
"391 270 CURVE",
"435 270 LINE",
"435 429 OFFCURVE",
"372 509 OFFCURVE",
"260 509 CURVE SMOOTH",
"137 509 OFFCURVE",
"43 405 OFFCURVE",
"43 250 CURVE SMOOTH",
"43 92 OFFCURVE",
"143 -16 OFFCURVE",
"273 -16 CURVE SMOOTH"
);
},
{
closed = 1;
nodes = (
"552 0 LINE",
"552 690 LINE",
"391 690 LINE",
"391 129 LINE",
"422 0 LINE"
);
}
);
width = 637;
}
);
unicode = 0064;
},
{
glyphname = e;
lastChange = "2019-04-17 11:17:41 +0000";
layers = (
{
anchors = (
{
name = above;
position = "{253, 486}";
}
);
background = {
paths = (
{
closed = 1;
nodes = (
"288 395 OFFCURVE",
"338 353 OFFCURVE",
"362 291 CURVE",
"329 283 LINE",
"310 339 OFFCURVE",
"268 370 OFFCURVE",
"214 370 CURVE SMOOTH",
"143 370 OFFCURVE",
"79 306 OFFCURVE",
"79 194 CURVE SMOOTH",
"79 95 OFFCURVE",
"133 18 OFFCURVE",
"214 18 CURVE SMOOTH",
"287 18 OFFCURVE",
"329 55 OFFCURVE",
"329 122 CURVE",
"363 122 LINE",
"363 42 OFFCURVE",
"298 -7 OFFCURVE",
"214 -7 CURVE SMOOTH",
"125 -7 OFFCURVE",
"45 69 OFFCURVE",
"45 194 CURVE SMOOTH",
"45 319 OFFCURVE",
"125 395 OFFCURVE",
"214 395 CURVE SMOOTH"
);
}
);
};
layerId = UUID0;
paths = (
{
closed = 1;
nodes = (
"354 -9 OFFCURVE",
"426 40 OFFCURVE",
"441 136 CURVE",
"399 136 LINE",
"390 61 OFFCURVE",
"339 22 OFFCURVE",
"260 22 CURVE SMOOTH",
"147 22 OFFCURVE",
"94 115 OFFCURVE",
"94 233 CURVE SMOOTH",
"94 250 LINE SMOOTH",
"94 351 OFFCURVE",
"148 450 OFFCURVE",
"260 450 CURVE SMOOTH",
"369 450 OFFCURVE",
"401 354 OFFCURVE",
"401 264 CURVE",
"86 264 LINE",
"86 233 LINE",
"441 233 LINE",
"441 360 OFFCURVE",
"395 480 OFFCURVE",
"260 480 CURVE SMOOTH",
"134 480 OFFCURVE",
"55 386 OFFCURVE",
"55 233 CURVE SMOOTH",
"55 95 OFFCURVE",
"135 -9 OFFCURVE",
"260 -9 CURVE SMOOTH"
);
}
);
width = 496;
},
{
anchors = (
{
name = above;
position = "{272, 547}";
}
);
background = {
paths = (
{
closed = 1;
nodes = (
"365 419 OFFCURVE",
"413 334 OFFCURVE",
"413 259 CURVE",
"282 240 LINE",
"282 271 OFFCURVE",
"266 299 OFFCURVE",
"234 299 CURVE SMOOTH",
"200 299 OFFCURVE",
"166 276 OFFCURVE",
"166 203 CURVE SMOOTH",
"166 130 OFFCURVE",
"200 107 OFFCURVE",
"234 107 CURVE SMOOTH",
"271 107 OFFCURVE",
"282 129 OFFCURVE",
"282 160 CURVE",
"413 160 LINE",
"413 73 OFFCURVE",
"356 -13 OFFCURVE",
"235 -13 CURVE SMOOTH",
"128 -13 OFFCURVE",
"35 73 OFFCURVE",
"35 203 CURVE SMOOTH",
"35 345 OFFCURVE",
"128 419 OFFCURVE",
"235 419 CURVE SMOOTH"
);
}
);
};
layerId = UUID1;
paths = (
{
closed = 1;
nodes = (
"403 -16 OFFCURVE",
"486 56 OFFCURVE",
"501 149 CURVE",
"343 149 LINE",
"334 123 OFFCURVE",
"310 112 OFFCURVE",
"282 112 CURVE SMOOTH",
"228 112 OFFCURVE",
"200 152 OFFCURVE",
"200 215 CURVE SMOOTH",
"200 277 LINE SMOOTH",
"200 343 OFFCURVE",
"233 382 OFFCURVE",
"284 382 CURVE SMOOTH",
"338 382 OFFCURVE",
"357 338 OFFCURVE",
"357 294 CURVE",
"170 294 LINE",
"170 213 LINE",
"497 213 LINE",
"531 363 OFFCURVE",
"446 509 OFFCURVE",
"282 509 CURVE SMOOTH",
"157 509 OFFCURVE",
"43 412 OFFCURVE",
"43 248 CURVE SMOOTH",
"43 84 OFFCURVE",
"158 -16 OFFCURVE",
"282 -16 CURVE SMOOTH"
);
}
);
width = 548;
}
);
unicode = 0065;
},
{
glyphname = f;
lastChange = "2019-04-17 11:17:46 +0000";
layers = (
{
layerId = UUID0;
paths = (
{
closed = 1;
nodes = (
"170 0 LINE",
"170 560 LINE SMOOTH",
"170 639 OFFCURVE",
"216 654 OFFCURVE",
"252 654 CURVE SMOOTH",
"272 654 OFFCURVE",
"294 649 OFFCURVE",
"317 639 CURVE",
"323 671 LINE",
"300 680 OFFCURVE",
"279 684 OFFCURVE",
"256 684 CURVE SMOOTH",
"183 684 OFFCURVE",
"134 644 OFFCURVE",
"134 560 CURVE SMOOTH",
"134 0 LINE"
);
},
{
closed = 1;
nodes = (
"279 441 LINE",
"279 471 LINE",
"49 471 LINE",
"49 441 LINE"
);
}
);
width = 317;
},
{
layerId = UUID1;
paths = (
{
closed = 1;
nodes = (
"276 0 LINE",
"276 532 LINE SMOOTH",
"276 560 OFFCURVE",
"293 574 OFFCURVE",
"317 574 CURVE SMOOTH",
"332 574 OFFCURVE",
"349 570 OFFCURVE",
"363 566 CURVE",
"394 687 LINE",
"356 694 OFFCURVE",
"312 699 OFFCURVE",
"276 699 CURVE SMOOTH",
"194 699 OFFCURVE",
"115 651 OFFCURVE",
"115 535 CURVE SMOOTH",
"115 0 LINE"
);
},
{
closed = 1;
nodes = (
"355 390 LINE",
"355 493 LINE",
"49 493 LINE",
"49 390 LINE"
);
}
);
width = 394;
}
);
unicode = 0066;
},
{
glyphname = g;
lastChange = "2019-04-17 11:18:26 +0000";
layers = (
{
background = {
paths = (
{
closed = 1;
nodes = (
"177 162 LINE",
"145 162 OFFCURVE",
"102 139 OFFCURVE",
"102 92 CURVE SMOOTH",
"102 58 OFFCURVE",
"124 30 OFFCURVE",
"203 30 CURVE SMOOTH",
"412 30 LINE SMOOTH",
"488 30 OFFCURVE",
"535 -13 OFFCURVE",
"535 -70 CURVE SMOOTH",
"535 -154 OFFCURVE",
"434 -241 OFFCURVE",
"260 -241 CURVE SMOOTH",
"134 -241 OFFCURVE",
"43 -181 OFFCURVE",
"43 -100 CURVE SMOOTH",
"43 -24 OFFCURVE",
"119 24 OFFCURVE",
"203 24 CURVE",
"203 24 OFFCURVE",
"203 0 OFFCURVE",
"203 0 CURVE",
"132 0 OFFCURVE",
"79 -38 OFFCURVE",
"79 -100 CURVE SMOOTH",
"79 -157 OFFCURVE",
"137 -210 OFFCURVE",
"260 -210 CURVE SMOOTH",
"400 -210 OFFCURVE",
"498 -145 OFFCURVE",
"498 -70 CURVE SMOOTH",
"498 -34 OFFCURVE",
"470 0 OFFCURVE",
"412 0 CURVE SMOOTH",
"203 0 LINE SMOOTH",
"107 0 OFFCURVE",
"66 46 OFFCURVE",
"66 92 CURVE SMOOTH",
"66 151 OFFCURVE",
"124 182 OFFCURVE",
"177 182 CURVE"
);
},
{
closed = 1;
nodes = (
"384 480 OFFCURVE",
"458 409 OFFCURVE",
"458 306 CURVE SMOOTH",
"458 203 OFFCURVE",
"384 130 OFFCURVE",
"281 130 CURVE SMOOTH",
"177 130 OFFCURVE",
"103 203 OFFCURVE",
"103 306 CURVE SMOOTH",
"103 409 OFFCURVE",
"177 480 OFFCURVE",
"281 480 CURVE SMOOTH"
);
},
{
closed = 1;
nodes = (
"196 450 OFFCURVE",
"140 391 OFFCURVE",
"140 306 CURVE SMOOTH",
"140 221 OFFCURVE",
"196 160 OFFCURVE",
"281 160 CURVE SMOOTH",
"366 160 OFFCURVE",
"422 221 OFFCURVE",
"422 306 CURVE SMOOTH",
"422 391 OFFCURVE",
"366 450 OFFCURVE",
"281 450 CURVE SMOOTH"
);
},
{
closed = 1;
nodes = (
"403 406 LINE",
"403 486 OFFCURVE",
"440 542 OFFCURVE",
"527 542 CURVE",
"521 502 LINE",
"459 502 OFFCURVE",
"424 473 OFFCURVE",
"424 406 CURVE"
);
}
);
};
layerId = UUID0;
paths = (
{
closed = 1;
nodes = (
"434 -241 OFFCURVE",
"535 -154 OFFCURVE",
"535 -70 CURVE SMOOTH",
"535 -13 OFFCURVE",
"488 30 OFFCURVE",
"412 30 CURVE SMOOTH",
"203 30 LINE SMOOTH",
"124 30 OFFCURVE",
"102 58 OFFCURVE",
"102 92 CURVE SMOOTH",
"102 139 OFFCURVE",
"145 162 OFFCURVE",
"177 162 CURVE",
"177 182 LINE",
"124 182 OFFCURVE",
"66 151 OFFCURVE",
"66 92 CURVE SMOOTH",
"66 46 OFFCURVE",
"107 0 OFFCURVE",
"203 0 CURVE SMOOTH",
"412 0 LINE SMOOTH",
"470 0 OFFCURVE",
"498 -34 OFFCURVE",
"498 -70 CURVE SMOOTH",
"498 -145 OFFCURVE",
"400 -210 OFFCURVE",
"260 -210 CURVE SMOOTH",
"137 -210 OFFCURVE",
"79 -157 OFFCURVE",
"79 -100 CURVE SMOOTH",
"79 -40 OFFCURVE",
"123 0 OFFCURVE",
"203 0 CURVE",
"203 20 LINE",
"107 20 OFFCURVE",
"43 -21 OFFCURVE",
"43 -100 CURVE SMOOTH",
"43 -181 OFFCURVE",
"134 -241 OFFCURVE",
"260 -241 CURVE SMOOTH"
);
},
{
closed = 1;
nodes = (
"384 130 OFFCURVE",
"458 203 OFFCURVE",
"458 306 CURVE SMOOTH",
"458 409 OFFCURVE",
"384 480 OFFCURVE",
"281 480 CURVE SMOOTH",
"177 480 OFFCURVE",
"103 409 OFFCURVE",
"103 306 CURVE SMOOTH",
"103 203 OFFCURVE",
"177 130 OFFCURVE",
"281 130 CURVE SMOOTH"
);
},
{
closed = 1;
nodes = (
"196 160 OFFCURVE",
"140 221 OFFCURVE",
"140 306 CURVE SMOOTH",
"140 391 OFFCURVE",
"196 450 OFFCURVE",
"281 450 CURVE SMOOTH",
"366 450 OFFCURVE",
"422 391 OFFCURVE",
"422 306 CURVE SMOOTH",
"422 221 OFFCURVE",
"366 160 OFFCURVE",
"281 160 CURVE SMOOTH"
);
},
{
closed = 1;
nodes = (
"424 473 OFFCURVE",
"459 502 OFFCURVE",
"521 502 CURVE",
"527 542 LINE",
"440 542 OFFCURVE",
"403 486 OFFCURVE",
"403 406 CURVE",
"424 406 LINE"
);
}
);
width = 547;
},
{
background = {
paths = (
{
closed = 1;
nodes = (
"227 170 LINE",
"204 170 OFFCURVE",
"185 159 OFFCURVE",
"185 139 CURVE SMOOTH",
"185 119 OFFCURVE",
"204 104 OFFCURVE",
"250 104 CURVE SMOOTH",
"388 104 LINE SMOOTH",
"504 104 OFFCURVE",
"576 60 OFFCURVE",
"576 -30 CURVE SMOOTH",
"576 -147 OFFCURVE",
"463 -256 OFFCURVE",
"290 -256 CURVE SMOOTH",
"102 -256 OFFCURVE",
"0 -181 OFFCURVE",
"0 -90 CURVE SMOOTH",
"0 -7 OFFCURVE",
"69 34 OFFCURVE",
"137 34 CURVE",
"137 34 OFFCURVE",
"248 -16 OFFCURVE",
"248 -16 CURVE",
"192 -16 OFFCURVE",
"158 -30 OFFCURVE",
"158 -66 CURVE SMOOTH",
"158 -108 OFFCURVE",
"213 -130 OFFCURVE",
"290 -130 CURVE SMOOTH",
"371 -130 OFFCURVE",
"418 -86 OFFCURVE",
"418 -43 CURVE SMOOTH",
"418 -26 OFFCURVE",
"407 -16 OFFCURVE",
"388 -16 CURVE SMOOTH",
"248 -16 LINE SMOOTH",
"128 -16 OFFCURVE",
"51 50 OFFCURVE",
"51 124 CURVE SMOOTH",
"51 182 OFFCURVE",
"102 219 OFFCURVE",
"158 219 CURVE"
);
},
{
closed = 1;
nodes = (
"406 509 OFFCURVE",
"514 443 OFFCURVE",
"514 334 CURVE SMOOTH",
"514 227 OFFCURVE",
"406 160 OFFCURVE",
"288 160 CURVE SMOOTH",
"168 160 OFFCURVE",
"62 227 OFFCURVE",
"62 334 CURVE SMOOTH",
"62 443 OFFCURVE",
"168 509 OFFCURVE",
"288 509 CURVE SMOOTH"
);
},
{
closed = 1;
nodes = (
"241 400 OFFCURVE",
"220 374 OFFCURVE",
"220 334 CURVE SMOOTH",
"220 298 OFFCURVE",
"242 270 OFFCURVE",
"290 270 CURVE SMOOTH",
"338 270 OFFCURVE",
"356 299 OFFCURVE",
"356 334 CURVE SMOOTH",
"356 374 OFFCURVE",
"338 400 OFFCURVE",
"289 400 CURVE SMOOTH"
);
},
{
closed = 1;
nodes = (
"405 476 LINE",
"405 567 OFFCURVE",
"487 626 OFFCURVE",
"567 626 CURVE",
"560 475 LINE",
"505 475 OFFCURVE",
"476 460 OFFCURVE",
"476 429 CURVE"
);
}
);
};
layerId = UUID1;
paths = (
{
closed = 1;
nodes = (
"463 -256 OFFCURVE",
"576 -147 OFFCURVE",
"576 -30 CURVE SMOOTH",
"576 60 OFFCURVE",
"504 94 OFFCURVE",
"388 94 CURVE SMOOTH",
"248 94 LINE SMOOTH",
"204 94 OFFCURVE",
"185 106 OFFCURVE",
"185 130 CURVE SMOOTH",
"185 156 OFFCURVE",
"208 170 OFFCURVE",
"235 170 CURVE",
"189 219 LINE",
"106 219 OFFCURVE",
"51 177 OFFCURVE",
"51 115 CURVE SMOOTH",
"51 38 OFFCURVE",
"149 -16 OFFCURVE",
"248 -16 CURVE SMOOTH",
"388 -16 LINE SMOOTH",
"407 -16 OFFCURVE",
"418 -25 OFFCURVE",
"418 -43 CURVE SMOOTH",
"418 -86 OFFCURVE",
"371 -130 OFFCURVE",
"290 -130 CURVE SMOOTH",
"213 -130 OFFCURVE",
"158 -111 OFFCURVE",
"158 -71 CURVE SMOOTH",
"158 -35 OFFCURVE",
"192 -16 OFFCURVE",
"248 -16 CURVE",
"118 22 LINE",
"53 22 OFFCURVE",
"0 -17 OFFCURVE",
"0 -80 CURVE SMOOTH",
"0 -171 OFFCURVE",
"102 -256 OFFCURVE",
"290 -256 CURVE SMOOTH"
);
},
{
closed = 1;
nodes = (
"406 160 OFFCURVE",
"514 227 OFFCURVE",
"514 334 CURVE SMOOTH",
"514 443 OFFCURVE",
"406 509 OFFCURVE",
"288 509 CURVE SMOOTH",
"168 509 OFFCURVE",
"62 443 OFFCURVE",
"62 334 CURVE SMOOTH",
"62 227 OFFCURVE",
"168 160 OFFCURVE",
"288 160 CURVE SMOOTH"
);
},
{
closed = 1;
nodes = (
"242 270 OFFCURVE",
"220 298 OFFCURVE",
"220 334 CURVE SMOOTH",
"220 374 OFFCURVE",
"241 400 OFFCURVE",
"289 400 CURVE SMOOTH",
"338 400 OFFCURVE",
"356 374 OFFCURVE",
"356 334 CURVE SMOOTH",
"356 299 OFFCURVE",
"338 270 OFFCURVE",
"290 270 CURVE SMOOTH"
);
},
{
closed = 1;
nodes = (
"476 460 OFFCURVE",
"505 475 OFFCURVE",
"560 475 CURVE",
"567 626 LINE",
"487 626 OFFCURVE",
"405 567 OFFCURVE",
"405 476 CURVE",
"476 429 LINE"
);
}
);
width = 600;
}
);
unicode = 0067;
},
{
glyphname = h;
lastChange = "2019-04-17 11:18:37 +0000";
layers = (
{
layerId = UUID0;
paths = (
{
closed = 1;
nodes = (
"492 0 LINE",
"492 278 LINE SMOOTH",
"492 406 OFFCURVE",
"419 480 OFFCURVE",
"312 480 CURVE SMOOTH",
"186 480 OFFCURVE",
"125 379 OFFCURVE",
"125 236 CURVE",
"146 236 LINE",
"146 360 OFFCURVE",
"204 450 OFFCURVE",
"306 450 CURVE SMOOTH",
"400 450 OFFCURVE",
"456 389 OFFCURVE",
"456 278 CURVE SMOOTH",
"456 0 LINE"
);
},
{
closed = 1;
nodes = (
"146 0 LINE",
"146 677 LINE",
"109 677 LINE",
"109 0 LINE"
);
}
);
width = 583;
},
{
layerId = UUID1;
paths = (
{
closed = 1;
nodes = (
"571 0 LINE",
"571 287 LINE SMOOTH",
"571 417 OFFCURVE",
"516 509 OFFCURVE",
"390 509 CURVE SMOOTH",
"278 509 OFFCURVE",
"197 420 OFFCURVE",
"197 207 CURVE",
"245 207 LINE",
"245 321 OFFCURVE",
"290 363 OFFCURVE",
"345 363 CURVE SMOOTH",
"382 363 OFFCURVE",
"411 339 OFFCURVE",
"411 287 CURVE SMOOTH",
"411 0 LINE"
);
},
{
closed = 1;
nodes = (
"245 0 LINE",
"245 690 LINE",
"85 690 LINE",
"85 0 LINE"
);
}
);
width = 644;
}
);
unicode = 0068;
},
{
glyphname = i;
lastChange = "2019-04-17 11:18:49 +0000";
layers = (
{
layerId = UUID0;
paths = (
{
closed = 1;
nodes = (
"146 0 LINE",
"146 471 LINE",
"109 471 LINE",
"109 0 LINE"
);
},
{
closed = 1;
nodes = (
"146 609 OFFCURVE",
"158 622 OFFCURVE",
"158 638 CURVE SMOOTH",
"158 654 OFFCURVE",
"146 666 OFFCURVE",
"128 666 CURVE SMOOTH",
"109 666 OFFCURVE",
"98 654 OFFCURVE",
"98 638 CURVE SMOOTH",
"98 622 OFFCURVE",
"109 609 OFFCURVE",
"128 609 CURVE SMOOTH"
);
}
);
width = 267;
},
{
layerId = UUID1;
paths = (
{
closed = 1;
nodes = (
"260 0 LINE",
"260 495 LINE",
"100 495 LINE",
"100 0 LINE"
);
},
{
closed = 1;
nodes = (
"238 556 OFFCURVE",
"275 589 OFFCURVE",
"275 645 CURVE SMOOTH",
"275 701 OFFCURVE",
"238 736 OFFCURVE",
"180 736 CURVE SMOOTH",
"120 736 OFFCURVE",
"85 701 OFFCURVE",
"85 645 CURVE SMOOTH",
"85 589 OFFCURVE",
"120 556 OFFCURVE",
"180 556 CURVE SMOOTH"
);
}
);
width = 360;
}
);
unicode = 0069;
},
{
glyphname = j;
lastChange = "2019-04-17 11:19:00 +0000";
layers = (
{
background = {
paths = (
{
closed = 1;
nodes = (
"101 512 OFFCURVE",
"110 501 OFFCURVE",
"125 501 CURVE SMOOTH",
"140 501 OFFCURVE",
"150 512 OFFCURVE",
"150 525 CURVE SMOOTH",
"150 538 OFFCURVE",
"140 548 OFFCURVE",
"125 548 CURVE SMOOTH",
"110 548 OFFCURVE",
"101 538 OFFCURVE",
"101 525 CURVE SMOOTH"
);
}
);
};
layerId = UUID0;
paths = (
{
closed = 1;
nodes = (
"108 -241 OFFCURVE",
"170 -193 OFFCURVE",
"170 -78 CURVE SMOOTH",
"170 473 LINE",
"134 473 LINE",
"134 -78 LINE",
"134 -164 OFFCURVE",
"97 -208 OFFCURVE",
"32 -208 CURVE SMOOTH",
"-12 -208 OFFCURVE",
"-47 -192 OFFCURVE",
"-90 -164 CURVE",
"-96 -198 LINE",
"-51 -228 OFFCURVE",
"-9 -241 OFFCURVE",
"32 -241 CURVE SMOOTH"
);
},
{
closed = 1;
nodes = (
"170 609 OFFCURVE",
"182 622 OFFCURVE",
"182 638 CURVE SMOOTH",
"182 654 OFFCURVE",
"170 666 OFFCURVE",
"152 666 CURVE SMOOTH",
"134 666 OFFCURVE",
"123 654 OFFCURVE",
"123 638 CURVE SMOOTH",
"123 622 OFFCURVE",
"134 609 OFFCURVE",
"152 609 CURVE SMOOTH"
);
}
);
width = 292;
},
{
background = {
paths = (
{
closed = 1;
nodes = (
"76 485 OFFCURVE",
"105 458 OFFCURVE",
"154 458 CURVE SMOOTH",
"202 458 OFFCURVE",
"232 485 OFFCURVE",
"232 531 CURVE SMOOTH",
"232 577 OFFCURVE",
"202 606 OFFCURVE",
"154 606 CURVE SMOOTH",
"105 606 OFFCURVE",
"76 577 OFFCURVE",
"76 531 CURVE SMOOTH"
);
}
);
};
layerId = UUID1;
paths = (
{
closed = 1;
nodes = (
"197 -256 OFFCURVE",
"258 -199 OFFCURVE",
"258 -47 CURVE SMOOTH",
"258 495 LINE",
"97 495 LINE",
"97 -45 LINE",
"97 -102 OFFCURVE",
"77 -117 OFFCURVE",
"36 -117 CURVE SMOOTH",
"4 -117 OFFCURVE",
"-36 -106 OFFCURVE",
"-66 -94 CURVE",
"-66 -231 LINE",
"-19 -244 OFFCURVE",
"23 -256 OFFCURVE",
"80 -256 CURVE SMOOTH"
);
},
{
closed = 1;
nodes = (
"236 556 OFFCURVE",
"272 589 OFFCURVE",
"272 645 CURVE SMOOTH",
"272 701 OFFCURVE",
"236 736 OFFCURVE",
"176 736 CURVE SMOOTH",
"117 736 OFFCURVE",
"81 701 OFFCURVE",
"81 645 CURVE SMOOTH",
"81 589 OFFCURVE",
"117 556 OFFCURVE",
"176 556 CURVE SMOOTH"
);
}
);
width = 357;
}
);
unicode = 006A;
},
{
glyphname = k;
lastChange = "2019-04-14 20:13:24 +0000";
layers = (
{
background = {
paths = (
{
closed = 1;
nodes = (
"90 557 LINE",
"90 0 LINE",
"120 0 LINE",
"120 557 LINE"
);
},
{
closed = 1;
nodes = (
"119 204 LINE",
"234 197 OFFCURVE",
"277 160 OFFCURVE",
"306 76 CURVE SMOOTH",
"332 0 LINE",
"365 0 LINE",
"339 76 LINE SMOOTH",
"304 179 OFFCURVE",
"248 217 OFFCURVE",
"142 224 CURVE",
"230 233 OFFCURVE",
"315 280 OFFCURVE",
"363 388 CURVE",
"330 388 LINE",
"279 288 OFFCURVE",
"202 250 OFFCURVE",
"119 241 CURVE"
);
},
{
closed = 1;
nodes = (
"333 365 OFFCURVE",
"340 358 OFFCURVE",
"348 358 CURVE SMOOTH",
"356 358 OFFCURVE",
"363 365 OFFCURVE",
"363 373 CURVE SMOOTH",
"363 381 OFFCURVE",
"356 388 OFFCURVE",
"348 388 CURVE SMOOTH",
"340 388 OFFCURVE",
"333 381 OFFCURVE",
"333 373 CURVE SMOOTH"
);
},
{
closed = 1;
nodes = (
"113 190 OFFCURVE",
"120 183 OFFCURVE",
"128 183 CURVE SMOOTH",
"136 183 OFFCURVE",
"143 190 OFFCURVE",
"143 198 CURVE SMOOTH",
"143 206 OFFCURVE",
"136 213 OFFCURVE",
"128 213 CURVE SMOOTH",
"120 213 OFFCURVE",
"113 206 OFFCURVE",
"113 198 CURVE SMOOTH"
);
}
);
};
layerId = UUID0;
paths = (
{
closed = 1;
nodes = (
"146 0 LINE",
"146 677 LINE",
"109 677 LINE",
"109 0 LINE"
);
},
{
closed = 1;
nodes = (
"139 204 LINE",
"475 471 LINE",
"419 471 LINE",
"139 247 LINE"
);
},
{
closed = 1;
nodes = (
"486 0 LINE",
"248 295 LINE",
"202 295 LINE",
"440 0 LINE"
);
}
);
width = 535;
},
{
background = {
paths = (
{
closed = 1;
nodes = (
"70 568 LINE",
"70 0 LINE",
"202 0 LINE",
"202 568 LINE"
);
},
{
closed = 1;
nodes = (
"196 171 LINE",
"275 164 OFFCURVE",
"320 108 OFFCURVE",
"328 22 CURVE SMOOTH",
"330 0 LINE",
"463 0 LINE",
"461 22 LINE SMOOTH",
"447 157 OFFCURVE",
"392 202 OFFCURVE",
"304 216 CURVE",
"389 245 OFFCURVE",
"432 309 OFFCURVE",
"459 406 CURVE",
"311 406 LINE",
"288 319 OFFCURVE",
"253 267 OFFCURVE",
"196 237 CURVE"
);
},
{
closed = 1;
nodes = (
"118 69 OFFCURVE",
"125 62 OFFCURVE",
"133 62 CURVE SMOOTH",
"141 62 OFFCURVE",
"148 69 OFFCURVE",
"148 77 CURVE SMOOTH",
"148 85 OFFCURVE",
"141 92 OFFCURVE",
"133 92 CURVE SMOOTH",
"125 92 OFFCURVE",
"118 85 OFFCURVE",
"118 77 CURVE SMOOTH"
);
},
{
closed = 1;
nodes = (
"118 69 OFFCURVE",
"125 62 OFFCURVE",
"133 62 CURVE SMOOTH",
"141 62 OFFCURVE",
"148 69 OFFCURVE",
"148 77 CURVE SMOOTH",
"148 85 OFFCURVE",
"141 92 OFFCURVE",
"133 92 CURVE SMOOTH",
"125 92 OFFCURVE",
"118 85 OFFCURVE",
"118 77 CURVE SMOOTH"
);
}
);
};
layerId = UUID1;
paths = (
{
closed = 1;
nodes = (
"245 0 LINE",
"245 690 LINE",
"85 690 LINE",
"85 0 LINE"
);
},
{
closed = 1;
nodes = (
"224 166 LINE",
"609 493 LINE",
"395 493 LINE",
"224 329 LINE"
);
},
{
closed = 1;
nodes = (
"621 0 LINE",
"366 357 LINE",
"220 317 LINE",
"426 0 LINE"
);
}
);
width = 621;
}
);
unicode = 006B;
},
{
glyphname = l;
lastChange = "2019-04-14 20:13:24 +0000";
layers = (
{
background = {
paths = (
{
closed = 1;
nodes = (
"90 0 LINE",
"120 0 LINE",
"120 586 LINE",
"90 586 LINE"
);
}
);
};
layerId = UUID0;
paths = (
{
closed = 1;
nodes = (
"146 0 LINE",
"146 677 LINE",
"109 677 LINE",
"109 0 LINE"
);
}
);
width = 255;
},
{
background = {
paths = (
{
closed = 1;
nodes = (
"78 0 LINE",
"193 0 LINE",
"193 596 LINE",
"78 596 LINE"
);
}
);
};
layerId = UUID1;
paths = (
{
closed = 1;
nodes = (
"245 0 LINE",
"245 690 LINE",
"85 690 LINE",
"85 0 LINE"
);
}
);
width = 330;
}
);
unicode = 006C;
},
{
glyphname = m;
lastChange = "2019-04-17 21:54:20 +0000";
layers = (
{
background = {
paths = (
{
closed = 1;
nodes = (
"90 388 LINE",
"90 0 LINE",
"120 0 LINE",
"120 285 LINE",
"114 388 LINE"
);
},
{
closed = 1;
nodes = (
"153 395 OFFCURVE",
"103 312 OFFCURVE",
"103 194 CURVE",
"120 194 LINE",
"120 296 OFFCURVE",
"168 371 OFFCURVE",
"252 371 CURVE SMOOTH",
"329 371 OFFCURVE",
"375 320 OFFCURVE",
"375 229 CURVE SMOOTH",
"375 0 LINE",
"405 0 LINE",
"405 229 LINE SMOOTH",
"405 334 OFFCURVE",
"345 395 OFFCURVE",
"257 395 CURVE SMOOTH"
);
},
{
closed = 1;
nodes = (
"434 395 OFFCURVE",
"386 317 OFFCURVE",
"386 202 CURVE",
"405 202 LINE",
"405 300 OFFCURVE",
"446 371 OFFCURVE",
"531 371 CURVE SMOOTH",
"608 371 OFFCURVE",
"654 320 OFFCURVE",
"654 229 CURVE SMOOTH",
"654 0 LINE",
"684 0 LINE",
"684 229 LINE SMOOTH",
"684 334 OFFCURVE",
"624 395 OFFCURVE",
"536 395 CURVE SMOOTH"
);
}
);
};
layerId = UUID0;
paths = (
{
closed = 1;
nodes = (
"831 0 LINE",
"831 278 LINE SMOOTH",
"831 406 OFFCURVE",
"758 480 OFFCURVE",
"651 480 CURVE SMOOTH",
"527 480 OFFCURVE",
"469 385 OFFCURVE",
"469 245 CURVE",
"492 245 LINE",
"492 364 OFFCURVE",
"542 450 OFFCURVE",
"645 450 CURVE SMOOTH",
"739 450 OFFCURVE",
"795 389 OFFCURVE",
"795 278 CURVE SMOOTH",
"795 0 LINE"
);
},
{
closed = 1;
nodes = (
"146 0 LINE",
"146 236 LINE SMOOTH",
"146 360 OFFCURVE",
"204 450 OFFCURVE",
"306 450 CURVE SMOOTH",
"400 450 OFFCURVE",
"456 389 OFFCURVE",
"456 278 CURVE SMOOTH",
"456 0 LINE",
"492 0 LINE",
"492 278 LINE SMOOTH",
"492 406 OFFCURVE",
"419 480 OFFCURVE",
"312 480 CURVE SMOOTH",
"228 480 OFFCURVE",
"172 435 OFFCURVE",
"145 362 CURVE",
"139 471 LINE",
"109 471 LINE",
"109 0 LINE"
);
}
);
width = 922;
},
{
background = {
paths = (
{
closed = 1;
nodes = (
"70 406 LINE",
"70 0 LINE",
"202 0 LINE",
"202 338 LINE",
"186 406 LINE"
);
},
{
closed = 1;
nodes = (
"495 419 OFFCURVE",
"418 365 OFFCURVE",
"418 170 CURVE",
"470 170 LINE",
"470 264 OFFCURVE",
"502 299 OFFCURVE",
"547 299 CURVE SMOOTH",
"577 299 OFFCURVE",
"601 279 OFFCURVE",
"601 236 CURVE SMOOTH",
"601 0 LINE",
"733 0 LINE",
"733 236 LINE SMOOTH",
"733 343 OFFCURVE",
"688 419 OFFCURVE",
"584 419 CURVE SMOOTH"
);
},
{
closed = 1;
nodes = (
"229 419 OFFCURVE",
"162 346 OFFCURVE",
"162 170 CURVE",
"202 170 LINE",
"202 264 OFFCURVE",
"239 299 OFFCURVE",
"284 299 CURVE SMOOTH",
"314 299 OFFCURVE",
"338 279 OFFCURVE",
"338 236 CURVE SMOOTH",
"338 0 LINE",
"470 0 LINE",
"470 236 LINE SMOOTH",
"470 343 OFFCURVE",
"425 419 OFFCURVE",
"321 419 CURVE SMOOTH"
);
}
);
};
layerId = UUID1;
paths = (
{
closed = 1;
nodes = (
"891 0 LINE",
"891 287 LINE SMOOTH",
"891 417 OFFCURVE",
"836 509 OFFCURVE",
"710 509 CURVE SMOOTH",
"601 509 OFFCURVE",
"508 443 OFFCURVE",
"508 207 CURVE",
"571 207 LINE",
"571 321 OFFCURVE",
"610 363 OFFCURVE",
"665 363 CURVE SMOOTH",
"701 363 OFFCURVE",
"730 339 OFFCURVE",
"730 287 CURVE SMOOTH",
"730 0 LINE"
);
},
{
closed = 1;
nodes = (
"245 0 LINE",
"245 207 LINE SMOOTH",
"245 321 OFFCURVE",
"290 363 OFFCURVE",
"345 363 CURVE SMOOTH",
"382 363 OFFCURVE",
"411 339 OFFCURVE",
"411 287 CURVE SMOOTH",
"411 0 LINE",
"571 0 LINE",
"571 287 LINE SMOOTH",
"571 417 OFFCURVE",
"516 509 OFFCURVE",
"390 509 CURVE SMOOTH",
"329 509 OFFCURVE",
"277 482 OFFCURVE",
"242 423 CURVE",
"226 493 LINE",
"85 493 LINE",
"85 0 LINE"
);
}
);
width = 963;
}
);
unicode = 006D;
},
{
glyphname = n;
lastChange = "2019-04-17 11:22:51 +0000";
layers = (
{
anchors = (
{
name = above;
position = "{295, 486}";
}
);
layerId = UUID0;
paths = (
{
closed = 1;
nodes = (
"492 0 LINE",
"492 278 LINE SMOOTH",
"492 406 OFFCURVE",
"419 480 OFFCURVE",
"312 480 CURVE SMOOTH",
"186 480 OFFCURVE",
"125 379 OFFCURVE",
"125 236 CURVE",
"146 236 LINE",
"146 360 OFFCURVE",
"204 450 OFFCURVE",
"306 450 CURVE SMOOTH",
"400 450 OFFCURVE",
"456 389 OFFCURVE",
"456 278 CURVE SMOOTH",
"456 0 LINE"
);
},
{
closed = 1;
nodes = (
"146 0 LINE",
"146 346 LINE",
"139 471 LINE",
"109 471 LINE",
"109 0 LINE"
);
}
);
width = 583;
},
{
anchors = (
{
name = above;
position = "{324, 547}";
}
);
layerId = UUID1;
paths = (
{
closed = 1;
nodes = (
"571 0 LINE",
"571 287 LINE SMOOTH",
"571 417 OFFCURVE",
"516 509 OFFCURVE",
"390 509 CURVE SMOOTH",
"278 509 OFFCURVE",
"197 420 OFFCURVE",
"197 207 CURVE",
"245 207 LINE",
"245 321 OFFCURVE",
"290 363 OFFCURVE",
"345 363 CURVE SMOOTH",
"382 363 OFFCURVE",
"411 339 OFFCURVE",
"411 287 CURVE SMOOTH",
"411 0 LINE"
);
},
{
closed = 1;
nodes = (
"245 0 LINE",
"245 411 LINE",
"226 493 LINE",
"85 493 LINE",
"85 0 LINE"
);
}
);
width = 644;
}
);
unicode = 006E;
},
{
glyphname = o;
lastChange = "2019-04-17 11:16:31 +0000";
layers = (
{
anchors = (
{
name = above;
position = "{264, 486}";
}
);
layerId = UUID0;
paths = (
{
closed = 1;
nodes = (
"389 -9 OFFCURVE",
"473 79 OFFCURVE",
"473 236 CURVE SMOOTH",
"473 392 OFFCURVE",
"389 480 OFFCURVE",
"264 480 CURVE SMOOTH",
"139 480 OFFCURVE",
"55 392 OFFCURVE",
"55 236 CURVE SMOOTH",
"55 79 OFFCURVE",
"139 -9 OFFCURVE",
"264 -9 CURVE SMOOTH"
);
},
{
closed = 1;
nodes = (
"147 22 OFFCURVE",
"95 111 OFFCURVE",
"95 236 CURVE SMOOTH",
"95 361 OFFCURVE",
"147 450 OFFCURVE",
"264 450 CURVE SMOOTH",
"380 450 OFFCURVE",
"433 361 OFFCURVE",
"433 236 CURVE SMOOTH",
"433 111 OFFCURVE",
"380 22 OFFCURVE",
"264 22 CURVE SMOOTH"
);
}
);
width = 527;
},
{
anchors = (
{
name = above;
position = "{294, 547}";
}
);
layerId = UUID1;
paths = (
{
closed = 1;
nodes = (
"429 -16 OFFCURVE",
"543 67 OFFCURVE",
"543 245 CURVE SMOOTH",
"543 428 OFFCURVE",
"429 509 OFFCURVE",
"294 509 CURVE SMOOTH",
"157 509 OFFCURVE",
"43 428 OFFCURVE",
"43 245 CURVE SMOOTH",
"43 67 OFFCURVE",
"157 -16 OFFCURVE",
"294 -16 CURVE SMOOTH"
);
},
{
closed = 1;
nodes = (
"242 124 OFFCURVE",
"203 156 OFFCURVE",
"203 245 CURVE SMOOTH",
"203 337 OFFCURVE",
"253 369 OFFCURVE",
"300 369 CURVE SMOOTH",
"346 369 OFFCURVE",
"385 337 OFFCURVE",
"385 245 CURVE SMOOTH",
"385 156 OFFCURVE",
"334 124 OFFCURVE",
"288 124 CURVE SMOOTH"
);
}
);
width = 586;
}
);
unicode = 006F;
},
{
glyphname = p;
lastChange = "2019-04-17 11:23:28 +0000";
layers = (
{
layerId = UUID0;
paths = (
{
closed = 1;
nodes = (
"407 -9 OFFCURVE",
"503 84 OFFCURVE",
"503 236 CURVE SMOOTH",
"503 388 OFFCURVE",
"407 480 OFFCURVE",
"299 480 CURVE SMOOTH",
"197 480 OFFCURVE",
"123 402 OFFCURVE",
"123 278 CURVE",
"146 278 LINE",
"146 392 OFFCURVE",
"222 450 OFFCURVE",
"299 450 CURVE SMOOTH",
"385 450 OFFCURVE",
"462 372 OFFCURVE",
"462 236 CURVE SMOOTH",
"462 100 OFFCURVE",
"385 22 OFFCURVE",
"299 22 CURVE SMOOTH",
"221 22 OFFCURVE",
"146 80 OFFCURVE",
"146 193 CURVE",
"123 193 LINE",
"123 69 OFFCURVE",
"197 -9 OFFCURVE",
"299 -9 CURVE SMOOTH"
);
},
{
closed = 1;
nodes = (
"146 -232 LINE",
"146 368 LINE",
"141 471 LINE",
"109 471 LINE",
"109 -232 LINE"
);
}
);
width = 558;
},
{
layerId = UUID1;
paths = (
{
closed = 1;
nodes = (
"480 -16 OFFCURVE",
"594 80 OFFCURVE",
"594 247 CURVE SMOOTH",
"594 412 OFFCURVE",
"481 509 OFFCURVE",
"363 509 CURVE SMOOTH",
"273 509 OFFCURVE",
"192 446 OFFCURVE",
"192 278 CURVE",
"245 278 LINE",
"245 330 OFFCURVE",
"281 363 OFFCURVE",
"333 363 CURVE SMOOTH",
"396 363 OFFCURVE",
"435 317 OFFCURVE",
"435 247 CURVE SMOOTH",
"435 163 OFFCURVE",
"375 130 OFFCURVE",
"329 130 CURVE SMOOTH",
"284 130 OFFCURVE",
"245 158 OFFCURVE",
"245 197 CURVE",
"192 197 LINE",
"192 47 OFFCURVE",
"245 -16 OFFCURVE",
"355 -16 CURVE SMOOTH"
);
},
{
closed = 1;
nodes = (
"245 -240 LINE",
"245 364 LINE",
"215 493 LINE",
"85 493 LINE",
"85 -240 LINE"
);
}
);
width = 637;
}
);
unicode = 0070;
},
{
glyphname = q;
lastChange = "2019-04-17 11:23:42 +0000";
layers = (
{
background = {
paths = (
{
closed = 1;
nodes = (
"296 -7 OFFCURVE",
"375 69 OFFCURVE",
"375 194 CURVE SMOOTH",
"375 319 OFFCURVE",
"296 395 OFFCURVE",
"207 395 CURVE SMOOTH",
"123 395 OFFCURVE",
"62 331 OFFCURVE",
"62 229 CURVE",
"81 229 LINE",
"81 323 OFFCURVE",
"144 370 OFFCURVE",
"207 370 CURVE SMOOTH",
"278 370 OFFCURVE",
"341 306 OFFCURVE",
"341 194 CURVE SMOOTH",
"341 82 OFFCURVE",
"278 18 OFFCURVE",
"207 18 CURVE SMOOTH",
"143 18 OFFCURVE",
"81 66 OFFCURVE",
"81 159 CURVE",
"62 159 LINE",
"62 57 OFFCURVE",
"123 -7 OFFCURVE",
"207 -7 CURVE SMOOTH"
);
}
);
};
layerId = UUID0;
paths = (
{
closed = 1;
nodes = (
"361 -9 OFFCURVE",
"435 69 OFFCURVE",
"435 193 CURVE",
"412 193 LINE",
"412 79 OFFCURVE",
"335 22 OFFCURVE",
"259 22 CURVE SMOOTH",
"173 22 OFFCURVE",
"96 100 OFFCURVE",
"96 236 CURVE SMOOTH",
"96 372 OFFCURVE",
"173 450 OFFCURVE",
"259 450 CURVE SMOOTH",
"335 450 OFFCURVE",
"412 392 OFFCURVE",
"412 278 CURVE",
"435 278 LINE",
"435 402 OFFCURVE",
"361 480 OFFCURVE",
"259 480 CURVE SMOOTH",
"151 480 OFFCURVE",
"55 388 OFFCURVE",
"55 236 CURVE SMOOTH",
"55 84 OFFCURVE",
"151 -9 OFFCURVE",
"259 -9 CURVE SMOOTH"
);
},
{
closed = 1;
nodes = (
"527 -207 LINE",
"465 -185 OFFCURVE",
"448 -165 OFFCURVE",
"448 -87 CURVE SMOOTH",
"448 471 LINE",
"417 471 LINE",
"412 368 LINE",
"412 -87 LINE SMOOTH",
"412 -176 OFFCURVE",
"435 -217 OFFCURVE",
"509 -241 CURVE"
);
}
);
width = 558;
},
{
background = {
paths = (
{
closed = 1;
nodes = (
"129 -13 OFFCURVE",
"35 66 OFFCURVE",
"35 203 CURVE SMOOTH",
"35 339 OFFCURVE",
"128 419 OFFCURVE",
"225 419 CURVE SMOOTH",
"299 419 OFFCURVE",
"366 367 OFFCURVE",
"366 229 CURVE",
"322 229 LINE",
"322 272 OFFCURVE",
"293 299 OFFCURVE",
"250 299 CURVE SMOOTH",
"198 299 OFFCURVE",
"166 261 OFFCURVE",
"166 203 CURVE SMOOTH",
"166 134 OFFCURVE",
"215 107 OFFCURVE",
"253 107 CURVE SMOOTH",
"290 107 OFFCURVE",
"322 130 OFFCURVE",
"322 162 CURVE",
"366 162 LINE",
"366 39 OFFCURVE",
"322 -13 OFFCURVE",
"232 -13 CURVE SMOOTH"
);
}
);
};
layerId = UUID1;
paths = (
{
closed = 1;
nodes = (
"391 -16 OFFCURVE",
"414 74 OFFCURVE",
"414 197 CURVE",
"391 197 LINE",
"391 158 OFFCURVE",
"352 130 OFFCURVE",
"307 130 CURVE SMOOTH",
"261 130 OFFCURVE",
"202 163 OFFCURVE",
"202 247 CURVE SMOOTH",
"202 317 OFFCURVE",
"241 363 OFFCURVE",
"304 363 CURVE SMOOTH",
"356 363 OFFCURVE",
"391 330 OFFCURVE",
"391 278 CURVE",
"445 278 LINE",
"445 446 OFFCURVE",
"363 509 OFFCURVE",
"273 509 CURVE SMOOTH",
"156 509 OFFCURVE",
"43 412 OFFCURVE",
"43 247 CURVE SMOOTH",
"43 80 OFFCURVE",
"157 -16 OFFCURVE",
"282 -16 CURVE SMOOTH"
);
},
{
closed = 1;
nodes = (
"612 -143 LINE",
"566 -130 OFFCURVE",
"552 -118 OFFCURVE",
"552 -69 CURVE SMOOTH",
"552 493 LINE",
"452 493 LINE",
"391 364 LINE",
"391 -55 LINE SMOOTH",
"391 -166 OFFCURVE",
"442 -228 OFFCURVE",
"570 -256 CURVE"
);
}
);
width = 637;
}
);
unicode = 0071;
},
{
glyphname = r;
lastChange = "2019-04-17 11:31:43 +0000";
layers = (
{
background = {
paths = (
{
closed = 1;
nodes = (
"161 293 LINE",
"161 358 OFFCURVE",
"199 370 OFFCURVE",
"228 370 CURVE SMOOTH",
"245 370 OFFCURVE",
"263 366 OFFCURVE",
"282 358 CURVE",
"287 384 LINE",
"268 392 OFFCURVE",
"251 395 OFFCURVE",
"232 395 CURVE SMOOTH",
"172 395 OFFCURVE",
"131 362 OFFCURVE",
"131 293 CURVE"
);
}
);
};
layerId = UUID0;
paths = (
{
closed = 1;
nodes = (
"146 0 LINE",
"146 471 LINE",
"109 471 LINE",
"109 0 LINE"
);
},
{
closed = 1;
nodes = (
"146 219 LINE",
"146 350 OFFCURVE",
"173 447 OFFCURVE",
"264 447 CURVE SMOOTH",
"283 447 OFFCURVE",
"309 441 OFFCURVE",
"329 433 CURVE",
"337 467 LINE",
"315 475 OFFCURVE",
"295 480 OFFCURVE",
"270 480 CURVE SMOOTH",
"163 480 OFFCURVE",
"128 391 OFFCURVE",
"128 219 CURVE"
);
}
);
width = 330;
},
{
background = {
paths = (
{
closed = 1;
nodes = (
"227 440 LINE",
"227 463 OFFCURVE",
"241 475 OFFCURVE",
"261 475 CURVE SMOOTH",
"273 475 OFFCURVE",
"287 472 OFFCURVE",
"299 468 CURVE",
"324 568 LINE",
"293 574 OFFCURVE",
"257 578 OFFCURVE",
"227 578 CURVE SMOOTH",
"160 578 OFFCURVE",
"95 538 OFFCURVE",
"95 443 CURVE"
);
}
);
};
layerId = UUID1;
paths = (
{
closed = 1;
nodes = (
"245 0 LINE",
"245 495 LINE",
"85 495 LINE",
"85 0 LINE"
);
},
{
closed = 1;
nodes = (
"245 210 LINE",
"245 305 OFFCURVE",
"292 340 OFFCURVE",
"362 340 CURVE SMOOTH",
"377 340 OFFCURVE",
"395 340 OFFCURVE",
"413 338 CURVE",
"412 499 LINE",
"402 501 OFFCURVE",
"391 502 OFFCURVE",
"380 502 CURVE SMOOTH",
"299 502 OFFCURVE",
"210 411 OFFCURVE",
"210 210 CURVE"
);
}
);
width = 425;
}
);
unicode = 0072;
},
{
glyphname = s;
lastChange = "2019-04-17 11:32:07 +0000";
layers = (
{
layerId = UUID0;
paths = (
{
closed = 1;
nodes = (
"386 -9 OFFCURVE",
"451 53 OFFCURVE",
"451 120 CURVE SMOOTH",
"451 183 OFFCURVE",
"405 221 OFFCURVE",
"316 245 CURVE SMOOTH",
"241 266 LINE SMOOTH",
"165 286 OFFCURVE",
"130 315 OFFCURVE",
"130 361 CURVE SMOOTH",
"130 403 OFFCURVE",
"175 450 OFFCURVE",
"256 450 CURVE SMOOTH",
"335 450 OFFCURVE",
"383 425 OFFCURVE",
"392 373 CURVE",
"434 373 LINE",
"429 434 OFFCURVE",
"366 480 OFFCURVE",
"256 480 CURVE SMOOTH",
"159 480 OFFCURVE",
"91 433 OFFCURVE",
"91 361 CURVE SMOOTH",
"91 300 OFFCURVE",
"137 256 OFFCURVE",
"224 233 CURVE SMOOTH",
"303 211 LINE SMOOTH",
"380 191 OFFCURVE",
"413 168 OFFCURVE",
"413 120 CURVE SMOOTH",
"413 63 OFFCURVE",
"345 22 OFFCURVE",
"272 22 CURVE SMOOTH",
"176 22 OFFCURVE",
"117 62 OFFCURVE",
"113 135 CURVE",
"73 135 LINE",
"78 58 OFFCURVE",
"135 -9 OFFCURVE",
"272 -9 CURVE SMOOTH"
);
}
);
width = 524;
},
{
layerId = UUID1;
paths = (
{
closed = 1;
nodes = (
"399 -16 OFFCURVE",
"492 62 OFFCURVE",
"492 145 CURVE SMOOTH",
"492 205 OFFCURVE",
"450 243 OFFCURVE",
"383 269 CURVE SMOOTH",
"247 323 LINE SMOOTH",
"224 332 OFFCURVE",
"215 341 OFFCURVE",
"215 354 CURVE SMOOTH",
"215 372 OFFCURVE",
"238 385 OFFCURVE",
"271 385 CURVE SMOOTH",
"313 385 OFFCURVE",
"330 368 OFFCURVE",
"330 345 CURVE",
"476 345 LINE",
"476 440 OFFCURVE",
"402 509 OFFCURVE",
"271 509 CURVE SMOOTH",
"132 509 OFFCURVE",
"46 450 OFFCURVE",
"46 362 CURVE SMOOTH",
"46 300 OFFCURVE",
"85 254 OFFCURVE",
"156 226 CURVE SMOOTH",
"276 179 LINE SMOOTH",
"301 170 OFFCURVE",
"313 160 OFFCURVE",
"313 145 CURVE SMOOTH",
"313 125 OFFCURVE",
"294 108 OFFCURVE",
"254 108 CURVE SMOOTH",
"210 108 OFFCURVE",
"182 120 OFFCURVE",
"182 154 CURVE",
"36 154 LINE",
"36 40 OFFCURVE",
"134 -16 OFFCURVE",
"275 -16 CURVE SMOOTH"
);
}
);
width = 529;
}
);
unicode = 0073;
},
{
glyphname = t;
lastChange = "2019-04-17 11:32:14 +0000";
layers = (
{
background = {
paths = (
{
closed = 1;
nodes = (
"130 95 LINE",
"130 30 OFFCURVE",
"168 18 OFFCURVE",
"197 18 CURVE SMOOTH",
"214 18 OFFCURVE",
"232 22 OFFCURVE",
"251 30 CURVE",
"256 4 LINE",
"237 -4 OFFCURVE",
"220 -7 OFFCURVE",
"201 -7 CURVE SMOOTH",
"141 -7 OFFCURVE",
"100 26 OFFCURVE",
"100 95 CURVE"
);
}
);
};
layerId = UUID0;
paths = (
{
closed = 1;
nodes = (
"271 -9 OFFCURVE",
"303 0 OFFCURVE",
"334 15 CURVE",
"329 43 LINE",
"296 29 OFFCURVE",
"270 22 OFFCURVE",
"239 22 CURVE SMOOTH",
"185 22 OFFCURVE",
"158 51 OFFCURVE",
"158 111 CURVE SMOOTH",
"158 607 LINE",
"122 607 LINE",
"122 111 LINE SMOOTH",
"122 32 OFFCURVE",
"168 -9 OFFCURVE",
"239 -9 CURVE SMOOTH"
);
},
{
closed = 1;
nodes = (
"328 441 LINE",
"328 471 LINE",
"36 471 LINE",
"36 441 LINE"
);
}
);
width = 357;
},
{
background = {
paths = (
{
closed = 1;
nodes = (
"205 125 LINE",
"205 102 OFFCURVE",
"219 90 OFFCURVE",
"239 90 CURVE SMOOTH",
"251 90 OFFCURVE",
"265 93 OFFCURVE",
"277 97 CURVE",
"302 -3 LINE",
"271 -9 OFFCURVE",
"235 -13 OFFCURVE",
"205 -13 CURVE SMOOTH",
"138 -13 OFFCURVE",
"73 27 OFFCURVE",
"73 122 CURVE"
);
}
);
};
layerId = UUID1;
paths = (
{
closed = 1;
nodes = (
"309 -16 OFFCURVE",
"344 -5 OFFCURVE",
"384 11 CURVE",
"361 122 LINE",
"333 113 OFFCURVE",
"312 109 OFFCURVE",
"293 109 CURVE SMOOTH",
"266 109 OFFCURVE",
"249 124 OFFCURVE",
"249 153 CURVE SMOOTH",
"249 618 LINE",
"89 618 LINE",
"89 148 LINE SMOOTH",
"89 33 OFFCURVE",
"173 -16 OFFCURVE",
"267 -16 CURVE SMOOTH"
);
},
{
closed = 1;
nodes = (
"361 390 LINE",
"361 493 LINE",
"30 493 LINE",
"30 390 LINE"
);
}
);
width = 414;
}
);
unicode = 0074;
},
{
glyphname = u;
lastChange = "2019-04-14 20:13:24 +0000";
layers = (
{
anchors = (
{
name = above;
position = "{288, 486}";
}
);
background = {
paths = (
{
closed = 1;
nodes = (
"360 409 LINE",
"360 0 LINE",
"390 0 LINE",
"390 409 LINE"
);
},
{
closed = 1;
nodes = (
"75 409 LINE",
"75 150 LINE SMOOTH",
"75 50 OFFCURVE",
"127 -7 OFFCURVE",
"219 -7 CURVE SMOOTH",
"320 -7 OFFCURVE",
"380 81 OFFCURVE",
"380 205 CURVE",
"360 205 LINE",
"360 108 OFFCURVE",
"310 20 OFFCURVE",
"219 20 CURVE SMOOTH",
"144 20 OFFCURVE",
"105 65 OFFCURVE",
"105 150 CURVE SMOOTH",
"105 409 LINE"
);
}
);
};
layerId = UUID0;
paths = (
{
closed = 1;
nodes = (
"437 0 LINE",
"474 0 LINE",
"474 471 LINE",
"437 471 LINE"
);
},
{
closed = 1;
nodes = (
"91 173 LINE SMOOTH",
"91 57 OFFCURVE",
"154 -9 OFFCURVE",
"266 -9 CURVE SMOOTH",
"389 -9 OFFCURVE",
"462 94 OFFCURVE",
"462 237 CURVE",
"437 237 LINE",
"437 125 OFFCURVE",
"377 23 OFFCURVE",
"266 23 CURVE SMOOTH",
"175 23 OFFCURVE",
"128 75 OFFCURVE",
"128 173 CURVE SMOOTH",
"128 471 LINE",
"91 471 LINE"
);
}
);
width = 583;
},
{
anchors = (
{
name = above;
position = "{326, 547}";
}
);
background = {
paths = (
{
closed = 1;
nodes = (
"346 425 LINE",
"346 0 LINE",
"461 0 LINE",
"461 425 LINE"
);
},
{
closed = 1;
nodes = (
"75 425 LINE",
"75 146 LINE SMOOTH",
"75 42 OFFCURVE",
"145 -7 OFFCURVE",
"229 -7 CURVE SMOOTH",
"315 -7 OFFCURVE",
"373 78 OFFCURVE",
"373 224 CURVE",
"346 224 LINE",
"346 135 OFFCURVE",
"299 98 OFFCURVE",
"244 98 CURVE SMOOTH",
"215 98 OFFCURVE",
"190 112 OFFCURVE",
"190 159 CURVE SMOOTH",
"190 425 LINE"
);
}
);
};
layerId = UUID1;
paths = (
{
closed = 1;
nodes = (
"405 0 LINE",
"565 0 LINE",
"565 495 LINE",
"405 495 LINE"
);
},
{
closed = 1;
nodes = (
"79 179 LINE SMOOTH",
"79 36 OFFCURVE",
"169 -9 OFFCURVE",
"269 -9 CURVE SMOOTH",
"366 -9 OFFCURVE",
"440 68 OFFCURVE",
"440 264 CURVE",
"405 264 LINE",
"405 162 OFFCURVE",
"349 131 OFFCURVE",
"301 131 CURVE SMOOTH",
"264 131 OFFCURVE",
"239 152 OFFCURVE",
"239 198 CURVE SMOOTH",
"239 495 LINE",
"79 495 LINE"
);
}
);
width = 650;
}
);
unicode = 0075;
},
{
glyphname = v;
lastChange = "2019-04-14 20:13:24 +0000";
layers = (
{
background = {
paths = (
{
closed = 1;
nodes = (
"215 0 LINE",
"380 388 LINE",
"347 388 LINE",
"195 27 LINE"
);
}
);
};
layerId = UUID0;
paths = (
{
closed = 1;
nodes = (
"225 0 LINE",
"261 0 LINE",
"462 471 LINE",
"422 471 LINE",
"237 33 LINE",
"249 33 LINE",
"64 471 LINE",
"24 471 LINE"
);
}
);
width = 486;
},
{
background = {
paths = (
{
closed = 1;
nodes = (
"145 0 LINE",
"5 406 LINE",
"157 406 LINE",
"224 113 LINE"
);
}
);
};
layerId = UUID1;
paths = (
{
closed = 1;
nodes = (
"176 0 LINE",
"360 0 LINE",
"530 493 LINE",
"345 493 LINE",
"264 137 LINE",
"272 137 LINE",
"191 493 LINE",
"6 493 LINE"
);
}
);
width = 536;
}
);
unicode = 0076;
},
{
glyphname = w;
lastChange = "2019-04-14 20:13:24 +0000";
layers = (
{
background = {
paths = (
{
closed = 1;
nodes = (
"373 130 LINE",
"292 370 LINE",
"274 370 LINE",
"193 132 LINE",
"136 128 LINE",
"52 388 LINE",
"20 388 LINE",
"148 0 LINE",
"176 0 LINE",
"285 317 LINE",
"281 317 LINE",
"391 0 LINE",
"419 0 LINE",
"545 388 LINE",
"514 388 LINE",
"431 127 LINE"
);
}
);
};
layerId = UUID0;
paths = (
{
closed = 1;
nodes = (
"180 0 LINE",
"214 0 LINE",
"346 385 LINE",
"341 385 LINE",
"475 0 LINE",
"509 0 LINE",
"662 471 LINE",
"625 471 LINE",
"487 40 LINE",
"493 40 LINE",
"355 450 LINE",
"333 450 LINE",
"194 41 LINE",
"202 41 LINE",
"63 471 LINE",
"24 471 LINE"
);
}
);
width = 690;
},
{
background = {
paths = (
{
closed = 1;
nodes = (
"456 188 LINE",
"391 382 LINE",
"267 382 LINE",
"202 189 LINE",
"214 189 LINE",
"142 406 LINE",
"5 406 LINE",
"140 0 LINE",
"276 0 LINE",
"342 198 LINE",
"316 198 LINE",
"382 0 LINE",
"518 0 LINE",
"653 406 LINE",
"516 406 LINE",
"444 188 LINE"
);
}
);
};
layerId = UUID1;
paths = (
{
closed = 1;
nodes = (
"170 0 LINE",
"329 0 LINE",
"409 289 LINE",
"384 289 LINE",
"464 0 LINE",
"623 0 LINE",
"787 493 LINE",
"627 493 LINE",
"539 156 LINE",
"554 156 LINE",
"475 464 LINE",
"324 464 LINE",
"245 157 LINE",
"260 157 LINE",
"173 493 LINE",
"6 493 LINE"
);
}
);
width = 793;
}
);
unicode = 0077;
},
{
glyphname = x;
lastChange = "2019-04-17 11:32:32 +0000";
layers = (
{
background = {
paths = (
{
closed = 1;
nodes = (
"354 0 LINE",
"317 0 LINE",
"190 180 LINE",
"67 0 LINE",
"30 0 LINE",
"173 204 LINE",
"30 409 LINE",
"67 409 LINE",
"194 228 LINE",
"318 409 LINE",
"355 409 LINE",
"210 204 LINE"
);
}
);
};
layerId = UUID0;
paths = (
{
closed = 1;
nodes = (
"81 0 LINE",
"231 208 LINE",
"385 0 LINE",
"430 0 LINE",
"255 236 LINE",
"431 471 LINE",
"386 471 LINE",
"236 264 LINE",
"81 471 LINE",
"36 471 LINE",
"210 236 LINE",
"36 0 LINE"
);
}
);
width = 468;
},
{
background = {
paths = (
{
closed = 1;
nodes = (
"466 0 LINE",
"326 0 LINE",
"234 123 LINE",
"150 0 LINE",
"10 0 LINE",
"168 212 LINE",
"10 425 LINE",
"150 425 LINE",
"241 302 LINE",
"326 425 LINE",
"466 425 LINE",
"308 212 LINE"
);
}
);
};
layerId = UUID1;
paths = (
{
closed = 1;
nodes = (
"202 0 LINE",
"294 129 LINE",
"397 0 LINE",
"592 0 LINE",
"397 245 LINE",
"592 495 LINE",
"397 495 LINE",
"303 366 LINE",
"202 495 LINE",
"6 495 LINE",
"202 245 LINE",
"6 0 LINE"
);
}
);
width = 598;
}
);
unicode = 0078;
},
{
glyphname = y;
lastChange = "2019-04-14 20:13:24 +0000";
layers = (
{
layerId = UUID0;
paths = (
{
closed = 1;
nodes = (
"222 0 LINE",
"209 -50 LINE SMOOTH",
"190 -120 OFFCURVE",
"162 -208 OFFCURVE",
"89 -208 CURVE SMOOTH",
"51 -208 OFFCURVE",
"22 -196 OFFCURVE",
"-12 -164 CURVE",
"-12 -203 LINE",
"22 -227 OFFCURVE",
"52 -241 OFFCURVE",
"89 -241 CURVE SMOOTH",
"165 -241 OFFCURVE",
"207 -181 OFFCURVE",
"230 -104 CURVE SMOOTH",
"402 471 LINE",
"363 471 LINE",
"233 33 LINE",
"248 33 LINE",
"64 471 LINE",
"26 471 LINE"
);
}
);
width = 426;
},
{
layerId = UUID1;
paths = (
{
closed = 1;
nodes = (
"210 0 LINE",
"194 -46 LINE SMOOTH",
"176 -100 OFFCURVE",
"147 -117 OFFCURVE",
"113 -117 CURVE SMOOTH",
"80 -117 OFFCURVE",
"43 -108 OFFCURVE",
"6 -90 CURVE",
"6 -227 LINE",
"57 -248 OFFCURVE",
"107 -256 OFFCURVE",
"157 -256 CURVE SMOOTH",
"239 -256 OFFCURVE",
"300 -214 OFFCURVE",
"345 -79 CURVE SMOOTH",
"538 493 LINE",
"377 493 LINE",
"275 139 LINE",
"300 139 LINE",
"199 493 LINE",
"15 493 LINE"
);
}
);
width = 544;
}
);
unicode = 0079;
},
{
glyphname = z;
lastChange = "2019-04-17 11:32:46 +0000";
layers = (
{
layerId = UUID0;
paths = (
{
closed = 1;
nodes = (
"406 0 LINE",
"406 30 LINE",
"94 30 LINE",
"406 441 LINE",
"406 471 LINE",
"49 471 LINE",
"49 441 LINE",
"361 441 LINE",
"49 30 LINE",
"49 0 LINE"
);
}
);
width = 454;
},
{
layerId = UUID1;
paths = (
{
closed = 1;
nodes = (
"456 0 LINE",
"456 130 LINE",
"247 130 LINE",
"456 363 LINE",
"456 493 LINE",
"61 493 LINE",
"61 363 LINE",
"282 363 LINE",
"61 130 LINE",
"61 0 LINE"
);
}
);
width = 516;
}
);
unicode = 007A;
},
{
glyphname = A;
lastChange = "2019-04-16 21:53:17 +0000";
layers = (
{
anchors = (
{
name = above;
position = "{261, 607}";
}
);
layerId = UUID0;
paths = (
{
closed = 1;
nodes = (
"69 0 LINE",
"132 182 LINE",
"391 182 LINE",
"453 0 LINE",
"492 0 LINE",
"282 607 LINE",
"241 607 LINE",
"30 0 LINE"
);
},
{
closed = 1;
nodes = (
"261 558 LINE",
"380 214 LINE",
"143 214 LINE"
);
}
);
width = 522;
},
{
anchors = (
{
name = above;
position = "{345, 690}";
}
);
layerId = UUID1;
paths = (
{
closed = 1;
nodes = (
"187 0 LINE",
"225 118 LINE",
"456 118 LINE",
"493 0 LINE",
"661 0 LINE",
"447 671 LINE",
"244 671 LINE",
"18 0 LINE"
);
},
{
closed = 1;
nodes = (
"343 482 LINE",
"419 237 LINE",
"264 237 LINE"
);
}
);
width = 679;
}
);
unicode = 0041;
},
{
glyphname = B;
lastChange = "2019-04-14 20:13:24 +0000";
layers = (
{
background = {
paths = (
{
closed = 1;
nodes = (
"90 0 LINE",
"247 0 LINE SMOOTH",
"348 0 OFFCURVE",
"400 57 OFFCURVE",
"400 127 CURVE SMOOTH",
"400 175 OFFCURVE",
"362 230 OFFCURVE",
"298 237 CURVE",
"361 251 OFFCURVE",
"391 289 OFFCURVE",
"391 355 CURVE SMOOTH",
"391 419 OFFCURVE",
"346 478 OFFCURVE",
"247 478 CURVE SMOOTH",
"90 478 LINE"
);
},
{
closed = 1;
nodes = (
"120 27 LINE",
"120 226 LINE",
"256 226 LINE",
"318 226 OFFCURVE",
"368 200 OFFCURVE",
"368 127 CURVE SMOOTH",
"368 49 OFFCURVE",
"306 27 OFFCURVE",
"247 27 CURVE SMOOTH"
);
},
{
closed = 1;
nodes = (
"120 451 LINE",
"247 451 LINE SMOOTH",
"318 451 OFFCURVE",
"359 418 OFFCURVE",
"359 355 CURVE SMOOTH",
"359 291 OFFCURVE",
"315 253 OFFCURVE",
"256 253 CURVE SMOOTH",
"120 253 LINE"
);
}
);
};
layerId = UUID0;
paths = (
{
closed = 1;
nodes = (
"316 0 LINE SMOOTH",
"460 0 OFFCURVE",
"515 73 OFFCURVE",
"515 162 CURVE SMOOTH",
"515 222 OFFCURVE",
"464 294 OFFCURVE",
"383 304 CURVE",
"467 320 OFFCURVE",
"504 380 OFFCURVE",
"504 451 CURVE SMOOTH",
"504 532 OFFCURVE",
"442 607 OFFCURVE",
"316 607 CURVE SMOOTH",
"109 607 LINE",
"109 0 LINE"
);
},
{
closed = 1;
nodes = (
"146 288 LINE",
"316 288 LINE SMOOTH",
"419 288 OFFCURVE",
"476 238 OFFCURVE",
"476 162 CURVE SMOOTH",
"476 87 OFFCURVE",
"433 32 OFFCURVE",
"316 32 CURVE SMOOTH",
"146 32 LINE"
);
},
{
closed = 1;
nodes = (
"316 576 LINE SMOOTH",
"405 576 OFFCURVE",
"465 531 OFFCURVE",
"465 451 CURVE SMOOTH",
"465 366 OFFCURVE",
"402 318 OFFCURVE",
"316 318 CURVE SMOOTH",
"146 318 LINE",
"146 576 LINE"
);
}
);
width = 594;
},
{
background = {
paths = (
{
closed = 1;
nodes = (
"88 0 LINE",
"294 0 LINE SMOOTH",
"436 0 OFFCURVE",
"480 62 OFFCURVE",
"480 135 CURVE SMOOTH",
"480 200 OFFCURVE",
"441 241 OFFCURVE",
"375 258 CURVE",
"441 276 OFFCURVE",
"462 323 OFFCURVE",
"462 380 CURVE SMOOTH",
"462 446 OFFCURVE",
"421 519 OFFCURVE",
"283 519 CURVE SMOOTH",
"88 519 LINE"
);
},
{
closed = 1;
nodes = (
"203 105 LINE",
"203 206 LINE",
"292 206 LINE",
"330 204 OFFCURVE",
"356 195 OFFCURVE",
"356 159 CURVE SMOOTH",
"356 119 OFFCURVE",
"327 105 OFFCURVE",
"292 105 CURVE SMOOTH"
);
},
{
closed = 1;
nodes = (
"203 414 LINE",
"286 414 LINE SMOOTH",
"328 414 OFFCURVE",
"356 403 OFFCURVE",
"356 365 CURVE SMOOTH",
"356 325 OFFCURVE",
"327 311 OFFCURVE",
"292 311 CURVE SMOOTH",
"203 311 LINE"
);
}
);
};
layerId = UUID1;
paths = (
{
closed = 1;
nodes = (
"377 0 LINE SMOOTH",
"580 0 OFFCURVE",
"627 111 OFFCURVE",
"627 190 CURVE SMOOTH",
"627 278 OFFCURVE",
"571 323 OFFCURVE",
"502 340 CURVE",
"570 364 OFFCURVE",
"616 417 OFFCURVE",
"616 490 CURVE SMOOTH",
"616 593 OFFCURVE",
"538 671 OFFCURVE",
"375 671 CURVE SMOOTH",
"85 671 LINE",
"85 0 LINE"
);
},
{
closed = 1;
nodes = (
"245 264 LINE",
"372 264 LINE SMOOTH",
"429 264 OFFCURVE",
"454 238 OFFCURVE",
"454 200 CURVE SMOOTH",
"454 162 OFFCURVE",
"426 140 OFFCURVE",
"372 140 CURVE SMOOTH",
"245 140 LINE"
);
},
{
closed = 1;
nodes = (
"369 532 LINE SMOOTH",
"429 532 OFFCURVE",
"453 503 OFFCURVE",
"453 467 CURVE SMOOTH",
"453 430 OFFCURVE",
"429 405 OFFCURVE",
"368 405 CURVE SMOOTH",
"245 405 LINE",
"245 532 LINE"
);
}
);
width = 676;
}
);
unicode = 0042;
},
{
glyphname = C;
lastChange = "2019-04-17 11:33:10 +0000";
layers = (
{
background = {
paths = (
{
closed = 1;
nodes = (
"998 482 LINE",
"956 497 OFFCURVE",
"902 506 OFFCURVE",
"866 506 CURVE SMOOTH",
"727 506 OFFCURVE",
"650 398 OFFCURVE",
"650 241 CURVE SMOOTH",
"650 105 OFFCURVE",
"725 -7 OFFCURVE",
"866 -7 CURVE SMOOTH",
"915 -7 OFFCURVE",
"960 9 OFFCURVE",
"1007 41 CURVE",
"992 65 LINE",
"947 36 OFFCURVE",
"907 21 OFFCURVE",
"866 21 CURVE SMOOTH",
"755 21 OFFCURVE",
"682 104 OFFCURVE",
"682 241 CURVE SMOOTH",
"682 389 OFFCURVE",
"760 479 OFFCURVE",
"866 479 CURVE SMOOTH",
"900 479 OFFCURVE",
"947 470 OFFCURVE",
"986 458 CURVE"
);
}
);
};
layerId = UUID0;
paths = (
{
closed = 1;
nodes = (
"441 -9 OFFCURVE",
"543 68 OFFCURVE",
"543 194 CURVE",
"501 194 LINE",
"501 89 OFFCURVE",
"424 24 OFFCURVE",
"309 24 CURVE SMOOTH",
"160 24 OFFCURVE",
"95 154 OFFCURVE",
"95 310 CURVE SMOOTH",
"95 487 OFFCURVE",
"197 583 OFFCURVE",
"309 583 CURVE SMOOTH",
"394 583 OFFCURVE",
"470 530 OFFCURVE",
"501 442 CURVE",
"542 452 LINE",
"504 549 OFFCURVE",
"425 616 OFFCURVE",
"309 616 CURVE SMOOTH",
"169 616 OFFCURVE",
"55 507 OFFCURVE",
"55 310 CURVE SMOOTH",
"55 131 OFFCURVE",
"147 -9 OFFCURVE",
"309 -9 CURVE SMOOTH"
);
}
);
width = 592;
},
{
background = {
paths = (
{
closed = 1;
nodes = (
"486 524 LINE",
"425 551 OFFCURVE",
"372 565 OFFCURVE",
"300 565 CURVE SMOOTH",
"147 565 OFFCURVE",
"36 474 OFFCURVE",
"36 263 CURVE SMOOTH",
"36 110 OFFCURVE",
"148 -13 OFFCURVE",
"300 -13 CURVE SMOOTH",
"366 -13 OFFCURVE",
"422 7 OFFCURVE",
"485 41 CURVE",
"427 151 LINE",
"379 124 OFFCURVE",
"344 113 OFFCURVE",
"300 113 CURVE SMOOTH",
"234 113 OFFCURVE",
"177 161 OFFCURVE",
"177 263 CURVE SMOOTH",
"177 405 OFFCURVE",
"241 440 OFFCURVE",
"307 440 CURVE SMOOTH",
"351 440 OFFCURVE",
"389 427 OFFCURVE",
"429 408 CURVE"
);
}
);
};
layerId = UUID1;
paths = (
{
closed = 1;
nodes = (
"516 -16 OFFCURVE",
"612 70 OFFCURVE",
"612 224 CURVE",
"442 224 LINE",
"442 173 OFFCURVE",
"407 130 OFFCURVE",
"339 130 CURVE SMOOTH",
"266 130 OFFCURVE",
"215 196 OFFCURVE",
"215 335 CURVE SMOOTH",
"215 475 OFFCURVE",
"266 541 OFFCURVE",
"339 541 CURVE SMOOTH",
"395 541 OFFCURVE",
"426 498 OFFCURVE",
"442 440 CURVE",
"612 470 LINE",
"595 598 OFFCURVE",
"508 686 OFFCURVE",
"339 686 CURVE SMOOTH",
"163 686 OFFCURVE",
"43 566 OFFCURVE",
"43 335 CURVE SMOOTH",
"43 104 OFFCURVE",
"163 -16 OFFCURVE",
"339 -16 CURVE SMOOTH"
);
}
);
width = 655;
}
);
unicode = 0043;
},
{
glyphname = D;
lastChange = "2019-04-14 20:13:24 +0000";
layers = (
{
layerId = UUID0;
paths = (
{
closed = 1;
nodes = (
"109 0 LINE",
"266 0 LINE SMOOTH",
"448 0 OFFCURVE",
"560 122 OFFCURVE",
"560 304 CURVE SMOOTH",
"560 486 OFFCURVE",
"448 607 OFFCURVE",
"266 607 CURVE SMOOTH",
"109 607 LINE"
);
},
{
closed = 1;
nodes = (
"266 576 LINE SMOOTH",
"424 576 OFFCURVE",
"521 462 OFFCURVE",
"521 304 CURVE SMOOTH",
"521 146 OFFCURVE",
"424 30 OFFCURVE",
"266 30 CURVE SMOOTH",
"146 30 LINE",
"146 576 LINE"
);
}
);
width = 633;
},
{
layerId = UUID1;
paths = (
{
closed = 1;
nodes = (
"84 0 LINE",
"322 0 LINE SMOOTH",
"529 0 OFFCURVE",
"672 129 OFFCURVE",
"672 335 CURVE SMOOTH",
"672 542 OFFCURVE",
"529 671 OFFCURVE",
"322 671 CURVE SMOOTH",
"84 671 LINE"
);
},
{
closed = 1;
nodes = (
"322 525 LINE SMOOTH",
"431 525 OFFCURVE",
"499 445 OFFCURVE",
"499 335 CURVE SMOOTH",
"499 226 OFFCURVE",
"431 146 OFFCURVE",
"322 146 CURVE SMOOTH",
"244 146 LINE",
"244 525 LINE"
);
}
);
width = 714;
}
);
unicode = 0044;
},
{
glyphname = E;
lastChange = "2019-04-14 20:13:24 +0000";
layers = (
{
anchors = (
{
name = above;
position = "{287, 607}";
}
);
background = {
paths = (
{
closed = 1;
nodes = (
"86 0 LINE",
"364 0 LINE",
"364 27 LINE",
"116 27 LINE",
"116 230 LINE",
"349 230 LINE",
"349 257 LINE",
"116 257 LINE",
"116 451 LINE",
"364 451 LINE",
"364 478 LINE",
"86 478 LINE"
);
}
);
};
layerId = UUID0;
paths = (
{
closed = 1;
nodes = (
"464 0 LINE",
"464 32 LINE",
"146 32 LINE",
"146 292 LINE",
"446 292 LINE",
"446 323 LINE",
"146 323 LINE",
"146 576 LINE",
"464 576 LINE",
"464 607 LINE",
"109 607 LINE",
"109 0 LINE"
);
}
);
width = 537;
},
{
anchors = (
{
name = above;
position = "{307, 690}";
}
);
background = {
paths = (
{
closed = 1;
nodes = (
"70 0 LINE",
"401 0 LINE",
"401 105 LINE",
"185 105 LINE",
"185 206 LINE",
"386 206 LINE",
"386 311 LINE",
"185 311 LINE",
"185 414 LINE",
"401 414 LINE",
"401 519 LINE",
"70 519 LINE"
);
}
);
};
layerId = UUID1;
paths = (
{
closed = 1;
nodes = (
"533 0 LINE",
"533 140 LINE",
"243 140 LINE",
"243 265 LINE",
"514 265 LINE",
"514 403 LINE",
"243 403 LINE",
"243 532 LINE",
"533 532 LINE",
"533 671 LINE",
"83 671 LINE",
"83 0 LINE"
);
}
);
width = 612;
}
);
unicode = 0045;
},
{
glyphname = F;
lastChange = "2019-04-14 20:13:24 +0000";
layers = (
{
background = {
paths = (
{
closed = 1;
nodes = (
"86 0 LINE",
"116 0 LINE",
"116 230 LINE",
"349 230 LINE",
"349 257 LINE",
"116 257 LINE",
"116 451 LINE",
"364 451 LINE",
"364 478 LINE",
"86 478 LINE"
);
}
);
};
layerId = UUID0;
paths = (
{
closed = 1;
nodes = (
"146 0 LINE",
"146 295 LINE",
"446 295 LINE",
"446 327 LINE",
"146 327 LINE",
"146 576 LINE",
"464 576 LINE",
"464 607 LINE",
"109 607 LINE",
"109 0 LINE"
);
}
);
width = 501;
},
{
background = {
paths = (
{
closed = 1;
nodes = (
"72 0 LINE",
"187 0 LINE",
"187 213 LINE",
"388 213 LINE",
"388 318 LINE",
"187 318 LINE",
"187 414 LINE",
"403 414 LINE",
"403 519 LINE",
"72 519 LINE"
);
}
);
};
layerId = UUID1;
paths = (
{
closed = 1;
nodes = (
"245 0 LINE",
"245 264 LINE",
"493 264 LINE",
"493 402 LINE",
"245 402 LINE",
"245 532 LINE",
"521 532 LINE",
"521 671 LINE",
"85 671 LINE",
"85 0 LINE"
);
}
);
width = 570;
}
);
unicode = 0046;
},
{
glyphname = G;
lastChange = "2019-04-17 11:33:30 +0000";
layers = (
{
background = {
paths = (
{
closed = 1;
nodes = (
"45 255 LINE",
"45 417 OFFCURVE",
"139 507 OFFCURVE",
"254 507 CURVE SMOOTH",
"350 507 OFFCURVE",
"415 452 OFFCURVE",
"446 372 CURVE",
"412 364 LINE",
"387 436 OFFCURVE",
"324 480 OFFCURVE",
"254 480 CURVE SMOOTH",
"162 480 OFFCURVE",
"78 401 OFFCURVE",
"78 255 CURVE"
);
}
);
};
layerId = UUID0;
paths = (
{
closed = 1;
nodes = (
"456 -9 OFFCURVE",
"509 94 OFFCURVE",
"509 250 CURVE",
"488 250 LINE",
"488 91 OFFCURVE",
"411 26 OFFCURVE",
"313 26 CURVE SMOOTH",
"175 26 OFFCURVE",
"94 140 OFFCURVE",
"94 293 CURVE SMOOTH",
"94 473 OFFCURVE",
"208 582 OFFCURVE",
"337 582 CURVE SMOOTH",
"395 582 OFFCURVE",
"454 560 OFFCURVE",
"510 505 CURVE",
"537 529 LINE",
"477 589 OFFCURVE",
"412 615 OFFCURVE",
"337 615 CURVE SMOOTH",
"196 615 OFFCURVE",
"55 515 OFFCURVE",
"55 293 CURVE SMOOTH",
"55 102 OFFCURVE",
"174 -9 OFFCURVE",
"313 -9 CURVE SMOOTH"
);
},
{
closed = 1;
nodes = (
"525 0 LINE",
"525 288 LINE",
"316 288 LINE",
"316 259 LINE",
"488 250 LINE",
"488 154 LINE",
"497 0 LINE"
);
}
);
width = 610;
},
{
background = {
paths = (
{
closed = 1;
nodes = (
"55 276 LINE",
"55 466 OFFCURVE",
"154 565 OFFCURVE",
"299 565 CURVE SMOOTH",
"438 565 OFFCURVE",
"510 492 OFFCURVE",
"524 387 CURVE",
"384 362 LINE",
"371 410 OFFCURVE",
"345 445 OFFCURVE",
"299 445 CURVE SMOOTH",
"239 445 OFFCURVE",
"197 391 OFFCURVE",
"197 276 CURVE"
);
}
);
};
layerId = UUID1;
paths = (
{
closed = 1;
nodes = (
"457 -16 OFFCURVE",
"515 87 OFFCURVE",
"515 252 CURVE",
"486 252 LINE",
"486 183 OFFCURVE",
"431 130 OFFCURVE",
"354 130 CURVE SMOOTH",
"275 130 OFFCURVE",
"215 208 OFFCURVE",
"215 335 CURVE SMOOTH",
"215 463 OFFCURVE",
"275 541 OFFCURVE",
"354 541 CURVE SMOOTH",
"409 541 OFFCURVE",
"445 507 OFFCURVE",
"467 452 CURVE",
"637 482 LINE",
"598 622 OFFCURVE",
"507 686 OFFCURVE",
"363 686 CURVE SMOOTH",
"170 686 OFFCURVE",
"43 542 OFFCURVE",
"43 335 CURVE SMOOTH",
"43 129 OFFCURVE",
"170 -16 OFFCURVE",
"339 -16 CURVE SMOOTH"
);
},
{
closed = 1;
nodes = (
"639 0 LINE",
"639 357 LINE",
"354 357 LINE",
"354 258 LINE",
"486 258 LINE",
"486 137 LINE",
"507 0 LINE"
);
}
);
width = 712;
}
);
unicode = 0047;
},
{
glyphname = H;
lastChange = "2019-04-14 20:13:24 +0000";
layers = (
{
background = {
paths = (
{
closed = 1;
nodes = (
"86 478 LINE",
"86 0 LINE",
"116 0 LINE",
"116 230 LINE",
"376 230 LINE",
"376 0 LINE",
"406 0 LINE",
"406 478 LINE",
"376 478 LINE",
"376 257 LINE",
"116 257 LINE",
"116 478 LINE"
);
}
);
};
layerId = UUID0;
paths = (
{
closed = 1;
nodes = (
"109 0 LINE",
"146 0 LINE",
"146 293 LINE",
"485 293 LINE",
"485 0 LINE",
"521 0 LINE",
"521 607 LINE",
"485 607 LINE",
"485 324 LINE",
"146 324 LINE",
"146 607 LINE",
"109 607 LINE"
);
}
);
width = 631;
},
{
background = {
paths = (
{
closed = 1;
nodes = (
"72 519 LINE",
"72 0 LINE",
"187 0 LINE",
"187 213 LINE",
"372 213 LINE",
"372 0 LINE",
"487 0 LINE",
"487 519 LINE",
"372 519 LINE",
"372 318 LINE",
"187 318 LINE",
"187 519 LINE"
);
}
);
};
layerId = UUID1;
paths = (
{
closed = 1;
nodes = (
"85 0 LINE",
"245 0 LINE",
"245 266 LINE",
"498 266 LINE",
"498 0 LINE",
"659 0 LINE",
"659 671 LINE",
"498 671 LINE",
"498 406 LINE",
"245 406 LINE",
"245 671 LINE",
"85 671 LINE"
);
}
);
width = 744;
}
);
unicode = 0048;
},
{
glyphname = I;
lastChange = "2019-04-14 20:13:24 +0000";
layers = (
{
anchors = (
{
name = above;
position = "{128, 607}";
}
);
background = {
paths = (
{
closed = 1;
nodes = (
"86 0 LINE",
"116 0 LINE",
"116 478 LINE",
"86 478 LINE"
);
}
);
};
layerId = UUID0;
paths = (
{
closed = 1;
nodes = (
"146 0 LINE",
"146 607 LINE",
"109 607 LINE",
"109 0 LINE"
);
}
);
width = 255;
},
{
anchors = (
{
name = above;
position = "{165, 690}";
}
);
background = {
paths = (
{
closed = 1;
nodes = (
"72 0 LINE",
"187 0 LINE",
"187 519 LINE",
"72 519 LINE"
);
}
);
};
layerId = UUID1;
paths = (
{
closed = 1;
nodes = (
"245 0 LINE",
"245 671 LINE",
"85 671 LINE",
"85 0 LINE"
);
}
);
width = 330;
}
);
unicode = 0049;
},
{
glyphname = J;
lastChange = "2019-04-14 20:13:24 +0000";
layers = (
{
background = {
paths = (
{
closed = 1;
nodes = (
"-3 25 LINE",
"29 4 OFFCURVE",
"61 -10 OFFCURVE",
"100 -10 CURVE SMOOTH",
"169 -10 OFFCURVE",
"216 32 OFFCURVE",
"216 145 CURVE SMOOTH",
"216 478 LINE",
"186 478 LINE",
"186 145 LINE SMOOTH",
"186 58 OFFCURVE",
"162 17 OFFCURVE",
"100 17 CURVE SMOOTH",
"64 17 OFFCURVE",
"29 35 OFFCURVE",
"-3 59 CURVE"
);
}
);
};
layerId = UUID0;
paths = (
{
closed = 1;
nodes = (
"41 10 OFFCURVE",
"81 -9 OFFCURVE",
"131 -9 CURVE SMOOTH",
"226 -9 OFFCURVE",
"278 45 OFFCURVE",
"278 162 CURVE SMOOTH",
"278 607 LINE",
"242 607 LINE",
"242 162 LINE SMOOTH",
"242 79 OFFCURVE",
"214 26 OFFCURVE",
"131 26 CURVE SMOOTH",
"85 26 OFFCURVE",
"41 47 OFFCURVE",
"0 79 CURVE",
"0 36 LINE"
);
}
);
width = 363;
},
{
background = {
paths = (
{
closed = 1;
nodes = (
"-19 124 LINE",
"12 28 OFFCURVE",
"70 -7 OFFCURVE",
"146 -7 CURVE SMOOTH",
"237 -7 OFFCURVE",
"309 40 OFFCURVE",
"309 173 CURVE SMOOTH",
"309 519 LINE",
"194 519 LINE",
"194 173 LINE SMOOTH",
"194 122 OFFCURVE",
"179 98 OFFCURVE",
"146 98 CURVE SMOOTH",
"116 98 OFFCURVE",
"93 117 OFFCURVE",
"82 161 CURVE"
);
}
);
};
layerId = UUID1;
paths = (
{
closed = 1;
nodes = (
"75 0 OFFCURVE",
"134 -16 OFFCURVE",
"198 -16 CURVE SMOOTH",
"318 -16 OFFCURVE",
"412 45 OFFCURVE",
"412 222 CURVE SMOOTH",
"412 671 LINE",
"250 671 LINE",
"250 222 LINE SMOOTH",
"250 162 OFFCURVE",
"226 140 OFFCURVE",
"183 140 CURVE SMOOTH",
"139 140 OFFCURVE",
"83 148 OFFCURVE",
"24 179 CURVE",
"24 22 LINE"
);
}
);
width = 485;
}
);
unicode = 004A;
},
{
glyphname = K;
lastChange = "2019-04-14 20:13:24 +0000";
layers = (
{
background = {
paths = (
{
closed = 1;
nodes = (
"357 478 LINE",
"106 217 LINE",
"106 173 LINE",
"398 478 LINE"
);
},
{
closed = 1;
nodes = (
"187 272 LINE",
"165 252 LINE",
"371 0 LINE",
"410 0 LINE"
);
},
{
closed = 1;
nodes = (
"86 478 LINE",
"86 0 LINE",
"116 0 LINE",
"116 478 LINE"
);
},
{
closed = 1;
nodes = (
"253 358 OFFCURVE",
"278 333 OFFCURVE",
"310 333 CURVE SMOOTH",
"342 333 OFFCURVE",
"368 358 OFFCURVE",
"368 390 CURVE SMOOTH",
"368 422 OFFCURVE",
"342 448 OFFCURVE",
"310 448 CURVE SMOOTH",
"278 448 OFFCURVE",
"253 422 OFFCURVE",
"253 390 CURVE SMOOTH"
);
},
{
closed = 1;
nodes = (
"253 358 OFFCURVE",
"278 333 OFFCURVE",
"310 333 CURVE SMOOTH",
"342 333 OFFCURVE",
"368 358 OFFCURVE",
"368 390 CURVE SMOOTH",
"368 422 OFFCURVE",
"342 448 OFFCURVE",
"310 448 CURVE SMOOTH",
"278 448 OFFCURVE",
"253 422 OFFCURVE",
"253 390 CURVE SMOOTH"
);
}
);
};
layerId = UUID0;
paths = (
{
closed = 1;
nodes = (
"135 276 LINE",
"135 219 LINE",
"508 607 LINE",
"456 607 LINE"
);
},
{
closed = 1;
nodes = (
"210 320 LINE",
"474 0 LINE",
"524 0 LINE",
"239 345 LINE"
);
},
{
closed = 1;
nodes = (
"109 0 LINE",
"148 0 LINE",
"148 607 LINE",
"109 607 LINE"
);
}
);
width = 560;
},
{
background = {
paths = (
{
closed = 1;
nodes = (
"378 519 LINE",
"174 318 LINE",
"174 176 LINE",
"514 519 LINE"
);
},
{
closed = 1;
nodes = (
"272 298 LINE",
"186 226 LINE",
"376 0 LINE",
"527 0 LINE"
);
},
{
closed = 1;
nodes = (
"74 519 LINE",
"74 0 LINE",
"189 0 LINE",
"189 519 LINE"
);
},
{
closed = 1;
nodes = (
"206 243 OFFCURVE",
"231 218 OFFCURVE",
"263 218 CURVE SMOOTH",
"295 218 OFFCURVE",
"321 243 OFFCURVE",
"321 275 CURVE SMOOTH",
"321 307 OFFCURVE",
"295 333 OFFCURVE",
"263 333 CURVE SMOOTH",
"231 333 OFFCURVE",
"206 307 OFFCURVE",
"206 275 CURVE SMOOTH"
);
},
{
closed = 1;
nodes = (
"375 36 OFFCURVE",
"400 11 OFFCURVE",
"432 11 CURVE SMOOTH",
"464 11 OFFCURVE",
"490 36 OFFCURVE",
"490 68 CURVE SMOOTH",
"490 100 OFFCURVE",
"464 126 OFFCURVE",
"432 126 CURVE SMOOTH",
"400 126 OFFCURVE",
"375 100 OFFCURVE",
"375 68 CURVE SMOOTH"
);
}
);
};
layerId = UUID1;
paths = (
{
closed = 1;
nodes = (
"236 422 LINE",
"236 207 LINE",
"693 671 LINE",
"474 671 LINE"
);
},
{
closed = 1;
nodes = (
"259 295 LINE",
"508 0 LINE",
"713 0 LINE",
"368 399 LINE"
);
},
{
closed = 1;
nodes = (
"85 0 LINE",
"245 0 LINE",
"245 671 LINE",
"85 671 LINE"
);
}
);
width = 703;
}
);
unicode = 004B;
},
{
glyphname = L;
lastChange = "2019-04-14 20:13:24 +0000";
layers = (
{
background = {
paths = (
{
closed = 1;
nodes = (
"120 478 LINE",
"90 478 LINE",
"90 0 LINE",
"349 0 LINE",
"349 27 LINE",
"120 27 LINE"
);
}
);
};
layerId = UUID0;
paths = (
{
closed = 1;
nodes = (
"109 607 LINE",
"109 0 LINE",
"440 0 LINE",
"440 32 LINE",
"146 32 LINE",
"146 607 LINE"
);
}
);
width = 440;
},
{
background = {
paths = (
{
closed = 1;
nodes = (
"189 519 LINE",
"74 519 LINE",
"74 0 LINE",
"393 0 LINE",
"393 105 LINE",
"189 105 LINE"
);
}
);
};
layerId = UUID1;
paths = (
{
closed = 1;
nodes = (
"85 671 LINE",
"85 0 LINE",
"498 0 LINE",
"498 140 LINE",
"245 140 LINE",
"245 671 LINE"
);
}
);
width = 522;
}
);
unicode = 004C;
},
{
glyphname = M;
lastChange = "2019-04-14 20:13:24 +0000";
layers = (
{
layerId = UUID0;
paths = (
{
closed = 1;
nodes = (
"109 0 LINE",
"146 0 LINE",
"146 577 LINE",
"139 577 LINE",
"397 87 LINE",
"423 87 LINE",
"683 582 LINE",
"673 582 LINE",
"673 0 LINE",
"710 0 LINE",
"710 607 LINE",
"656 607 LINE",
"407 134 LINE",
"413 134 LINE",
"163 607 LINE",
"109 607 LINE"
);
}
);
width = 819;
},
{
layerId = UUID1;
paths = (
{
closed = 1;
nodes = (
"85 0 LINE",
"245 0 LINE",
"245 477 LINE",
"232 477 LINE",
"403 63 LINE",
"507 63 LINE",
"679 477 LINE",
"657 477 LINE",
"657 0 LINE",
"818 0 LINE",
"818 671 LINE",
"598 671 LINE",
"450 313 LINE",
"462 313 LINE",
"313 671 LINE",
"85 671 LINE"
);
}
);
width = 903;
}
);
unicode = 004D;
},
{
glyphname = N;
lastChange = "2019-04-14 20:13:24 +0000";
layers = (
{
anchors = (
{
name = above;
position = "{324, 607}";
}
);
layerId = UUID0;
paths = (
{
closed = 1;
nodes = (
"109 0 LINE",
"146 0 LINE",
"146 578 LINE",
"141 578 LINE",
"488 0 LINE",
"541 0 LINE",
"541 607 LINE",
"504 607 LINE",
"504 34 LINE",
"509 34 LINE",
"165 607 LINE",
"109 607 LINE"
);
}
);
width = 650;
},
{
anchors = (
{
name = above;
position = "{374, 690}";
}
);
layerId = UUID1;
paths = (
{
closed = 1;
nodes = (
"81 0 LINE",
"242 0 LINE",
"242 446 LINE",
"215 446 LINE",
"513 0 LINE",
"667 0 LINE",
"667 671 LINE",
"507 671 LINE",
"507 265 LINE",
"518 265 LINE",
"248 671 LINE",
"81 671 LINE"
);
}
);
width = 752;
}
);
unicode = 004E;
},
{
glyphname = O;
lastChange = "2019-04-17 11:34:14 +0000";
layers = (
{
anchors = (
{
name = above;
position = "{304, 607}";
}
);
background = {
paths = (
{
closed = 1;
nodes = (
"365 -7 OFFCURVE",
"455 78 OFFCURVE",
"455 261 CURVE SMOOTH",
"455 444 OFFCURVE",
"365 533 OFFCURVE",
"250 533 CURVE SMOOTH",
"136 533 OFFCURVE",
"45 444 OFFCURVE",
"45 261 CURVE SMOOTH",
"45 78 OFFCURVE",
"136 -7 OFFCURVE",
"250 -7 CURVE SMOOTH"
);
},
{
closed = 1;
nodes = (
"143 22 OFFCURVE",
"78 103 OFFCURVE",
"78 261 CURVE SMOOTH",
"78 419 OFFCURVE",
"143 504 OFFCURVE",
"250 504 CURVE SMOOTH",
"357 504 OFFCURVE",
"422 419 OFFCURVE",
"422 261 CURVE SMOOTH",
"422 103 OFFCURVE",
"357 22 OFFCURVE",
"250 22 CURVE SMOOTH"
);
}
);
};
layerId = UUID0;
paths = (
{
closed = 1;
nodes = (
"443 -9 OFFCURVE",
"553 90 OFFCURVE",
"553 301 CURVE SMOOTH",
"553 513 OFFCURVE",
"443 616 OFFCURVE",
"304 616 CURVE SMOOTH",
"165 616 OFFCURVE",
"55 513 OFFCURVE",
"55 301 CURVE SMOOTH",
"55 90 OFFCURVE",
"165 -9 OFFCURVE",
"304 -9 CURVE SMOOTH"
);
},
{
closed = 1;
nodes = (
"174 26 OFFCURVE",
"95 119 OFFCURVE",
"95 301 CURVE SMOOTH",
"95 484 OFFCURVE",
"174 582 OFFCURVE",
"304 582 CURVE SMOOTH",
"434 582 OFFCURVE",
"513 484 OFFCURVE",
"513 301 CURVE SMOOTH",
"513 119 OFFCURVE",
"434 26 OFFCURVE",
"304 26 CURVE SMOOTH"
);
}
);
width = 607;
},
{
anchors = (
{
name = above;
position = "{360, 690}";
}
);
background = {
paths = (
{
closed = 1;
nodes = (
"440 579 OFFCURVE",
"542 483 OFFCURVE",
"542 287 CURVE SMOOTH",
"542 86 OFFCURVE",
"440 -7 OFFCURVE",
"289 -7 CURVE SMOOTH",
"139 -7 OFFCURVE",
"37 91 OFFCURVE",
"37 287 CURVE SMOOTH",
"37 488 OFFCURVE",
"139 579 OFFCURVE",
"289 579 CURVE SMOOTH"
);
},
{
closed = 1;
nodes = (
"208 471 OFFCURVE",
"155 405 OFFCURVE",
"155 287 CURVE SMOOTH",
"155 164 OFFCURVE",
"208 101 OFFCURVE",
"289 101 CURVE SMOOTH",
"371 101 OFFCURVE",
"424 164 OFFCURVE",
"424 287 CURVE SMOOTH",
"424 405 OFFCURVE",
"371 471 OFFCURVE",
"289 471 CURVE SMOOTH"
);
}
);
};
layerId = UUID1;
paths = (
{
closed = 1;
nodes = (
"553 -16 OFFCURVE",
"679 102 OFFCURVE",
"679 338 CURVE SMOOTH",
"679 566 OFFCURVE",
"553 686 OFFCURVE",
"360 686 CURVE SMOOTH",
"169 686 OFFCURVE",
"43 573 OFFCURVE",
"43 338 CURVE SMOOTH",
"43 107 OFFCURVE",
"169 -16 OFFCURVE",
"360 -16 CURVE SMOOTH"
);
},
{
closed = 1;
nodes = (
"269 128 OFFCURVE",
"207 204 OFFCURVE",
"207 338 CURVE SMOOTH",
"207 464 OFFCURVE",
"269 543 OFFCURVE",
"360 543 CURVE SMOOTH",
"453 543 OFFCURVE",
"515 464 OFFCURVE",
"515 339 CURVE SMOOTH",
"515 204 OFFCURVE",
"453 128 OFFCURVE",
"360 128 CURVE SMOOTH"
);
}
);
width = 722;
}
);
unicode = 004F;
},
{
glyphname = P;
lastChange = "2019-04-17 11:34:29 +0000";
layers = (
{
background = {
paths = (
{
closed = 1;
nodes = (
"374 418 OFFCURVE",
"324 478 OFFCURVE",
"222 478 CURVE SMOOTH",
"86 478 LINE",
"86 0 LINE",
"116 0 LINE",
"116 194 LINE",
"222 194 LINE",
"324 194 OFFCURVE",
"374 254 OFFCURVE",
"374 336 CURVE SMOOTH"
);
},
{
closed = 1;
nodes = (
"116 221 LINE",
"116 451 LINE",
"222 451 LINE",
"300 451 OFFCURVE",
"344 408 OFFCURVE",
"344 336 CURVE SMOOTH",
"344 264 OFFCURVE",
"300 221 OFFCURVE",
"222 221 CURVE SMOOTH"
);
}
);
};
layerId = UUID0;
paths = (
{
closed = 1;
nodes = (
"146 0 LINE",
"146 249 LINE",
"283 249 LINE SMOOTH",
"413 249 OFFCURVE",
"477 322 OFFCURVE",
"477 426 CURVE SMOOTH",
"477 531 OFFCURVE",
"413 607 OFFCURVE",
"283 607 CURVE SMOOTH",
"109 607 LINE",
"109 0 LINE"
);
},
{
closed = 1;
nodes = (
"146 576 LINE",
"283 576 LINE SMOOTH",
"383 576 OFFCURVE",
"439 519 OFFCURVE",
"439 426 CURVE SMOOTH",
"439 334 OFFCURVE",
"383 281 OFFCURVE",
"283 281 CURVE SMOOTH",
"146 281 LINE"
);
}
);
width = 526;
},
{
background = {
paths = (
{
closed = 1;
nodes = (
"452 434 OFFCURVE",
"402 519 OFFCURVE",
"264 519 CURVE SMOOTH",
"69 519 LINE",
"69 0 LINE",
"184 0 LINE",
"184 183 LINE",
"273 183 LINE",
"402 183 OFFCURVE",
"452 275 OFFCURVE",
"452 352 CURVE SMOOTH"
);
},
{
closed = 1;
nodes = (
"184 288 LINE",
"184 414 LINE",
"273 414 LINE",
"319 414 OFFCURVE",
"337 382 OFFCURVE",
"337 353 CURVE SMOOTH",
"337 323 OFFCURVE",
"319 288 OFFCURVE",
"273 288 CURVE SMOOTH"
);
}
);
};
layerId = UUID1;
paths = (
{
closed = 1;
nodes = (
"241 0 LINE",
"241 230 LINE",
"338 230 LINE SMOOTH",
"492 230 OFFCURVE",
"590 306 OFFCURVE",
"590 451 CURVE SMOOTH",
"590 597 OFFCURVE",
"492 671 OFFCURVE",
"338 671 CURVE SMOOTH",
"80 671 LINE",
"80 0 LINE"
);
},
{
closed = 1;
nodes = (
"241 532 LINE",
"338 532 LINE SMOOTH",
"397 532 OFFCURVE",
"425 495 OFFCURVE",
"425 451 CURVE SMOOTH",
"425 407 OFFCURVE",
"397 369 OFFCURVE",
"338 369 CURVE SMOOTH",
"241 369 LINE"
);
}
);
width = 609;
}
);
unicode = 0050;
},
{
glyphname = Q;
lastChange = "2019-04-17 11:34:51 +0000";
layers = (
{
background = {
paths = (
{
closed = 1;
nodes = (
"155 169 OFFCURVE",
"126 140 OFFCURVE",
"126 96 CURVE SMOOTH",
"126 79 OFFCURVE",
"132 65 OFFCURVE",
"141 52 CURVE",
"160 46 LINE",
"152 56 OFFCURVE",
"148 68 OFFCURVE",
"148 85 CURVE SMOOTH",
"148 119 OFFCURVE",
"169 141 OFFCURVE",
"200 141 CURVE SMOOTH",
"226 141 OFFCURVE",
"245 123 OFFCURVE",
"262 93 CURVE SMOOTH",
"338 -46 LINE SMOOTH",
"364 -94 OFFCURVE",
"414 -104 OFFCURVE",
"457 -91 CURVE SMOOTH",
"475 -86 OFFCURVE",
"491 -77 OFFCURVE",
"505 -65 CURVE",
"505 -24 LINE",
"484 -45 OFFCURVE",
"460 -59 OFFCURVE",
"437 -64 CURVE SMOOTH",
"409 -70 OFFCURVE",
"383 -61 OFFCURVE",
"366 -29 CURVE SMOOTH",
"291 107 LINE SMOOTH",
"269 148 OFFCURVE",
"241 169 OFFCURVE",
"200 169 CURVE SMOOTH"
);
},
{
closed = 1;
nodes = (
"141 506 OFFCURVE",
"45 422 OFFCURVE",
"45 248 CURVE SMOOTH",
"45 74 OFFCURVE",
"141 -7 OFFCURVE",
"255 -7 CURVE SMOOTH",
"370 -7 OFFCURVE",
"465 74 OFFCURVE",
"465 248 CURVE SMOOTH",
"465 422 OFFCURVE",
"370 506 OFFCURVE",
"255 506 CURVE SMOOTH"
);
},
{
closed = 1;
nodes = (
"362 479 OFFCURVE",
"432 398 OFFCURVE",
"432 248 CURVE SMOOTH",
"432 98 OFFCURVE",
"362 21 OFFCURVE",
"255 21 CURVE SMOOTH",
"148 21 OFFCURVE",
"78 98 OFFCURVE",
"78 248 CURVE SMOOTH",
"78 398 OFFCURVE",
"148 479 OFFCURVE",
"255 479 CURVE SMOOTH"
);
}
);
};
layerId = UUID0;
paths = (
{
closed = 1;
nodes = (
"443 -9 OFFCURVE",
"553 90 OFFCURVE",
"553 301 CURVE SMOOTH",
"553 513 OFFCURVE",
"443 616 OFFCURVE",
"304 616 CURVE SMOOTH",
"165 616 OFFCURVE",
"55 513 OFFCURVE",
"55 301 CURVE SMOOTH",
"55 90 OFFCURVE",
"165 -9 OFFCURVE",
"304 -9 CURVE SMOOTH"
);
},
{
closed = 1;
nodes = (
"507 -154 OFFCURVE",
"532 -147 OFFCURVE",
"561 -134 CURVE",
"561 -85 LINE",
"527 -103 OFFCURVE",
"501 -114 OFFCURVE",
"465 -114 CURVE SMOOTH",
"445 -112 OFFCURVE",
"422 -101 OFFCURVE",
"397 -69 CURVE SMOOTH",
"339 7 LINE",
"294 7 LINE",
"356 -77 LINE SMOOTH",
"394 -128 OFFCURVE",
"429 -154 OFFCURVE",
"482 -154 CURVE SMOOTH"
);
},
{
closed = 1;
nodes = (
"174 26 OFFCURVE",
"95 119 OFFCURVE",
"95 301 CURVE SMOOTH",
"95 484 OFFCURVE",
"174 582 OFFCURVE",
"304 582 CURVE SMOOTH",
"434 582 OFFCURVE",
"513 484 OFFCURVE",
"513 301 CURVE SMOOTH",
"513 119 OFFCURVE",
"434 26 OFFCURVE",
"304 26 CURVE SMOOTH"
);
}
);
width = 616;
},
{
background = {
paths = (
{
closed = 1;
nodes = (
"222 273 OFFCURVE",
"181 239 OFFCURVE",
"181 196 CURVE SMOOTH",
"181 172 OFFCURVE",
"188 156 OFFCURVE",
"205 137 CURVE",
"240 128 LINE",
"230 139 OFFCURVE",
"225 152 OFFCURVE",
"225 166 CURVE SMOOTH",
"225 185 OFFCURVE",
"246 200 OFFCURVE",
"261 200 CURVE SMOOTH",
"278 200 OFFCURVE",
"300 182 OFFCURVE",
"313 154 CURVE SMOOTH",
"404 -49 LINE SMOOTH",
"433 -113 OFFCURVE",
"466 -160 OFFCURVE",
"526 -160 CURVE SMOOTH",
"551 -160 OFFCURVE",
"574 -154 OFFCURVE",
"598 -144 CURVE",
"598 16 LINE",
"558 3 OFFCURVE",
"534 -1 OFFCURVE",
"500 -1 CURVE SMOOTH",
"461 -1 OFFCURVE",
"453 23 OFFCURVE",
"444 42 CURVE SMOOTH",
"382 181 LINE SMOOTH",
"357 236 OFFCURVE",
"313 273 OFFCURVE",
"261 273 CURVE SMOOTH"
);
},
{
closed = 1;
nodes = (
"152 559 OFFCURVE",
"33 464 OFFCURVE",
"33 276 CURVE SMOOTH",
"33 81 OFFCURVE",
"152 -7 OFFCURVE",
"309 -7 CURVE SMOOTH",
"467 -7 OFFCURVE",
"585 87 OFFCURVE",
"585 276 CURVE SMOOTH",
"585 470 OFFCURVE",
"467 559 OFFCURVE",
"309 559 CURVE SMOOTH"
);
},
{
closed = 1;
nodes = (
"386 441 OFFCURVE",
"450 386 OFFCURVE",
"450 276 CURVE SMOOTH",
"450 171 OFFCURVE",
"386 111 OFFCURVE",
"309 111 CURVE SMOOTH",
"233 111 OFFCURVE",
"168 171 OFFCURVE",
"168 276 CURVE SMOOTH",
"168 386 OFFCURVE",
"233 441 OFFCURVE",
"309 441 CURVE SMOOTH"
);
}
);
};
layerId = UUID1;
paths = (
{
closed = 1;
nodes = (
"553 -16 OFFCURVE",
"679 102 OFFCURVE",
"679 338 CURVE SMOOTH",
"679 566 OFFCURVE",
"553 686 OFFCURVE",
"360 686 CURVE SMOOTH",
"169 686 OFFCURVE",
"43 573 OFFCURVE",
"43 338 CURVE SMOOTH",
"43 107 OFFCURVE",
"169 -16 OFFCURVE",
"360 -16 CURVE SMOOTH"
);
},
{
closed = 1;
nodes = (
"601 -193 OFFCURVE",
"631 -190 OFFCURVE",
"663 -176 CURVE",
"663 -17 LINE",
"628 -29 OFFCURVE",
"597 -36 OFFCURVE",
"565 -36 CURVE SMOOTH",
"536 -36 OFFCURVE",
"509 -27 OFFCURVE",
"493 -1 CURVE SMOOTH",
"434 97 LINE",
"316 30 LINE",
"385 -80 LINE SMOOTH",
"429 -151 OFFCURVE",
"498 -193 OFFCURVE",
"570 -193 CURVE SMOOTH"
);
},
{
closed = 1;
nodes = (
"269 128 OFFCURVE",
"207 204 OFFCURVE",
"207 338 CURVE SMOOTH",
"207 464 OFFCURVE",
"269 543 OFFCURVE",
"360 543 CURVE SMOOTH",
"453 543 OFFCURVE",
"515 464 OFFCURVE",
"515 339 CURVE SMOOTH",
"515 204 OFFCURVE",
"453 128 OFFCURVE",
"360 128 CURVE SMOOTH"
);
}
);
width = 722;
}
);
unicode = 0051;
},
{
glyphname = R;
lastChange = "2019-04-17 11:35:03 +0000";
layers = (
{
background = {
paths = (
{
closed = 1;
nodes = (
"219 218 LINE",
"360 0 LINE",
"398 0 LINE",
"254 218 LINE"
);
},
{
closed = 1;
nodes = (
"393 441 OFFCURVE",
"340 500 OFFCURVE",
"233 500 CURVE SMOOTH",
"90 500 LINE",
"90 0 LINE",
"120 0 LINE",
"120 215 LINE",
"233 215 LINE SMOOTH",
"340 215 OFFCURVE",
"393 274 OFFCURVE",
"393 357 CURVE SMOOTH"
);
},
{
closed = 1;
nodes = (
"120 240 LINE",
"120 474 LINE",
"233 474 LINE SMOOTH",
"315 474 OFFCURVE",
"361 430 OFFCURVE",
"361 357 CURVE SMOOTH",
"361 288 OFFCURVE",
"315 240 OFFCURVE",
"233 240 CURVE SMOOTH"
);
}
);
};
layerId = UUID0;
paths = (
{
closed = 1;
nodes = (
"146 0 LINE",
"146 261 LINE",
"307 261 LINE SMOOTH",
"437 261 OFFCURVE",
"502 333 OFFCURVE",
"502 434 CURVE SMOOTH",
"502 536 OFFCURVE",
"437 607 OFFCURVE",
"307 607 CURVE SMOOTH",
"109 607 LINE",
"109 0 LINE"
);
},
{
closed = 1;
nodes = (
"508 0 LINE",
"317 265 LINE",
"275 265 LINE",
"462 0 LINE"
);
},
{
closed = 1;
nodes = (
"146 576 LINE",
"307 576 LINE SMOOTH",
"407 576 OFFCURVE",
"463 522 OFFCURVE",
"463 434 CURVE SMOOTH",
"463 350 OFFCURVE",
"407 292 OFFCURVE",
"307 292 CURVE SMOOTH",
"146 292 LINE"
);
}
);
width = 581;
},
{
background = {
paths = (
{
closed = 1;
nodes = (
"213 267 LINE",
"338 0 LINE",
"511 0 LINE",
"353 267 LINE"
);
},
{
closed = 1;
nodes = (
"489 483 OFFCURVE",
"409 552 OFFCURVE",
"270 552 CURVE SMOOTH",
"70 552 LINE",
"70 0 LINE",
"202 0 LINE",
"202 205 LINE",
"270 205 LINE SMOOTH",
"408 205 OFFCURVE",
"489 273 OFFCURVE",
"489 378 CURVE SMOOTH"
);
},
{
closed = 1;
nodes = (
"202 290 LINE",
"202 438 LINE",
"270 438 LINE SMOOTH",
"326 438 OFFCURVE",
"354 407 OFFCURVE",
"354 364 CURVE SMOOTH",
"354 320 OFFCURVE",
"322 290 OFFCURVE",
"256 290 CURVE SMOOTH"
);
}
);
};
layerId = UUID1;
paths = (
{
closed = 1;
nodes = (
"245 0 LINE",
"245 249 LINE",
"346 249 LINE SMOOTH",
"514 249 OFFCURVE",
"612 332 OFFCURVE",
"612 459 CURVE SMOOTH",
"612 587 OFFCURVE",
"515 671 OFFCURVE",
"346 671 CURVE SMOOTH",
"85 671 LINE",
"85 0 LINE"
);
},
{
closed = 1;
nodes = (
"645 0 LINE",
"440 324 LINE",
"270 324 LINE",
"435 0 LINE"
);
},
{
closed = 1;
nodes = (
"245 532 LINE",
"346 532 LINE SMOOTH",
"414 532 OFFCURVE",
"448 495 OFFCURVE",
"448 442 CURVE SMOOTH",
"448 389 OFFCURVE",
"409 352 OFFCURVE",
"329 352 CURVE SMOOTH",
"245 352 LINE"
);
}
);
width = 676;
}
);
unicode = 0052;
},
{
glyphname = S;
lastChange = "2019-04-17 11:35:13 +0000";
layers = (
{
background = {
paths = (
{
closed = 1;
nodes = (
"245 214 OFFCURVE",
"274 185 OFFCURVE",
"312 185 CURVE SMOOTH",
"350 185 OFFCURVE",
"380 214 OFFCURVE",
"380 252 CURVE SMOOTH",
"380 290 OFFCURVE",
"350 320 OFFCURVE",
"312 320 CURVE SMOOTH",
"274 320 OFFCURVE",
"245 290 OFFCURVE",
"245 252 CURVE SMOOTH"
);
}
);
};
layerId = UUID0;
paths = (
{
closed = 1;
nodes = (
"425 -9 OFFCURVE",
"498 74 OFFCURVE",
"498 157 CURVE SMOOTH",
"498 244 OFFCURVE",
"437 292 OFFCURVE",
"355 316 CURVE SMOOTH",
"236 351 LINE SMOOTH",
"163 373 OFFCURVE",
"131 403 OFFCURVE",
"131 460 CURVE SMOOTH",
"131 531 OFFCURVE",
"187 582 OFFCURVE",
"286 582 CURVE SMOOTH",
"373 582 OFFCURVE",
"426 547 OFFCURVE",
"437 482 CURVE",
"474 482 LINE",
"463 560 OFFCURVE",
"396 616 OFFCURVE",
"286 616 CURVE SMOOTH",
"159 616 OFFCURVE",
"92 552 OFFCURVE",
"92 463 CURVE SMOOTH",
"92 380 OFFCURVE",
"145 343 OFFCURVE",
"253 310 CURVE SMOOTH",
"346 282 LINE SMOOTH",
"416 261 OFFCURVE",
"457 220 OFFCURVE",
"457 157 CURVE SMOOTH",
"457 91 OFFCURVE",
"394 26 OFFCURVE",
"284 26 CURVE SMOOTH",
"190 26 OFFCURVE",
"109 72 OFFCURVE",
"109 173 CURVE",
"73 173 LINE",
"73 60 OFFCURVE",
"168 -9 OFFCURVE",
"284 -9 CURVE SMOOTH"
);
}
);
width = 571;
},
{
background = {
paths = (
{
closed = 1;
nodes = (
"220 238 OFFCURVE",
"249 209 OFFCURVE",
"287 209 CURVE SMOOTH",
"325 209 OFFCURVE",
"355 238 OFFCURVE",
"355 276 CURVE SMOOTH",
"355 314 OFFCURVE",
"325 344 OFFCURVE",
"287 344 CURVE SMOOTH",
"249 344 OFFCURVE",
"220 314 OFFCURVE",
"220 276 CURVE SMOOTH"
);
}
);
};
layerId = UUID1;
paths = (
{
closed = 1;
nodes = (
"510 -16 OFFCURVE",
"611 53 OFFCURVE",
"611 187 CURVE SMOOTH",
"611 272 OFFCURVE",
"561 330 OFFCURVE",
"458 374 CURVE SMOOTH",
"305 439 LINE SMOOTH",
"264 456 OFFCURVE",
"245 469 OFFCURVE",
"245 493 CURVE SMOOTH",
"245 520 OFFCURVE",
"278 541 OFFCURVE",
"329 541 CURVE SMOOTH",
"397 541 OFFCURVE",
"425 508 OFFCURVE",
"433 464 CURVE",
"590 464 LINE",
"578 606 OFFCURVE",
"492 686 OFFCURVE",
"329 686 CURVE SMOOTH",
"168 686 OFFCURVE",
"69 609 OFFCURVE",
"69 496 CURVE SMOOTH",
"69 399 OFFCURVE",
"126 350 OFFCURVE",
"221 309 CURVE SMOOTH",
"368 245 LINE SMOOTH",
"419 224 OFFCURVE",
"435 214 OFFCURVE",
"435 181 CURVE SMOOTH",
"435 141 OFFCURVE",
"388 130 OFFCURVE",
"335 130 CURVE SMOOTH",
"270 130 OFFCURVE",
"219 157 OFFCURVE",
"219 219 CURVE",
"61 219 LINE",
"69 53 OFFCURVE",
"193 -16 OFFCURVE",
"337 -16 CURVE SMOOTH"
);
}
);
width = 672;
}
);
unicode = 0053;
},
{
glyphname = T;
lastChange = "2019-04-14 20:13:24 +0000";
layers = (
{
background = {
paths = (
{
closed = 1;
nodes = (
"24 451 LINE",
"169 451 LINE",
"169 0 LINE",
"199 0 LINE",
"199 451 LINE",
"344 451 LINE",
"344 478 LINE",
"24 478 LINE"
);
}
);
};
layerId = UUID0;
paths = (
{
closed = 1;
nodes = (
"216 576 LINE",
"216 0 LINE",
"253 0 LINE",
"253 576 LINE",
"463 576 LINE",
"463 607 LINE",
"6 607 LINE",
"6 576 LINE"
);
}
);
width = 469;
},
{
background = {
paths = (
{
closed = 1;
nodes = (
"24 414 LINE",
"160 414 LINE",
"160 0 LINE",
"275 0 LINE",
"275 414 LINE",
"411 414 LINE",
"411 519 LINE",
"24 519 LINE"
);
}
);
};
layerId = UUID1;
paths = (
{
closed = 1;
nodes = (
"202 532 LINE",
"202 0 LINE",
"362 0 LINE",
"362 532 LINE",
"558 532 LINE",
"558 671 LINE",
"6 671 LINE",
"6 532 LINE"
);
}
);
width = 564;
}
);
unicode = 0054;
},
{
glyphname = U;
lastChange = "2019-04-14 20:13:24 +0000";
layers = (
{
anchors = (
{
name = above;
position = "{305, 607}";
}
);
layerId = UUID0;
paths = (
{
closed = 1;
nodes = (
"91 208 LINE SMOOTH",
"91 57 OFFCURVE",
"180 -9 OFFCURVE",
"305 -9 CURVE SMOOTH",
"429 -9 OFFCURVE",
"518 57 OFFCURVE",
"518 208 CURVE SMOOTH",
"518 607 LINE",
"481 607 LINE",
"481 208 LINE SMOOTH",
"481 80 OFFCURVE",
"411 26 OFFCURVE",
"305 26 CURVE SMOOTH",
"198 26 OFFCURVE",
"128 80 OFFCURVE",
"128 208 CURVE SMOOTH",
"128 607 LINE",
"91 607 LINE"
);
}
);
width = 615;
},
{
anchors = (
{
name = above;
position = "{367, 690}";
}
);
layerId = UUID1;
paths = (
{
closed = 1;
nodes = (
"79 264 LINE SMOOTH",
"79 94 OFFCURVE",
"181 -16 OFFCURVE",
"367 -16 CURVE SMOOTH",
"554 -16 OFFCURVE",
"656 94 OFFCURVE",
"656 264 CURVE SMOOTH",
"656 671 LINE",
"496 671 LINE",
"496 264 LINE SMOOTH",
"496 168 OFFCURVE",
"442 130 OFFCURVE",
"367 130 CURVE SMOOTH",
"293 130 OFFCURVE",
"239 168 OFFCURVE",
"239 264 CURVE SMOOTH",
"239 671 LINE",
"79 671 LINE"
);
}
);
width = 729;
}
);
unicode = 0055;
},
{
glyphname = V;
lastChange = "2019-04-14 20:13:24 +0000";
layers = (
{
background = {
paths = (
{
closed = 1;
nodes = (
"197 28 LINE",
"211 28 LINE",
"46 478 LINE",
"14 478 LINE",
"189 0 LINE",
"219 0 LINE",
"394 478 LINE",
"362 478 LINE"
);
},
{
closed = 1;
nodes = (
"185 34 OFFCURVE",
"192 27 OFFCURVE",
"200 27 CURVE SMOOTH",
"208 27 OFFCURVE",
"215 34 OFFCURVE",
"215 42 CURVE SMOOTH",
"215 50 OFFCURVE",
"208 57 OFFCURVE",
"200 57 CURVE SMOOTH",
"192 57 OFFCURVE",
"185 50 OFFCURVE",
"185 42 CURVE SMOOTH"
);
},
{
closed = 1;
nodes = (
"214 34 OFFCURVE",
"221 27 OFFCURVE",
"229 27 CURVE SMOOTH",
"237 27 OFFCURVE",
"244 34 OFFCURVE",
"244 42 CURVE SMOOTH",
"244 50 OFFCURVE",
"237 57 OFFCURVE",
"229 57 CURVE SMOOTH",
"221 57 OFFCURVE",
"214 50 OFFCURVE",
"214 42 CURVE SMOOTH"
);
},
{
closed = 1;
nodes = (
"378 503 OFFCURVE",
"385 496 OFFCURVE",
"393 496 CURVE SMOOTH",
"401 496 OFFCURVE",
"408 503 OFFCURVE",
"408 511 CURVE SMOOTH",
"408 519 OFFCURVE",
"401 526 OFFCURVE",
"393 526 CURVE SMOOTH",
"385 526 OFFCURVE",
"378 519 OFFCURVE",
"378 511 CURVE SMOOTH"
);
},
{
closed = 1;
nodes = (
"21 503 OFFCURVE",
"28 496 OFFCURVE",
"36 496 CURVE SMOOTH",
"44 496 OFFCURVE",
"51 503 OFFCURVE",
"51 511 CURVE SMOOTH",
"51 519 OFFCURVE",
"44 526 OFFCURVE",
"36 526 CURVE SMOOTH",
"28 526 OFFCURVE",
"21 519 OFFCURVE",
"21 511 CURVE SMOOTH"
);
},
{
closed = 1;
nodes = (
"4 473 OFFCURVE",
"29 448 OFFCURVE",
"61 448 CURVE SMOOTH",
"93 448 OFFCURVE",
"119 473 OFFCURVE",
"119 505 CURVE SMOOTH",
"119 537 OFFCURVE",
"93 563 OFFCURVE",
"61 563 CURVE SMOOTH",
"29 563 OFFCURVE",
"4 537 OFFCURVE",
"4 505 CURVE SMOOTH"
);
},
{
closed = 1;
nodes = (
"4 473 OFFCURVE",
"29 448 OFFCURVE",
"61 448 CURVE SMOOTH",
"93 448 OFFCURVE",
"119 473 OFFCURVE",
"119 505 CURVE SMOOTH",
"119 537 OFFCURVE",
"93 563 OFFCURVE",
"61 563 CURVE SMOOTH",
"29 563 OFFCURVE",
"4 537 OFFCURVE",
"4 505 CURVE SMOOTH"
);
},
{
closed = 1;
nodes = (
"4 473 OFFCURVE",
"29 448 OFFCURVE",
"61 448 CURVE SMOOTH",
"93 448 OFFCURVE",
"119 473 OFFCURVE",
"119 505 CURVE SMOOTH",
"119 537 OFFCURVE",
"93 563 OFFCURVE",
"61 563 CURVE SMOOTH",
"29 563 OFFCURVE",
"4 537 OFFCURVE",
"4 505 CURVE SMOOTH"
);
},
{
closed = 1;
nodes = (
"4 473 OFFCURVE",
"29 448 OFFCURVE",
"61 448 CURVE SMOOTH",
"93 448 OFFCURVE",
"119 473 OFFCURVE",
"119 505 CURVE SMOOTH",
"119 537 OFFCURVE",
"93 563 OFFCURVE",
"61 563 CURVE SMOOTH",
"29 563 OFFCURVE",
"4 537 OFFCURVE",
"4 505 CURVE SMOOTH"
);
}
);
};
layerId = UUID0;
paths = (
{
closed = 1;
nodes = (
"265 36 LINE",
"57 607 LINE",
"18 607 LINE",
"242 0 LINE",
"279 0 LINE",
"503 607 LINE",
"464 607 LINE",
"256 36 LINE"
);
}
);
width = 521;
},
{
background = {
paths = (
{
closed = 1;
nodes = (
"244 114 LINE",
"251 114 LINE",
"148 519 LINE",
"19 519 LINE",
"190 0 LINE",
"305 0 LINE",
"480 519 LINE",
"350 519 LINE"
);
},
{
closed = 1;
nodes = (
"205 34 OFFCURVE",
"212 27 OFFCURVE",
"220 27 CURVE SMOOTH",
"228 27 OFFCURVE",
"235 34 OFFCURVE",
"235 42 CURVE SMOOTH",
"235 50 OFFCURVE",
"228 57 OFFCURVE",
"220 57 CURVE SMOOTH",
"212 57 OFFCURVE",
"205 50 OFFCURVE",
"205 42 CURVE SMOOTH"
);
},
{
closed = 1;
nodes = (
"205 34 OFFCURVE",
"212 27 OFFCURVE",
"220 27 CURVE SMOOTH",
"228 27 OFFCURVE",
"235 34 OFFCURVE",
"235 42 CURVE SMOOTH",
"235 50 OFFCURVE",
"228 57 OFFCURVE",
"220 57 CURVE SMOOTH",
"212 57 OFFCURVE",
"205 50 OFFCURVE",
"205 42 CURVE SMOOTH"
);
},
{
closed = 1;
nodes = (
"205 34 OFFCURVE",
"212 27 OFFCURVE",
"220 27 CURVE SMOOTH",
"228 27 OFFCURVE",
"235 34 OFFCURVE",
"235 42 CURVE SMOOTH",
"235 50 OFFCURVE",
"228 57 OFFCURVE",
"220 57 CURVE SMOOTH",
"212 57 OFFCURVE",
"205 50 OFFCURVE",
"205 42 CURVE SMOOTH"
);
},
{
closed = 1;
nodes = (
"205 34 OFFCURVE",
"212 27 OFFCURVE",
"220 27 CURVE SMOOTH",
"228 27 OFFCURVE",
"235 34 OFFCURVE",
"235 42 CURVE SMOOTH",
"235 50 OFFCURVE",
"228 57 OFFCURVE",
"220 57 CURVE SMOOTH",
"212 57 OFFCURVE",
"205 50 OFFCURVE",
"205 42 CURVE SMOOTH"
);
},
{
closed = 1;
nodes = (
"40 482 OFFCURVE",
"65 457 OFFCURVE",
"97 457 CURVE SMOOTH",
"129 457 OFFCURVE",
"155 482 OFFCURVE",
"155 514 CURVE SMOOTH",
"155 546 OFFCURVE",
"129 572 OFFCURVE",
"97 572 CURVE SMOOTH",
"65 572 OFFCURVE",
"40 546 OFFCURVE",
"40 514 CURVE SMOOTH"
);
},
{
closed = 1;
nodes = (
"367 482 OFFCURVE",
"392 457 OFFCURVE",
"424 457 CURVE SMOOTH",
"456 457 OFFCURVE",
"482 482 OFFCURVE",
"482 514 CURVE SMOOTH",
"482 546 OFFCURVE",
"456 572 OFFCURVE",
"424 572 CURVE SMOOTH",
"392 572 OFFCURVE",
"367 546 OFFCURVE",
"367 514 CURVE SMOOTH"
);
},
{
closed = 1;
nodes = (
"245 102 OFFCURVE",
"270 77 OFFCURVE",
"302 77 CURVE SMOOTH",
"334 77 OFFCURVE",
"360 102 OFFCURVE",
"360 134 CURVE SMOOTH",
"360 166 OFFCURVE",
"334 192 OFFCURVE",
"302 192 CURVE SMOOTH",
"270 192 OFFCURVE",
"245 166 OFFCURVE",
"245 134 CURVE SMOOTH"
);
},
{
closed = 1;
nodes = (
"160 102 OFFCURVE",
"185 77 OFFCURVE",
"217 77 CURVE SMOOTH",
"249 77 OFFCURVE",
"275 102 OFFCURVE",
"275 134 CURVE SMOOTH",
"275 166 OFFCURVE",
"249 192 OFFCURVE",
"217 192 CURVE SMOOTH",
"185 192 OFFCURVE",
"160 166 OFFCURVE",
"160 134 CURVE SMOOTH"
);
}
);
};
layerId = UUID1;
paths = (
{
closed = 1;
nodes = (
"329 177 LINE",
"187 671 LINE",
"18 671 LINE",
"236 0 LINE",
"405 0 LINE",
"627 671 LINE",
"459 671 LINE",
"315 177 LINE"
);
}
);
width = 645;
}
);
unicode = 0056;
},
{
glyphname = W;
lastChange = "2019-04-14 20:13:24 +0000";
layers = (
{
background = {
paths = (
{
closed = 1;
nodes = (
"30 478 LINE",
"175 0 LINE",
"205 0 LINE",
"342 368 LINE",
"327 368 LINE",
"455 0 LINE",
"485 0 LINE",
"660 478 LINE",
"628 478 LINE",
"463 28 LINE",
"477 28 LINE",
"344 409 LINE",
"324 409 LINE",
"183 28 LINE",
"197 28 LINE",
"62 478 LINE"
);
}
);
};
layerId = UUID0;
paths = (
{
closed = 1;
nodes = (
"203 0 LINE",
"242 0 LINE",
"417 470 LINE",
"397 470 LINE",
"560 0 LINE",
"599 0 LINE",
"821 607 LINE",
"781 607 LINE",
"571 33 LINE",
"588 33 LINE",
"419 519 LINE",
"394 519 LINE",
"214 33 LINE",
"231 33 LINE",
"60 607 LINE",
"18 607 LINE"
);
}
);
width = 840;
},
{
background = {
paths = (
{
closed = 1;
nodes = (
"25 519 LINE",
"196 0 LINE",
"311 0 LINE",
"405 283 LINE",
"394 283 LINE",
"486 0 LINE",
"601 0 LINE",
"776 519 LINE",
"646 519 LINE",
"546 139 LINE",
"556 139 LINE",
"454 519 LINE",
"356 519 LINE",
"258 131 LINE",
"266 131 LINE",
"164 519 LINE"
);
}
);
};
layerId = UUID1;
paths = (
{
closed = 1;
nodes = (
"232 0 LINE",
"400 0 LINE",
"502 338 LINE",
"496 338 LINE",
"604 0 LINE",
"772 0 LINE",
"996 671 LINE",
"815 671 LINE",
"673 153 LINE",
"705 153 LINE",
"548 651 LINE",
"440 651 LINE",
"298 141 LINE",
"335 141 LINE",
"185 671 LINE",
"6 671 LINE"
);
}
);
width = 1002;
}
);
unicode = 0057;
},
{
glyphname = X;
lastChange = "2019-04-17 11:35:23 +0000";
layers = (
{
background = {
paths = (
{
closed = 1;
nodes = (
"431 0 LINE",
"393 0 LINE",
"243 214 LINE",
"96 0 LINE",
"58 0 LINE",
"225 238 LINE",
"58 478 LINE",
"95 478 LINE",
"246 263 LINE",
"394 478 LINE",
"431 478 LINE",
"263 238 LINE"
);
}
);
};
layerId = UUID0;
paths = (
{
closed = 1;
nodes = (
"109 0 LINE",
"296 272 LINE",
"488 0 LINE",
"532 0 LINE",
"321 300 LINE",
"537 607 LINE",
"493 607 LINE",
"301 327 LINE",
"103 607 LINE",
"61 607 LINE",
"277 300 LINE",
"64 0 LINE"
);
}
);
width = 598;
},
{
background = {
paths = (
{
closed = 1;
nodes = (
"542 0 LINE",
"400 0 LINE",
"283 150 LINE",
"182 0 LINE",
"25 0 LINE",
"209 252 LINE",
"25 519 LINE",
"166 519 LINE",
"277 353 LINE",
"381 519 LINE",
"524 519 LINE",
"348 247 LINE"
);
}
);
};
layerId = UUID1;
paths = (
{
closed = 1;
nodes = (
"213 0 LINE",
"347 209 LINE",
"508 0 LINE",
"710 0 LINE",
"453 338 LINE",
"673 671 LINE",
"479 671 LINE",
"363 460 LINE",
"217 671 LINE",
"19 671 LINE",
"256 335 LINE",
"18 0 LINE"
);
}
);
width = 728;
}
);
unicode = 0058;
},
{
glyphname = Y;
lastChange = "2019-04-14 20:13:24 +0000";
layers = (
{
layerId = UUID0;
paths = (
{
closed = 1;
nodes = (
"236 248 LINE",
"236 0 LINE",
"275 0 LINE",
"275 248 LINE",
"497 607 LINE",
"453 607 LINE",
"247 275 LINE",
"264 275 LINE",
"57 607 LINE",
"12 607 LINE"
);
}
);
width = 509;
},
{
layerId = UUID1;
paths = (
{
closed = 1;
nodes = (
"227 278 LINE",
"227 0 LINE",
"386 0 LINE",
"386 278 LINE",
"622 671 LINE",
"433 671 LINE",
"296 419 LINE",
"321 419 LINE",
"194 671 LINE",
"5 671 LINE"
);
}
);
width = 627;
}
);
unicode = 0059;
},
{
glyphname = Z;
lastChange = "2019-04-17 11:35:37 +0000";
layers = (
{
background = {
paths = (
{
closed = 1;
nodes = (
"58 30 LINE",
"340 448 LINE",
"58 451 LINE",
"58 478 LINE",
"378 478 LINE",
"378 448 LINE",
"93 27 LINE",
"378 24 LINE",
"378 0 LINE",
"58 0 LINE"
);
},
{
closed = 1;
nodes = (
"128 147 OFFCURVE",
"153 122 OFFCURVE",
"185 122 CURVE SMOOTH",
"217 122 OFFCURVE",
"243 147 OFFCURVE",
"243 179 CURVE SMOOTH",
"243 211 OFFCURVE",
"217 237 OFFCURVE",
"185 237 CURVE SMOOTH",
"153 237 OFFCURVE",
"128 211 OFFCURVE",
"128 179 CURVE SMOOTH"
);
},
{
closed = 1;
nodes = (
"128 147 OFFCURVE",
"153 122 OFFCURVE",
"185 122 CURVE SMOOTH",
"217 122 OFFCURVE",
"243 147 OFFCURVE",
"243 179 CURVE SMOOTH",
"243 211 OFFCURVE",
"217 237 OFFCURVE",
"185 237 CURVE SMOOTH",
"153 237 OFFCURVE",
"128 211 OFFCURVE",
"128 179 CURVE SMOOTH"
);
},
{
closed = 1;
nodes = (
"109 96 OFFCURVE",
"116 89 OFFCURVE",
"124 89 CURVE SMOOTH",
"132 89 OFFCURVE",
"139 96 OFFCURVE",
"139 104 CURVE SMOOTH",
"139 112 OFFCURVE",
"132 119 OFFCURVE",
"124 119 CURVE SMOOTH",
"116 119 OFFCURVE",
"109 112 OFFCURVE",
"109 104 CURVE SMOOTH"
);
},
{
closed = 1;
nodes = (
"354 470 OFFCURVE",
"361 463 OFFCURVE",
"369 463 CURVE SMOOTH",
"377 463 OFFCURVE",
"384 470 OFFCURVE",
"384 478 CURVE SMOOTH",
"384 486 OFFCURVE",
"377 493 OFFCURVE",
"369 493 CURVE SMOOTH",
"361 493 OFFCURVE",
"354 486 OFFCURVE",
"354 478 CURVE SMOOTH"
);
}
);
};
layerId = UUID0;
paths = (
{
closed = 1;
nodes = (
"504 0 LINE",
"504 34 LINE",
"101 38 LINE",
"111 27 LINE",
"504 569 LINE",
"504 607 LINE",
"73 607 LINE",
"73 573 LINE",
"467 569 LINE",
"467 582 LINE",
"73 38 LINE",
"73 0 LINE"
);
}
);
width = 553;
},
{
background = {
paths = (
{
closed = 1;
nodes = (
"57 98 LINE",
"303 414 LINE",
"57 421 LINE",
"57 519 LINE",
"437 519 LINE",
"437 421 LINE",
"199 105 LINE",
"437 98 LINE",
"437 0 LINE",
"57 0 LINE"
);
},
{
closed = 1;
nodes = (
"126 146 OFFCURVE",
"151 121 OFFCURVE",
"183 121 CURVE SMOOTH",
"215 121 OFFCURVE",
"241 146 OFFCURVE",
"241 178 CURVE SMOOTH",
"241 210 OFFCURVE",
"215 236 OFFCURVE",
"183 236 CURVE SMOOTH",
"151 236 OFFCURVE",
"126 210 OFFCURVE",
"126 178 CURVE SMOOTH"
);
},
{
closed = 1;
nodes = (
"308 395 OFFCURVE",
"333 370 OFFCURVE",
"365 370 CURVE SMOOTH",
"397 370 OFFCURVE",
"423 395 OFFCURVE",
"423 427 CURVE SMOOTH",
"423 459 OFFCURVE",
"397 485 OFFCURVE",
"365 485 CURVE SMOOTH",
"333 485 OFFCURVE",
"308 459 OFFCURVE",
"308 427 CURVE SMOOTH"
);
},
{
closed = 1;
nodes = (
"143 96 OFFCURVE",
"150 89 OFFCURVE",
"158 89 CURVE SMOOTH",
"166 89 OFFCURVE",
"173 96 OFFCURVE",
"173 104 CURVE SMOOTH",
"173 112 OFFCURVE",
"166 119 OFFCURVE",
"158 119 CURVE SMOOTH",
"150 119 OFFCURVE",
"143 112 OFFCURVE",
"143 104 CURVE SMOOTH"
);
},
{
closed = 1;
nodes = (
"143 96 OFFCURVE",
"150 89 OFFCURVE",
"158 89 CURVE SMOOTH",
"166 89 OFFCURVE",
"173 96 OFFCURVE",
"173 104 CURVE SMOOTH",
"173 112 OFFCURVE",
"166 119 OFFCURVE",
"158 119 CURVE SMOOTH",
"150 119 OFFCURVE",
"143 112 OFFCURVE",
"143 104 CURVE SMOOTH"
);
}
);
};
layerId = UUID1;
paths = (
{
closed = 1;
nodes = (
"595 0 LINE",
"595 146 LINE",
"262 146 LINE",
"262 128 LINE",
"595 537 LINE",
"595 671 LINE",
"73 671 LINE",
"73 525 LINE",
"441 525 LINE",
"441 584 LINE",
"73 135 LINE",
"73 0 LINE"
);
}
);
width = 668;
}
);
unicode = 005A;
},
{
glyphname = quotesingle;
lastChange = "2019-04-14 20:13:24 +0000";
layers = (
{
background = {
paths = (
{
closed = 1;
nodes = (
"20 586 LINE",
"25 413 LINE",
"49 413 LINE",
"54 586 LINE"
);
}
);
};
layerId = UUID0;
paths = (
{
closed = 1;
nodes = (
"30 476 LINE",
"60 476 LINE",
"66 677 LINE",
"24 677 LINE"
);
}
);
width = 90;
},
{
background = {
paths = (
{
closed = 1;
nodes = (
"30 586 LINE",
"45 373 LINE",
"129 373 LINE",
"144 586 LINE"
);
}
);
};
layerId = UUID1;
paths = (
{
closed = 1;
nodes = (
"55 420 LINE",
"171 420 LINE",
"192 677 LINE",
"34 677 LINE"
);
}
);
width = 226;
}
);
unicode = 0027;
},
{
glyphname = apostrophe;
lastChange = "2019-04-14 20:13:24 +0000";
layers = (
{
background = {
paths = (
{
closed = 1;
nodes = (
"45 446 OFFCURVE",
"58 436 OFFCURVE",
"76 436 CURVE",
"72 411 OFFCURVE",
"56 396 OFFCURVE",
"30 382 CURVE",
"54 370 LINE",
"91 390 OFFCURVE",
"105 422 OFFCURVE",
"105 448 CURVE SMOOTH",
"105 473 OFFCURVE",
"90 490 OFFCURVE",
"71 490 CURVE SMOOTH",
"54 490 OFFCURVE",
"45 477 OFFCURVE",
"45 463 CURVE SMOOTH"
);
}
);
};
components = (
{
name = comma;
transform = "{1, 0, 0, 1, 0, 538}";
}
);
layerId = UUID0;
width = 128;
},
{
background = {
paths = (
{
closed = 1;
nodes = (
"52 435 OFFCURVE",
"80 411 OFFCURVE",
"114 405 CURVE",
"103 370 OFFCURVE",
"69 343 OFFCURVE",
"30 323 CURVE",
"114 277 LINE",
"178 311 OFFCURVE",
"219 378 OFFCURVE",
"219 437 CURVE SMOOTH",
"219 496 OFFCURVE",
"185 544 OFFCURVE",
"130 544 CURVE SMOOTH",
"85 544 OFFCURVE",
"52 513 OFFCURVE",
"52 472 CURVE SMOOTH"
);
}
);
};
components = (
{
name = comma;
transform = "{1, 0, 0, 1, 18, 510}";
}
);
layerId = UUID1;
width = 293;
}
);
unicode = 02BC;
},
{
glyphname = quoteleft;
lastChange = "2019-04-17 21:56:49 +0000";
layers = (
{
background = {
paths = (
{
closed = 1;
nodes = (
"81 399 OFFCURVE",
"90 412 OFFCURVE",
"90 426 CURVE SMOOTH",
"90 443 OFFCURVE",
"77 453 OFFCURVE",
"59 453 CURVE",
"63 476 OFFCURVE",
"79 493 OFFCURVE",
"105 507 CURVE",
"81 519 LINE",
"44 499 OFFCURVE",
"30 467 OFFCURVE",
"30 441 CURVE SMOOTH",
"30 416 OFFCURVE",
"45 399 OFFCURVE",
"64 399 CURVE"
);
}
);
};
layerId = UUID0;
paths = (
{
closed = 1;
nodes = (
"98 460 OFFCURVE",
"109 475 OFFCURVE",
"109 492 CURVE SMOOTH",
"109 512 OFFCURVE",
"94 522 OFFCURVE",
"72 522 CURVE",
"77 549 OFFCURVE",
"96 569 OFFCURVE",
"128 586 CURVE",
"98 599 LINE",
"53 576 OFFCURVE",
"36 539 OFFCURVE",
"36 509 CURVE SMOOTH",
"36 480 OFFCURVE",
"55 460 OFFCURVE",
"78 460 CURVE SMOOTH"
);
}
);
width = 152;
},
{
background = {
paths = (
{
closed = 1;
nodes = (
"164 310 OFFCURVE",
"197 341 OFFCURVE",
"197 382 CURVE SMOOTH",
"197 419 OFFCURVE",
"169 443 OFFCURVE",
"135 449 CURVE",
"146 484 OFFCURVE",
"180 511 OFFCURVE",
"219 531 CURVE",
"140 577 LINE",
"76 543 OFFCURVE",
"30 480 OFFCURVE",
"30 417 CURVE SMOOTH",
"30 358 OFFCURVE",
"64 310 OFFCURVE",
"119 310 CURVE"
);
}
);
};
layerId = UUID1;
paths = (
{
closed = 1;
nodes = (
"220 337 OFFCURVE",
"265 378 OFFCURVE",
"265 431 CURVE SMOOTH",
"265 477 OFFCURVE",
"227 509 OFFCURVE",
"182 518 CURVE",
"198 561 OFFCURVE",
"243 593 OFFCURVE",
"294 617 CURVE",
"185 679 LINE",
"100 637 OFFCURVE",
"36 556 OFFCURVE",
"36 475 CURVE SMOOTH",
"36 400 OFFCURVE",
"83 337 OFFCURVE",
"158 337 CURVE SMOOTH"
);
}
);
width = 333;
}
);
unicode = 2018;
},
{
glyphname = quoteright;
lastChange = "2019-04-17 21:57:07 +0000";
layers = (
{
background = {
paths = (
{
closed = 1;
nodes = (
"24 519 OFFCURVE",
"15 506 OFFCURVE",
"15 492 CURVE SMOOTH",
"15 475 OFFCURVE",
"28 465 OFFCURVE",
"46 465 CURVE",
"42 442 OFFCURVE",
"26 425 OFFCURVE",
"0 411 CURVE",
"24 399 LINE",
"61 419 OFFCURVE",
"75 451 OFFCURVE",
"75 477 CURVE SMOOTH",
"75 502 OFFCURVE",
"60 519 OFFCURVE",
"41 519 CURVE"
);
}
);
};
layerId = UUID0;
paths = (
{
closed = 1;
nodes = (
"74 484 OFFCURVE",
"91 520 OFFCURVE",
"91 550 CURVE SMOOTH",
"91 580 OFFCURVE",
"73 599 OFFCURVE",
"50 599 CURVE SMOOTH",
"29 599 OFFCURVE",
"18 584 OFFCURVE",
"18 567 CURVE SMOOTH",
"18 548 OFFCURVE",
"34 537 OFFCURVE",
"56 537 CURVE",
"51 510 OFFCURVE",
"32 491 OFFCURVE",
"0 474 CURVE",
"29 460 LINE"
);
}
);
width = 152;
},
{
background = {
paths = (
{
closed = 1;
nodes = (
"85 577 OFFCURVE",
"52 546 OFFCURVE",
"52 505 CURVE SMOOTH",
"52 468 OFFCURVE",
"80 444 OFFCURVE",
"114 438 CURVE",
"103 403 OFFCURVE",
"69 376 OFFCURVE",
"30 356 CURVE",
"109 310 LINE",
"173 344 OFFCURVE",
"219 407 OFFCURVE",
"219 470 CURVE SMOOTH",
"219 529 OFFCURVE",
"185 577 OFFCURVE",
"130 577 CURVE"
);
}
);
};
layerId = UUID1;
paths = (
{
closed = 1;
nodes = (
"237 380 OFFCURVE",
"301 460 OFFCURVE",
"301 541 CURVE SMOOTH",
"301 617 OFFCURVE",
"255 679 OFFCURVE",
"180 679 CURVE SMOOTH",
"118 679 OFFCURVE",
"72 640 OFFCURVE",
"72 587 CURVE SMOOTH",
"72 539 OFFCURVE",
"109 508 OFFCURVE",
"156 499 CURVE",
"140 457 OFFCURVE",
"95 423 OFFCURVE",
"44 399 CURVE",
"153 337 LINE"
);
}
);
width = 333;
}
);
unicode = 2019;
},
{
glyphname = parenleft;
lastChange = "2019-04-14 20:13:24 +0000";
layers = (
{
background = {
paths = (
{
closed = 1;
nodes = (
"60 243 LINE",
"60 362 OFFCURVE",
"116 485 OFFCURVE",
"211 576 CURVE",
"235 562 LINE",
"143 471 OFFCURVE",
"93 353 OFFCURVE",
"93 243 CURVE"
);
}
);
};
layerId = UUID0;
paths = (
{
closed = 1;
nodes = (
"143 589 OFFCURVE",
"73 440 OFFCURVE",
"73 295 CURVE SMOOTH",
"73 151 OFFCURVE",
"143 1 OFFCURVE",
"259 -109 CURVE",
"286 -92 LINE",
"174 18 OFFCURVE",
"113 162 OFFCURVE",
"113 295 CURVE SMOOTH",
"113 429 OFFCURVE",
"174 572 OFFCURVE",
"286 683 CURVE",
"259 700 LINE"
);
}
);
width = 310;
},
{
background = {
paths = (
{
closed = 1;
nodes = (
"60 272 LINE",
"60 131 OFFCURVE",
"113 11 OFFCURVE",
"242 -100 CURVE",
"337 -29 LINE",
"241 73 OFFCURVE",
"195 158 OFFCURVE",
"195 272 CURVE"
);
}
);
};
layerId = UUID1;
paths = (
{
closed = 1;
nodes = (
"137 648 OFFCURVE",
"73 502 OFFCURVE",
"73 330 CURVE SMOOTH",
"73 159 OFFCURVE",
"137 13 OFFCURVE",
"294 -122 CURVE",
"409 -35 LINE",
"293 89 OFFCURVE",
"237 192 OFFCURVE",
"237 330 CURVE SMOOTH",
"237 469 OFFCURVE",
"293 572 OFFCURVE",
"409 696 CURVE",
"294 782 LINE"
);
}
);
width = 446;
}
);
unicode = 0028;
},
{
glyphname = parenright;
lastChange = "2019-04-17 21:57:17 +0000";
layers = (
{
layerId = UUID0;
paths = (
{
closed = 1;
nodes = (
"166 1 OFFCURVE",
"237 151 OFFCURVE",
"237 295 CURVE SMOOTH",
"237 440 OFFCURVE",
"166 589 OFFCURVE",
"51 700 CURVE",
"24 683 LINE",
"136 572 OFFCURVE",
"197 429 OFFCURVE",
"197 295 CURVE SMOOTH",
"197 162 OFFCURVE",
"136 18 OFFCURVE",
"24 -92 CURVE",
"51 -109 LINE"
);
}
);
width = 310;
},
{
layerId = UUID1;
paths = (
{
closed = 1;
nodes = (
"309 13 OFFCURVE",
"373 159 OFFCURVE",
"373 330 CURVE SMOOTH",
"373 502 OFFCURVE",
"309 648 OFFCURVE",
"152 782 CURVE",
"36 696 LINE",
"153 572 OFFCURVE",
"209 469 OFFCURVE",
"209 330 CURVE SMOOTH",
"209 192 OFFCURVE",
"153 89 OFFCURVE",
"36 -35 CURVE",
"152 -122 LINE"
);
}
);
width = 446;
}
);
unicode = 0029;
},
{
glyphname = plus;
lastChange = "2019-04-14 20:13:24 +0000";
layers = (
{
background = {
paths = (
{
closed = 1;
nodes = (
"195 425 LINE",
"195 226 LINE",
"15 226 LINE",
"15 200 LINE",
"195 200 LINE",
"195 0 LINE",
"225 0 LINE",
"225 200 LINE",
"405 200 LINE",
"405 226 LINE",
"225 226 LINE",
"225 425 LINE"
);
}
);
};
layerId = UUID0;
paths = (
{
closed = 1;
nodes = (
"237 261 LINE",
"18 261 LINE",
"18 231 LINE",
"237 231 LINE",
"237 0 LINE",
"273 0 LINE",
"273 231 LINE",
"492 231 LINE",
"492 261 LINE",
"273 261 LINE",
"273 491 LINE",
"237 491 LINE"
);
}
);
width = 510;
},
{
background = {
paths = (
{
closed = 1;
nodes = (
"170 425 LINE",
"170 265 LINE",
"15 265 LINE",
"15 160 LINE",
"170 160 LINE",
"170 0 LINE",
"285 0 LINE",
"285 160 LINE",
"440 160 LINE",
"440 265 LINE",
"285 265 LINE",
"285 425 LINE"
);
}
);
};
layerId = UUID1;
paths = (
{
closed = 1;
nodes = (
"200 315 LINE",
"18 315 LINE",
"18 175 LINE",
"200 175 LINE",
"200 0 LINE",
"361 0 LINE",
"361 175 LINE",
"543 175 LINE",
"543 315 LINE",
"361 315 LINE",
"361 491 LINE",
"200 491 LINE"
);
}
);
width = 561;
}
);
unicode = 002B;
},
{
glyphname = minus;
lastChange = "2019-04-28 20:02:01 +0000";
layers = (
{
background = {
paths = (
{
closed = 1;
nodes = (
"65 224 LINE",
"65 197 LINE",
"320 197 LINE",
"320 224 LINE"
);
}
);
};
layerId = UUID0;
paths = (
{
closed = 1;
nodes = (
"18 233 LINE",
"492 233 LINE",
"492 264 LINE",
"18 264 LINE"
);
}
);
width = 510;
},
{
background = {
paths = (
{
closed = 1;
nodes = (
"65 263 LINE",
"65 158 LINE",
"360 158 LINE",
"360 263 LINE"
);
}
);
};
layerId = UUID1;
paths = (
{
closed = 1;
nodes = (
"18 175 LINE",
"543 175 LINE",
"543 315 LINE",
"18 315 LINE"
);
}
);
width = 561;
}
);
unicode = 2212;
},
{
glyphname = equal;
lastChange = "2019-04-14 20:13:24 +0000";
layers = (
{
background = {
paths = (
{
closed = 1;
nodes = (
"65 147 LINE",
"65 120 LINE",
"320 120 LINE",
"320 147 LINE"
);
},
{
closed = 1;
nodes = (
"65 297 LINE",
"65 270 LINE",
"320 270 LINE",
"320 297 LINE"
);
}
);
};
layerId = UUID0;
paths = (
{
closed = 1;
nodes = (
"79 139 LINE",
"389 139 LINE",
"389 170 LINE",
"79 170 LINE"
);
},
{
closed = 1;
nodes = (
"79 311 LINE",
"389 311 LINE",
"389 343 LINE",
"79 343 LINE"
);
}
);
width = 468;
},
{
background = {
paths = (
{
closed = 1;
nodes = (
"65 178 LINE",
"65 73 LINE",
"360 73 LINE",
"360 178 LINE"
);
},
{
closed = 1;
nodes = (
"65 368 LINE",
"65 263 LINE",
"360 263 LINE",
"360 368 LINE"
);
}
);
};
layerId = UUID1;
paths = (
{
closed = 1;
nodes = (
"79 73 LINE",
"447 73 LINE",
"447 213 LINE",
"79 213 LINE"
);
},
{
closed = 1;
nodes = (
"79 303 LINE",
"447 303 LINE",
"447 442 LINE",
"79 442 LINE"
);
}
);
width = 526;
}
);
unicode = 003D;
},
{
glyphname = zero;
lastChange = "2019-04-17 01:47:18 +0000";
layers = (
{
layerId = UUID0;
paths = (
{
closed = 1;
nodes = (
"413 -9 OFFCURVE",
"499 97 OFFCURVE",
"499 304 CURVE SMOOTH",
"499 510 OFFCURVE",
"413 616 OFFCURVE",
"277 616 CURVE SMOOTH",
"141 616 OFFCURVE",
"55 510 OFFCURVE",
"55 304 CURVE SMOOTH",
"55 97 OFFCURVE",
"141 -9 OFFCURVE",
"277 -9 CURVE SMOOTH"
);
},
{
closed = 1;
nodes = (
"156 26 OFFCURVE",
"95 128 OFFCURVE",
"95 304 CURVE SMOOTH",
"95 480 OFFCURVE",
"156 582 OFFCURVE",
"277 582 CURVE SMOOTH",
"399 582 OFFCURVE",
"459 480 OFFCURVE",
"459 304 CURVE SMOOTH",
"459 128 OFFCURVE",
"399 26 OFFCURVE",
"277 26 CURVE SMOOTH"
);
}
);
width = 554;
},
{
layerId = UUID1;
paths = (
{
closed = 1;
nodes = (
"507 -16 OFFCURVE",
"631 96 OFFCURVE",
"631 335 CURVE SMOOTH",
"631 575 OFFCURVE",
"507 686 OFFCURVE",
"337 686 CURVE SMOOTH",
"166 686 OFFCURVE",
"43 575 OFFCURVE",
"43 335 CURVE SMOOTH",
"43 96 OFFCURVE",
"166 -16 OFFCURVE",
"337 -16 CURVE SMOOTH"
);
},
{
closed = 1;
nodes = (
"258 130 OFFCURVE",
"207 200 OFFCURVE",
"207 335 CURVE SMOOTH",
"207 470 OFFCURVE",
"258 541 OFFCURVE",
"337 541 CURVE SMOOTH",
"416 541 OFFCURVE",
"467 470 OFFCURVE",
"467 335 CURVE SMOOTH",
"467 200 OFFCURVE",
"416 130 OFFCURVE",
"337 130 CURVE SMOOTH"
);
}
);
width = 673;
}
);
unicode = 0030;
},
{
glyphname = one;
lastChange = "2019-04-14 20:13:24 +0000";
layers = (
{
layerId = UUID0;
paths = (
{
closed = 1;
nodes = (
"131 580 OFFCURVE",
"94 564 OFFCURVE",
"55 558 CURVE",
"55 519 LINE",
"91 521 OFFCURVE",
"129 537 OFFCURVE",
"158 564 CURVE",
"158 0 LINE",
"194 0 LINE",
"194 607 LINE",
"158 607 LINE"
);
}
);
width = 304;
},
{
layerId = UUID1;
paths = (
{
closed = 1;
nodes = (
"128 640 OFFCURVE",
"83 627 OFFCURVE",
"36 622 CURVE",
"36 470 LINE",
"68 470 OFFCURVE",
"100 474 OFFCURVE",
"139 485 CURVE",
"139 0 LINE",
"299 0 LINE",
"299 677 LINE",
"182 677 LINE"
);
}
);
width = 384;
}
);
unicode = 0031;
},
{
glyphname = two;
lastChange = "2019-04-17 01:47:31 +0000";
layers = (
{
layerId = UUID0;
paths = (
{
closed = 1;
nodes = (
"464 0 LINE",
"464 35 LINE",
"106 35 LINE",
"106 77 LINE SMOOTH",
"106 148 OFFCURVE",
"147 190 OFFCURVE",
"224 221 CURVE SMOOTH",
"343 271 LINE SMOOTH",
"412 300 OFFCURVE",
"471 352 OFFCURVE",
"471 447 CURVE SMOOTH",
"471 543 OFFCURVE",
"394 616 OFFCURVE",
"282 616 CURVE SMOOTH",
"158 616 OFFCURVE",
"90 559 OFFCURVE",
"80 475 CURVE",
"120 475 LINE",
"130 546 OFFCURVE",
"190 582 OFFCURVE",
"282 582 CURVE SMOOTH",
"374 582 OFFCURVE",
"431 530 OFFCURVE",
"431 452 CURVE SMOOTH",
"431 380 OFFCURVE",
"392 334 OFFCURVE",
"322 305 CURVE SMOOTH",
"208 258 LINE SMOOTH",
"132 226 OFFCURVE",
"69 183 OFFCURVE",
"69 74 CURVE SMOOTH",
"69 0 LINE"
);
}
);
width = 553;
},
{
layerId = UUID1;
paths = (
{
closed = 1;
nodes = (
"593 0 LINE",
"593 146 LINE",
"215 146 LINE",
"215 153 LINE SMOOTH",
"215 175 OFFCURVE",
"227 187 OFFCURVE",
"266 202 CURVE SMOOTH",
"409 255 LINE SMOOTH",
"544 306 OFFCURVE",
"595 372 OFFCURVE",
"595 475 CURVE SMOOTH",
"595 603 OFFCURVE",
"479 686 OFFCURVE",
"338 686 CURVE SMOOTH",
"191 686 OFFCURVE",
"66 617 OFFCURVE",
"66 459 CURVE",
"244 459 LINE",
"249 516 OFFCURVE",
"290 547 OFFCURVE",
"341 547 CURVE SMOOTH",
"396 547 OFFCURVE",
"423 515 OFFCURVE",
"423 479 CURVE SMOOTH",
"423 440 OFFCURVE",
"402 414 OFFCURVE",
"351 395 CURVE SMOOTH",
"208 341 LINE SMOOTH",
"97 300 OFFCURVE",
"55 239 OFFCURVE",
"55 130 CURVE SMOOTH",
"55 0 LINE"
);
}
);
width = 632;
}
);
unicode = 0032;
},
{
glyphname = three;
lastChange = "2019-04-17 01:47:46 +0000";
layers = (
{
layerId = UUID0;
paths = (
{
closed = 1;
nodes = (
"411 -9 OFFCURVE",
"485 62 OFFCURVE",
"485 164 CURVE SMOOTH",
"485 247 OFFCURVE",
"426 299 OFFCURVE",
"345 318 CURVE",
"417 343 OFFCURVE",
"458 389 OFFCURVE",
"458 454 CURVE SMOOTH",
"458 547 OFFCURVE",
"378 616 OFFCURVE",
"269 616 CURVE SMOOTH",
"180 616 OFFCURVE",
"102 581 OFFCURVE",
"84 480 CURVE",
"120 480 LINE",
"142 559 OFFCURVE",
"199 582 OFFCURVE",
"269 582 CURVE SMOOTH",
"362 582 OFFCURVE",
"418 525 OFFCURVE",
"418 454 CURVE SMOOTH",
"418 375 OFFCURVE",
"345 328 OFFCURVE",
"227 328 CURVE SMOOTH",
"204 328 LINE",
"204 298 LINE",
"259 298 LINE SMOOTH",
"395 298 OFFCURVE",
"445 238 OFFCURVE",
"445 164 CURVE SMOOTH",
"445 85 OFFCURVE",
"385 26 OFFCURVE",
"281 26 CURVE SMOOTH",
"181 26 OFFCURVE",
"97 75 OFFCURVE",
"97 180 CURVE",
"61 180 LINE",
"61 56 OFFCURVE",
"165 -9 OFFCURVE",
"281 -9 CURVE SMOOTH"
);
}
);
width = 558;
},
{
layerId = UUID1;
paths = (
{
closed = 1;
nodes = (
"498 -16 OFFCURVE",
"615 69 OFFCURVE",
"615 191 CURVE SMOOTH",
"615 267 OFFCURVE",
"567 320 OFFCURVE",
"491 351 CURVE",
"560 375 OFFCURVE",
"595 428 OFFCURVE",
"595 495 CURVE SMOOTH",
"595 610 OFFCURVE",
"479 686 OFFCURVE",
"322 686 CURVE SMOOTH",
"166 686 OFFCURVE",
"56 617 OFFCURVE",
"44 468 CURVE",
"214 468 LINE",
"222 520 OFFCURVE",
"273 541 OFFCURVE",
"329 541 CURVE SMOOTH",
"395 541 OFFCURVE",
"423 513 OFFCURVE",
"423 473 CURVE SMOOTH",
"423 430 OFFCURVE",
"390 401 OFFCURVE",
"337 401 CURVE SMOOTH",
"237 401 LINE",
"237 275 LINE",
"340 275 LINE SMOOTH",
"405 275 OFFCURVE",
"442 254 OFFCURVE",
"442 208 CURVE SMOOTH",
"442 163 OFFCURVE",
"399 130 OFFCURVE",
"330 130 CURVE SMOOTH",
"256 130 OFFCURVE",
"213 168 OFFCURVE",
"207 217 CURVE",
"36 217 LINE",
"36 64 OFFCURVE",
"182 -16 OFFCURVE",
"330 -16 CURVE SMOOTH"
);
}
);
width = 655;
}
);
unicode = 0033;
},
{
glyphname = four;
lastChange = "2019-04-14 20:13:24 +0000";
layers = (
{
background = {
paths = (
{
closed = 1;
nodes = (
"43 169 OFFCURVE",
"50 162 OFFCURVE",
"58 162 CURVE SMOOTH",
"66 162 OFFCURVE",
"73 169 OFFCURVE",
"73 177 CURVE SMOOTH",
"73 185 OFFCURVE",
"66 192 OFFCURVE",
"58 192 CURVE SMOOTH",
"50 192 OFFCURVE",
"43 185 OFFCURVE",
"43 177 CURVE SMOOTH"
);
},
{
closed = 1;
nodes = (
"252 439 OFFCURVE",
"259 432 OFFCURVE",
"267 432 CURVE SMOOTH",
"275 432 OFFCURVE",
"282 439 OFFCURVE",
"282 447 CURVE SMOOTH",
"282 455 OFFCURVE",
"275 462 OFFCURVE",
"267 462 CURVE SMOOTH",
"259 462 OFFCURVE",
"252 455 OFFCURVE",
"252 447 CURVE SMOOTH"
);
}
);
};
layerId = UUID0;
paths = (
{
closed = 1;
nodes = (
"30 192 LINE",
"30 162 LINE",
"350 162 LINE",
"350 0 LINE",
"386 0 LINE",
"386 162 LINE",
"491 162 LINE",
"491 192 LINE",
"386 192 LINE",
"386 618 LINE",
"357 618 LINE"
);
},
{
closed = 1;
nodes = (
"350 192 LINE",
"75 192 LINE",
"350 547 LINE"
);
}
);
width = 521;
},
{
background = {
paths = (
{
closed = 1;
nodes = (
"73 152 OFFCURVE",
"80 145 OFFCURVE",
"88 145 CURVE SMOOTH",
"96 145 OFFCURVE",
"103 152 OFFCURVE",
"103 160 CURVE SMOOTH",
"103 168 OFFCURVE",
"96 175 OFFCURVE",
"88 175 CURVE SMOOTH",
"80 175 OFFCURVE",
"73 168 OFFCURVE",
"73 160 CURVE SMOOTH"
);
},
{
closed = 1;
nodes = (
"73 152 OFFCURVE",
"80 145 OFFCURVE",
"88 145 CURVE SMOOTH",
"96 145 OFFCURVE",
"103 152 OFFCURVE",
"103 160 CURVE SMOOTH",
"103 168 OFFCURVE",
"96 175 OFFCURVE",
"88 175 CURVE SMOOTH",
"80 175 OFFCURVE",
"73 168 OFFCURVE",
"73 160 CURVE SMOOTH"
);
}
);
};
layerId = UUID1;
paths = (
{
closed = 1;
nodes = (
"18 254 LINE",
"18 134 LINE",
"352 134 LINE",
"352 0 LINE",
"510 0 LINE",
"510 134 LINE",
"627 134 LINE",
"627 273 LINE",
"510 273 LINE",
"510 676 LINE",
"352 676 LINE"
);
},
{
closed = 1;
nodes = (
"360 254 LINE",
"207 254 LINE",
"360 447 LINE"
);
}
);
width = 633;
}
);
unicode = 0034;
},
{
glyphname = five;
lastChange = "2019-04-17 01:47:57 +0000";
layers = (
{
background = {
paths = (
{
closed = 1;
nodes = (
"117 500 LINE",
"96 273 LINE",
"210 273 LINE SMOOTH",
"305 273 OFFCURVE",
"357 234 OFFCURVE",
"357 156 CURVE SMOOTH",
"357 79 OFFCURVE",
"308 21 OFFCURVE",
"220 21 CURVE SMOOTH",
"147 21 OFFCURVE",
"90 58 OFFCURVE",
"90 128 CURVE",
"60 128 LINE",
"60 39 OFFCURVE",
"140 -7 OFFCURVE",
"220 -7 CURVE SMOOTH",
"327 -7 OFFCURVE",
"390 61 OFFCURVE",
"390 156 CURVE SMOOTH",
"390 254 OFFCURVE",
"320 300 OFFCURVE",
"207 300 CURVE SMOOTH",
"181 300 OFFCURVE",
"147 297 OFFCURVE",
"121 292 CURVE",
"129 286 LINE",
"148 488 LINE",
"141 472 LINE",
"369 472 LINE",
"369 500 LINE"
);
},
{
closed = 1;
nodes = (
"117 500 LINE",
"96 273 LINE",
"210 273 LINE SMOOTH",
"305 273 OFFCURVE",
"357 234 OFFCURVE",
"357 156 CURVE SMOOTH",
"357 79 OFFCURVE",
"308 21 OFFCURVE",
"220 21 CURVE SMOOTH",
"147 21 OFFCURVE",
"90 58 OFFCURVE",
"90 128 CURVE",
"60 128 LINE",
"60 39 OFFCURVE",
"140 -7 OFFCURVE",
"220 -7 CURVE SMOOTH",
"327 -7 OFFCURVE",
"390 61 OFFCURVE",
"390 156 CURVE SMOOTH",
"390 254 OFFCURVE",
"320 300 OFFCURVE",
"207 300 CURVE SMOOTH",
"181 300 OFFCURVE",
"147 297 OFFCURVE",
"121 292 CURVE",
"129 286 LINE",
"148 488 LINE",
"141 472 LINE",
"369 472 LINE",
"369 500 LINE"
);
}
);
};
layerId = UUID0;
paths = (
{
closed = 1;
nodes = (
"397 -9 OFFCURVE",
"474 74 OFFCURVE",
"474 190 CURVE SMOOTH",
"474 309 OFFCURVE",
"389 364 OFFCURVE",
"252 364 CURVE SMOOTH",
"220 364 OFFCURVE",
"179 361 OFFCURVE",
"147 355 CURVE",
"157 347 LINE",
"180 593 LINE",
"171 573 LINE",
"448 573 LINE",
"448 607 LINE",
"142 607 LINE",
"117 332 LINE",
"255 332 LINE SMOOTH",
"371 332 OFFCURVE",
"434 284 OFFCURVE",
"434 190 CURVE SMOOTH",
"434 96 OFFCURVE",
"374 26 OFFCURVE",
"267 26 CURVE SMOOTH",
"179 26 OFFCURVE",
"109 70 OFFCURVE",
"109 156 CURVE",
"73 156 LINE",
"73 47 OFFCURVE",
"170 -9 OFFCURVE",
"267 -9 CURVE SMOOTH"
);
}
);
width = 547;
},
{
background = {
paths = (
{
closed = 1;
nodes = (
"88 552 LINE",
"62 253 LINE",
"227 253 LINE SMOOTH",
"295 253 OFFCURVE",
"324 227 OFFCURVE",
"324 185 CURVE SMOOTH",
"324 138 OFFCURVE",
"292 107 OFFCURVE",
"247 107 CURVE SMOOTH",
"204 107 OFFCURVE",
"175 129 OFFCURVE",
"175 175 CURVE",
"40 175 LINE",
"40 52 OFFCURVE",
"129 -13 OFFCURVE",
"247 -13 CURVE SMOOTH",
"376 -13 OFFCURVE",
"459 77 OFFCURVE",
"459 189 CURVE SMOOTH",
"459 272 OFFCURVE",
"398 350 OFFCURVE",
"284 350 CURVE SMOOTH",
"257 350 OFFCURVE",
"224 346 OFFCURVE",
"197 339 CURVE",
"205 329 LINE",
"219 466 LINE",
"194 432 LINE",
"444 432 LINE",
"444 552 LINE"
);
},
{
closed = 1;
nodes = (
"88 552 LINE",
"62 253 LINE",
"227 253 LINE SMOOTH",
"295 253 OFFCURVE",
"324 227 OFFCURVE",
"324 185 CURVE SMOOTH",
"324 138 OFFCURVE",
"292 107 OFFCURVE",
"247 107 CURVE SMOOTH",
"204 107 OFFCURVE",
"175 129 OFFCURVE",
"175 175 CURVE",
"40 175 LINE",
"40 52 OFFCURVE",
"129 -13 OFFCURVE",
"247 -13 CURVE SMOOTH",
"376 -13 OFFCURVE",
"459 77 OFFCURVE",
"459 189 CURVE SMOOTH",
"459 272 OFFCURVE",
"398 350 OFFCURVE",
"284 350 CURVE SMOOTH",
"257 350 OFFCURVE",
"224 346 OFFCURVE",
"197 339 CURVE",
"205 329 LINE",
"219 466 LINE",
"194 432 LINE",
"444 432 LINE",
"444 552 LINE"
);
}
);
};
layerId = UUID1;
paths = (
{
closed = 1;
nodes = (
"470 -16 OFFCURVE",
"578 94 OFFCURVE",
"578 230 CURVE SMOOTH",
"578 351 OFFCURVE",
"491 425 OFFCURVE",
"358 425 CURVE SMOOTH",
"326 425 OFFCURVE",
"272 420 OFFCURVE",
"239 412 CURVE",
"249 400 LINE",
"266 566 LINE",
"236 525 LINE",
"539 525 LINE",
"539 671 LINE",
"107 671 LINE",
"75 307 LINE",
"304 307 LINE SMOOTH",
"378 307 OFFCURVE",
"414 279 OFFCURVE",
"414 230 CURVE SMOOTH",
"414 173 OFFCURVE",
"368 130 OFFCURVE",
"313 130 CURVE SMOOTH",
"255 130 OFFCURVE",
"213 157 OFFCURVE",
"213 213 CURVE",
"49 213 LINE",
"53 68 OFFCURVE",
"151 -16 OFFCURVE",
"313 -16 CURVE SMOOTH"
);
}
);
width = 600;
}
);
unicode = 0035;
},
{
glyphname = six;
lastChange = "2019-04-17 01:48:16 +0000";
layers = (
{
layerId = UUID0;
paths = (
{
closed = 1;
nodes = (
"394 -9 OFFCURVE",
"470 62 OFFCURVE",
"470 171 CURVE SMOOTH",
"470 281 OFFCURVE",
"383 358 OFFCURVE",
"279 358 CURVE SMOOTH",
"187 358 OFFCURVE",
"102 311 OFFCURVE",
"101 169 CURVE",
"96 203 OFFCURVE",
"95 248 OFFCURVE",
"95 279 CURVE SMOOTH",
"95 467 OFFCURVE",
"168 582 OFFCURVE",
"295 582 CURVE SMOOTH",
"373 582 OFFCURVE",
"411 538 OFFCURVE",
"424 468 CURVE",
"467 468 LINE",
"452 556 OFFCURVE",
"391 616 OFFCURVE",
"295 616 CURVE SMOOTH",
"141 616 OFFCURVE",
"55 491 OFFCURVE",
"55 292 CURVE SMOOTH",
"55 125 OFFCURVE",
"141 -9 OFFCURVE",
"279 -9 CURVE SMOOTH"
);
},
{
closed = 1;
nodes = (
"191 26 OFFCURVE",
"128 80 OFFCURVE",
"128 171 CURVE SMOOTH",
"128 252 OFFCURVE",
"191 318 OFFCURVE",
"279 318 CURVE SMOOTH",
"368 318 OFFCURVE",
"430 262 OFFCURVE",
"430 171 CURVE SMOOTH",
"430 80 OFFCURVE",
"368 26 OFFCURVE",
"279 26 CURVE SMOOTH"
);
}
);
width = 537;
},
{
layerId = UUID1;
paths = (
{
closed = 1;
nodes = (
"497 -17 OFFCURVE",
"603 73 OFFCURVE",
"603 203 CURVE SMOOTH",
"603 328 OFFCURVE",
"519 419 OFFCURVE",
"388 419 CURVE SMOOTH",
"307 419 OFFCURVE",
"228 386 OFFCURVE",
"204 273 CURVE",
"203 287 OFFCURVE",
"202 301 OFFCURVE",
"202 316 CURVE SMOOTH",
"202 453 OFFCURVE",
"260 541 OFFCURVE",
"351 541 CURVE SMOOTH",
"396 541 OFFCURVE",
"422 515 OFFCURVE",
"426 473 CURVE",
"594 473 LINE",
"594 601 OFFCURVE",
"491 686 OFFCURVE",
"345 686 CURVE SMOOTH",
"169 686 OFFCURVE",
"43 560 OFFCURVE",
"43 324 CURVE SMOOTH",
"43 123 OFFCURVE",
"168 -17 OFFCURVE",
"345 -17 CURVE SMOOTH"
);
},
{
closed = 1;
nodes = (
"296 130 OFFCURVE",
"252 163 OFFCURVE",
"252 211 CURVE SMOOTH",
"252 262 OFFCURVE",
"296 292 OFFCURVE",
"344 292 CURVE SMOOTH",
"394 292 OFFCURVE",
"439 262 OFFCURVE",
"439 211 CURVE SMOOTH",
"439 163 OFFCURVE",
"394 130 OFFCURVE",
"345 130 CURVE SMOOTH"
);
}
);
width = 643;
}
);
unicode = 0036;
},
{
glyphname = seven;
lastChange = "2019-04-17 01:48:23 +0000";
layers = (
{
layerId = UUID0;
paths = (
{
closed = 1;
nodes = (
"122 0 LINE",
"423 577 LINE",
"423 607 LINE",
"24 607 LINE",
"24 573 LINE",
"379 573 LINE",
"74 0 LINE"
);
}
);
width = 441;
},
{
layerId = UUID1;
paths = (
{
closed = 1;
nodes = (
"245 0 LINE",
"509 515 LINE",
"509 671 LINE",
"24 671 LINE",
"24 515 LINE",
"322 515 LINE",
"28 0 LINE"
);
}
);
width = 527;
}
);
unicode = 0037;
},
{
glyphname = eight;
lastChange = "2019-04-17 01:48:43 +0000";
layers = (
{
background = {
paths = (
{
closed = 1;
nodes = (
"132 507 OFFCURVE",
"67 449 OFFCURVE",
"67 379 CURVE SMOOTH",
"67 314 OFFCURVE",
"124 279 OFFCURVE",
"172 261 CURVE SMOOTH",
"305 211 LINE SMOOTH",
"360 191 OFFCURVE",
"396 163 OFFCURVE",
"396 117 CURVE SMOOTH",
"396 59 OFFCURVE",
"332 21 OFFCURVE",
"239 21 CURVE SMOOTH",
"148 21 OFFCURVE",
"83 60 OFFCURVE",
"83 133 CURVE SMOOTH",
"83 193 OFFCURVE",
"143 249 OFFCURVE",
"238 249 CURVE",
"238 264 LINE",
"230 265 OFFCURVE",
"220 265 OFFCURVE",
"211 265 CURVE SMOOTH",
"118 265 OFFCURVE",
"50 214 OFFCURVE",
"50 133 CURVE SMOOTH",
"50 51 OFFCURVE",
"134 -7 OFFCURVE",
"239 -7 CURVE SMOOTH",
"358 -7 OFFCURVE",
"429 42 OFFCURVE",
"429 117 CURVE SMOOTH",
"429 179 OFFCURVE",
"389 213 OFFCURVE",
"316 240 CURVE SMOOTH",
"188 288 LINE SMOOTH",
"134 308 OFFCURVE",
"100 331 OFFCURVE",
"100 379 CURVE SMOOTH",
"100 433 OFFCURVE",
"159 479 OFFCURVE",
"239 479 CURVE SMOOTH",
"321 479 OFFCURVE",
"376 433 OFFCURVE",
"376 373 CURVE SMOOTH",
"376 309 OFFCURVE",
"319 265 OFFCURVE",
"241 265 CURVE",
"241 251 LINE",
"250 249 OFFCURVE",
"259 249 OFFCURVE",
"268 249 CURVE SMOOTH",
"363 249 OFFCURVE",
"409 307 OFFCURVE",
"409 373 CURVE SMOOTH",
"409 449 OFFCURVE",
"341 507 OFFCURVE",
"239 507 CURVE SMOOTH"
);
}
);
};
layerId = UUID0;
paths = (
{
closed = 1;
nodes = (
"435 -9 OFFCURVE",
"521 51 OFFCURVE",
"521 142 CURVE SMOOTH",
"521 217 OFFCURVE",
"473 259 OFFCURVE",
"384 292 CURVE SMOOTH",
"228 350 LINE SMOOTH",
"163 374 OFFCURVE",
"122 402 OFFCURVE",
"122 460 CURVE SMOOTH",
"122 526 OFFCURVE",
"193 582 OFFCURVE",
"290 582 CURVE SMOOTH",
"390 582 OFFCURVE",
"457 526 OFFCURVE",
"457 453 CURVE SMOOTH",
"457 375 OFFCURVE",
"388 322 OFFCURVE",
"293 322 CURVE",
"293 305 LINE",
"304 303 OFFCURVE",
"315 303 OFFCURVE",
"326 303 CURVE SMOOTH",
"441 303 OFFCURVE",
"497 373 OFFCURVE",
"497 453 CURVE SMOOTH",
"497 546 OFFCURVE",
"414 616 OFFCURVE",
"290 616 CURVE SMOOTH",
"160 616 OFFCURVE",
"81 546 OFFCURVE",
"81 460 CURVE SMOOTH",
"81 382 OFFCURVE",
"151 339 OFFCURVE",
"209 317 CURVE SMOOTH",
"371 256 LINE SMOOTH",
"437 232 OFFCURVE",
"481 198 OFFCURVE",
"481 142 CURVE SMOOTH",
"481 72 OFFCURVE",
"403 26 OFFCURVE",
"290 26 CURVE SMOOTH",
"180 26 OFFCURVE",
"101 73 OFFCURVE",
"101 162 CURVE SMOOTH",
"101 234 OFFCURVE",
"174 303 OFFCURVE",
"289 303 CURVE",
"289 321 LINE",
"279 322 OFFCURVE",
"267 322 OFFCURVE",
"256 322 CURVE SMOOTH",
"143 322 OFFCURVE",
"61 260 OFFCURVE",
"61 162 CURVE SMOOTH",
"61 62 OFFCURVE",
"163 -9 OFFCURVE",
"290 -9 CURVE SMOOTH"
);
}
);
width = 582;
},
{
background = {
paths = (
{
closed = 1;
nodes = (
"135 565 OFFCURVE",
"54 509 OFFCURVE",
"54 410 CURVE SMOOTH",
"54 326 OFFCURVE",
"129 272 OFFCURVE",
"188 249 CURVE SMOOTH",
"350 186 LINE SMOOTH",
"376 176 OFFCURVE",
"390 164 OFFCURVE",
"390 147 CURVE SMOOTH",
"390 124 OFFCURVE",
"361 107 OFFCURVE",
"280 107 CURVE SMOOTH",
"222 107 OFFCURVE",
"170 130 OFFCURVE",
"170 162 CURVE SMOOTH",
"170 194 OFFCURVE",
"216 216 OFFCURVE",
"273 216 CURVE",
"273 248 LINE",
"237 258 OFFCURVE",
"216 264 OFFCURVE",
"186 264 CURVE SMOOTH",
"101 264 OFFCURVE",
"35 223 OFFCURVE",
"35 149 CURVE SMOOTH",
"35 58 OFFCURVE",
"125 -13 OFFCURVE",
"280 -13 CURVE SMOOTH",
"436 -13 OFFCURVE",
"525 58 OFFCURVE",
"525 154 CURVE SMOOTH",
"525 230 OFFCURVE",
"479 267 OFFCURVE",
"398 299 CURVE SMOOTH",
"225 368 LINE SMOOTH",
"200 378 OFFCURVE",
"189 387 OFFCURVE",
"189 403 CURVE SMOOTH",
"189 429 OFFCURVE",
"230 445 OFFCURVE",
"280 445 CURVE SMOOTH",
"333 445 OFFCURVE",
"371 427 OFFCURVE",
"371 392 CURVE SMOOTH",
"371 360 OFFCURVE",
"328 340 OFFCURVE",
"286 340 CURVE",
"286 305 LINE",
"317 294 OFFCURVE",
"336 289 OFFCURVE",
"362 289 CURVE SMOOTH",
"451 289 OFFCURVE",
"506 342 OFFCURVE",
"506 402 CURVE SMOOTH",
"506 496 OFFCURVE",
"404 565 OFFCURVE",
"280 565 CURVE SMOOTH"
);
}
);
};
layerId = UUID1;
paths = (
{
closed = 1;
nodes = (
"530 -16 OFFCURVE",
"638 70 OFFCURVE",
"638 187 CURVE SMOOTH",
"638 279 OFFCURVE",
"582 321 OFFCURVE",
"484 360 CURVE SMOOTH",
"275 442 LINE SMOOTH",
"243 456 OFFCURVE",
"230 470 OFFCURVE",
"230 490 CURVE SMOOTH",
"230 521 OFFCURVE",
"279 541 OFFCURVE",
"340 541 CURVE SMOOTH",
"405 541 OFFCURVE",
"451 519 OFFCURVE",
"451 476 CURVE SMOOTH",
"451 437 OFFCURVE",
"399 413 OFFCURVE",
"347 413 CURVE",
"347 371 LINE",
"385 357 OFFCURVE",
"408 351 OFFCURVE",
"440 351 CURVE SMOOTH",
"548 351 OFFCURVE",
"615 416 OFFCURVE",
"615 488 CURVE SMOOTH",
"615 603 OFFCURVE",
"491 686 OFFCURVE",
"340 686 CURVE SMOOTH",
"164 686 OFFCURVE",
"66 618 OFFCURVE",
"66 498 CURVE SMOOTH",
"66 396 OFFCURVE",
"157 334 OFFCURVE",
"228 306 CURVE SMOOTH",
"425 230 LINE SMOOTH",
"457 217 OFFCURVE",
"474 199 OFFCURVE",
"474 179 CURVE SMOOTH",
"474 151 OFFCURVE",
"439 130 OFFCURVE",
"340 130 CURVE SMOOTH",
"270 130 OFFCURVE",
"207 158 OFFCURVE",
"207 200 CURVE SMOOTH",
"207 239 OFFCURVE",
"262 267 OFFCURVE",
"332 267 CURVE",
"332 301 LINE",
"288 313 OFFCURVE",
"262 321 OFFCURVE",
"226 321 CURVE SMOOTH",
"123 321 OFFCURVE",
"43 271 OFFCURVE",
"43 181 CURVE SMOOTH",
"43 70 OFFCURVE",
"152 -16 OFFCURVE",
"340 -16 CURVE SMOOTH"
);
}
);
width = 680;
}
);
unicode = 0038;
},
{
glyphname = nine;
lastChange = "2019-04-17 01:50:15 +0000";
layers = (
{
background = {
paths = (
{
closed = 1;
nodes = (
"369 385 LINE",
"358 443 OFFCURVE",
"327 479 OFFCURVE",
"263 479 CURVE SMOOTH",
"158 479 OFFCURVE",
"98 384 OFFCURVE",
"98 230 CURVE SMOOTH",
"98 204 OFFCURVE",
"99 167 OFFCURVE",
"103 139 CURVE",
"104 256 OFFCURVE",
"174 295 OFFCURVE",
"250 295 CURVE SMOOTH",
"335 295 OFFCURVE",
"407 231 OFFCURVE",
"407 141 CURVE SMOOTH",
"407 51 OFFCURVE",
"344 -7 OFFCURVE",
"250 -7 CURVE SMOOTH",
"136 -7 OFFCURVE",
"65 103 OFFCURVE",
"65 240 CURVE SMOOTH",
"65 404 OFFCURVE",
"136 507 OFFCURVE",
"263 507 CURVE SMOOTH",
"342 507 OFFCURVE",
"392 458 OFFCURVE",
"404 385 CURVE"
);
},
{
closed = 1;
nodes = (
"177 262 OFFCURVE",
"125 207 OFFCURVE",
"125 141 CURVE SMOOTH",
"125 66 OFFCURVE",
"177 21 OFFCURVE",
"250 21 CURVE SMOOTH",
"323 21 OFFCURVE",
"374 66 OFFCURVE",
"374 141 CURVE SMOOTH",
"374 216 OFFCURVE",
"323 262 OFFCURVE",
"250 262 CURVE"
);
}
);
};
layerId = UUID0;
paths = (
{
closed = 1;
nodes = (
"428 -9 OFFCURVE",
"495 115 OFFCURVE",
"495 316 CURVE SMOOTH",
"495 501 OFFCURVE",
"403 616 OFFCURVE",
"270 616 CURVE SMOOTH",
"156 616 OFFCURVE",
"79 546 OFFCURVE",
"79 436 CURVE SMOOTH",
"79 327 OFFCURVE",
"166 249 OFFCURVE",
"270 249 CURVE SMOOTH",
"373 249 OFFCURVE",
"440 313 OFFCURVE",
"448 419 CURVE",
"453 384 OFFCURVE",
"454 360 OFFCURVE",
"454 328 CURVE SMOOTH",
"454 141 OFFCURVE",
"397 26 OFFCURVE",
"270 26 CURVE SMOOTH",
"173 26 OFFCURVE",
"119 86 OFFCURVE",
"119 180 CURVE",
"80 180 LINE",
"80 73 OFFCURVE",
"156 -9 OFFCURVE",
"270 -9 CURVE SMOOTH"
);
},
{
closed = 1;
nodes = (
"181 289 OFFCURVE",
"119 345 OFFCURVE",
"119 436 CURVE SMOOTH",
"119 527 OFFCURVE",
"181 582 OFFCURVE",
"270 582 CURVE SMOOTH",
"358 582 OFFCURVE",
"422 527 OFFCURVE",
"422 436 CURVE SMOOTH",
"422 356 OFFCURVE",
"358 289 OFFCURVE",
"270 289 CURVE SMOOTH"
);
}
);
width = 549;
},
{
background = {
paths = (
{
closed = 1;
nodes = (
"178 163 LINE",
"182 128 OFFCURVE",
"203 107 OFFCURVE",
"239 107 CURVE SMOOTH",
"314 107 OFFCURVE",
"362 179 OFFCURVE",
"362 291 CURVE SMOOTH",
"362 303 OFFCURVE",
"361 315 OFFCURVE",
"360 326 CURVE",
"340 234 OFFCURVE",
"275 207 OFFCURVE",
"209 207 CURVE SMOOTH",
"102 207 OFFCURVE",
"33 281 OFFCURVE",
"33 384 CURVE SMOOTH",
"33 491 OFFCURVE",
"120 565 OFFCURVE",
"244 565 CURVE SMOOTH",
"390 565 OFFCURVE",
"493 450 OFFCURVE",
"493 284 CURVE SMOOTH",
"493 91 OFFCURVE",
"389 -13 OFFCURVE",
"244 -13 CURVE SMOOTH",
"125 -13 OFFCURVE",
"40 57 OFFCURVE",
"40 163 CURVE"
);
},
{
closed = 1;
nodes = (
"284 311 OFFCURVE",
"321 335 OFFCURVE",
"321 377 CURVE SMOOTH",
"321 417 OFFCURVE",
"284 444 OFFCURVE",
"244 444 CURVE SMOOTH",
"204 444 OFFCURVE",
"168 417 OFFCURVE",
"168 377 CURVE SMOOTH",
"168 335 OFFCURVE",
"204 311 OFFCURVE",
"245 311 CURVE"
);
}
);
};
layerId = UUID1;
paths = (
{
closed = 1;
nodes = (
"499 -16 OFFCURVE",
"599 125 OFFCURVE",
"599 345 CURVE SMOOTH",
"599 547 OFFCURVE",
"462 686 OFFCURVE",
"296 686 CURVE SMOOTH",
"146 686 OFFCURVE",
"40 597 OFFCURVE",
"40 467 CURVE SMOOTH",
"40 341 OFFCURVE",
"124 252 OFFCURVE",
"254 252 CURVE SMOOTH",
"334 252 OFFCURVE",
"413 284 OFFCURVE",
"437 396 CURVE",
"439 383 OFFCURVE",
"440 368 OFFCURVE",
"440 354 CURVE SMOOTH",
"440 222 OFFCURVE",
"405 130 OFFCURVE",
"305 130 CURVE SMOOTH",
"261 130 OFFCURVE",
"221 156 OFFCURVE",
"216 198 CURVE",
"49 198 LINE",
"49 69 OFFCURVE",
"166 -16 OFFCURVE",
"311 -16 CURVE SMOOTH"
);
},
{
closed = 1;
nodes = (
"248 378 OFFCURVE",
"204 407 OFFCURVE",
"204 458 CURVE SMOOTH",
"204 507 OFFCURVE",
"248 539 OFFCURVE",
"296 539 CURVE SMOOTH",
"345 539 OFFCURVE",
"390 507 OFFCURVE",
"390 458 CURVE SMOOTH",
"390 407 OFFCURVE",
"345 378 OFFCURVE",
"298 378 CURVE SMOOTH"
);
}
);
width = 642;
}
);
unicode = 0039;
},
{
glyphname = zero.prop;
lastChange = "2019-04-17 21:58:48 +0000";
layers = (
{
layerId = UUID0;
paths = (
{
closed = 1;
nodes = (
"132 516 OFFCURVE",
"55 436 OFFCURVE",
"55 254 CURVE SMOOTH",
"55 72 OFFCURVE",
"132 -9 OFFCURVE",
"245 -9 CURVE SMOOTH",
"358 -9 OFFCURVE",
"436 72 OFFCURVE",
"436 254 CURVE SMOOTH",
"436 436 OFFCURVE",
"358 516 OFFCURVE",
"245 516 CURVE SMOOTH"
);
},
{
closed = 1;
nodes = (
"350 486 OFFCURVE",
"396 400 OFFCURVE",
"396 254 CURVE SMOOTH",
"396 108 OFFCURVE",
"350 22 OFFCURVE",
"245 22 CURVE SMOOTH",
"141 22 OFFCURVE",
"95 108 OFFCURVE",
"95 254 CURVE SMOOTH",
"95 400 OFFCURVE",
"141 486 OFFCURVE",
"245 486 CURVE SMOOTH"
);
}
);
width = 491;
},
{
layerId = UUID1;
paths = (
{
closed = 1;
nodes = (
"154 618 OFFCURVE",
"43 499 OFFCURVE",
"43 301 CURVE SMOOTH",
"43 103 OFFCURVE",
"154 -16 OFFCURVE",
"306 -16 CURVE SMOOTH",
"458 -16 OFFCURVE",
"567 103 OFFCURVE",
"567 301 CURVE SMOOTH",
"567 499 OFFCURVE",
"458 618 OFFCURVE",
"306 618 CURVE SMOOTH"
);
},
{
closed = 1;
nodes = (
"373 473 OFFCURVE",
"409 423 OFFCURVE",
"409 301 CURVE SMOOTH",
"409 180 OFFCURVE",
"373 130 OFFCURVE",
"306 130 CURVE SMOOTH",
"239 130 OFFCURVE",
"203 180 OFFCURVE",
"203 301 CURVE SMOOTH",
"203 423 OFFCURVE",
"239 473 OFFCURVE",
"306 473 CURVE SMOOTH"
);
}
);
width = 610;
}
);
},
{
glyphname = one.prop;
lastChange = "2019-04-14 20:13:24 +0000";
layers = (
{
layerId = UUID0;
paths = (
{
closed = 1;
nodes = (
"131 480 OFFCURVE",
"94 464 OFFCURVE",
"55 458 CURVE",
"55 419 LINE",
"91 422 OFFCURVE",
"129 437 OFFCURVE",
"158 464 CURVE",
"158 0 LINE",
"194 0 LINE",
"194 508 LINE",
"158 508 LINE"
);
}
);
width = 304;
},
{
layerId = UUID1;
paths = (
{
closed = 1;
nodes = (
"128 567 OFFCURVE",
"83 554 OFFCURVE",
"36 549 CURVE",
"36 397 LINE",
"68 397 OFFCURVE",
"100 401 OFFCURVE",
"139 412 CURVE",
"139 0 LINE",
"299 0 LINE",
"299 604 LINE",
"182 604 LINE"
);
}
);
width = 384;
}
);
},
{
glyphname = two.prop;
lastChange = "2019-04-17 21:59:02 +0000";
layers = (
{
background = {
paths = (
{
closed = 1;
nodes = (
"154 146 OFFCURVE",
"161 139 OFFCURVE",
"169 139 CURVE SMOOTH",
"177 139 OFFCURVE",
"184 146 OFFCURVE",
"184 154 CURVE SMOOTH",
"184 162 OFFCURVE",
"177 169 OFFCURVE",
"169 169 CURVE SMOOTH",
"161 169 OFFCURVE",
"154 162 OFFCURVE",
"154 154 CURVE SMOOTH"
);
},
{
closed = 1;
nodes = (
"252 178 OFFCURVE",
"259 171 OFFCURVE",
"267 171 CURVE SMOOTH",
"275 171 OFFCURVE",
"282 178 OFFCURVE",
"282 186 CURVE SMOOTH",
"282 194 OFFCURVE",
"275 201 OFFCURVE",
"267 201 CURVE SMOOTH",
"259 201 OFFCURVE",
"252 194 OFFCURVE",
"252 186 CURVE SMOOTH"
);
}
);
};
layerId = UUID0;
paths = (
{
closed = 1;
nodes = (
"464 0 LINE",
"464 35 LINE",
"106 35 LINE",
"106 77 LINE SMOOTH",
"106 136 OFFCURVE",
"137 185 OFFCURVE",
"221 204 CURVE SMOOTH",
"338 231 LINE SMOOTH",
"423 250 OFFCURVE",
"471 290 OFFCURVE",
"471 368 CURVE SMOOTH",
"471 442 OFFCURVE",
"394 516 OFFCURVE",
"282 516 CURVE SMOOTH",
"158 516 OFFCURVE",
"90 459 OFFCURVE",
"80 375 CURVE",
"120 375 LINE",
"130 446 OFFCURVE",
"190 482 OFFCURVE",
"282 482 CURVE SMOOTH",
"377 482 OFFCURVE",
"431 431 OFFCURVE",
"431 375 CURVE SMOOTH",
"431 312 OFFCURVE",
"391 279 OFFCURVE",
"324 265 CURVE SMOOTH",
"211 239 LINE SMOOTH",
"117 219 OFFCURVE",
"69 171 OFFCURVE",
"69 69 CURVE SMOOTH",
"69 0 LINE"
);
}
);
width = 553;
},
{
background = {
paths = (
{
closed = 1;
nodes = (
"207 176 OFFCURVE",
"214 169 OFFCURVE",
"222 169 CURVE SMOOTH",
"230 169 OFFCURVE",
"237 176 OFFCURVE",
"237 184 CURVE SMOOTH",
"237 192 OFFCURVE",
"230 199 OFFCURVE",
"222 199 CURVE SMOOTH",
"214 199 OFFCURVE",
"207 192 OFFCURVE",
"207 184 CURVE SMOOTH"
);
},
{
closed = 1;
nodes = (
"207 176 OFFCURVE",
"214 169 OFFCURVE",
"222 169 CURVE SMOOTH",
"230 169 OFFCURVE",
"237 176 OFFCURVE",
"237 184 CURVE SMOOTH",
"237 192 OFFCURVE",
"230 199 OFFCURVE",
"222 199 CURVE SMOOTH",
"214 199 OFFCURVE",
"207 192 OFFCURVE",
"207 184 CURVE SMOOTH"
);
}
);
};
layerId = UUID1;
paths = (
{
closed = 1;
nodes = (
"569 0 LINE",
"569 146 LINE",
"215 146 LINE",
"215 160 LINE SMOOTH",
"215 182 OFFCURVE",
"234 193 OFFCURVE",
"276 204 CURVE SMOOTH",
"375 230 LINE SMOOTH",
"508 264 OFFCURVE",
"559 321 OFFCURVE",
"559 422 CURVE SMOOTH",
"559 537 OFFCURVE",
"465 618 OFFCURVE",
"320 618 CURVE SMOOTH",
"176 618 OFFCURVE",
"66 556 OFFCURVE",
"66 413 CURVE",
"244 413 LINE",
"249 459 OFFCURVE",
"283 479 OFFCURVE",
"329 479 CURVE SMOOTH",
"373 479 OFFCURVE",
"401 454 OFFCURVE",
"401 420 CURVE SMOOTH",
"401 382 OFFCURVE",
"380 355 OFFCURVE",
"304 335 CURVE SMOOTH",
"219 313 LINE SMOOTH",
"106 284 OFFCURVE",
"55 231 OFFCURVE",
"55 113 CURVE SMOOTH",
"55 0 LINE"
);
}
);
width = 617;
}
);
},
{
glyphname = three.prop;
lastChange = "2019-04-17 21:59:30 +0000";
layers = (
{
layerId = UUID0;
paths = (
{
closed = 1;
nodes = (
"372 -108 OFFCURVE",
"460 -38 OFFCURVE",
"460 64 CURVE SMOOTH",
"460 147 OFFCURVE",
"402 216 OFFCURVE",
"321 236 CURVE",
"392 260 OFFCURVE",
"434 295 OFFCURVE",
"434 361 CURVE SMOOTH",
"434 453 OFFCURVE",
"354 516 OFFCURVE",
"244 516 CURVE SMOOTH",
"156 516 OFFCURVE",
"78 481 OFFCURVE",
"60 380 CURVE",
"96 380 LINE",
"118 459 OFFCURVE",
"175 482 OFFCURVE",
"244 482 CURVE SMOOTH",
"338 482 OFFCURVE",
"394 431 OFFCURVE",
"394 361 CURVE SMOOTH",
"394 282 OFFCURVE",
"321 245 OFFCURVE",
"203 245 CURVE SMOOTH",
"180 245 LINE",
"180 215 LINE",
"234 215 LINE SMOOTH",
"371 215 OFFCURVE",
"420 139 OFFCURVE",
"420 64 CURVE SMOOTH",
"420 -15 OFFCURVE",
"346 -74 OFFCURVE",
"242 -74 CURVE SMOOTH",
"142 -74 OFFCURVE",
"73 -24 OFFCURVE",
"73 80 CURVE",
"36 80 LINE",
"36 -44 OFFCURVE",
"126 -108 OFFCURVE",
"242 -108 CURVE SMOOTH"
);
}
);
width = 533;
},
{
layerId = UUID1;
paths = (
{
closed = 1;
nodes = (
"450 -125 OFFCURVE",
"556 -29 OFFCURVE",
"556 94 CURVE SMOOTH",
"556 177 OFFCURVE",
"516 245 OFFCURVE",
"435 282 CURVE",
"499 310 OFFCURVE",
"535 360 OFFCURVE",
"535 430 CURVE SMOOTH",
"535 535 OFFCURVE",
"443 618 OFFCURVE",
"287 618 CURVE SMOOTH",
"131 618 OFFCURVE",
"32 558 OFFCURVE",
"19 408 CURVE",
"192 408 LINE",
"192 448 OFFCURVE",
"232 485 OFFCURVE",
"290 485 CURVE SMOOTH",
"343 485 OFFCURVE",
"377 454 OFFCURVE",
"377 411 CURVE SMOOTH",
"377 362 OFFCURVE",
"344 329 OFFCURVE",
"290 329 CURVE SMOOTH",
"209 329 LINE",
"209 203 LINE",
"283 203 LINE SMOOTH",
"346 203 OFFCURVE",
"396 168 OFFCURVE",
"396 109 CURVE SMOOTH",
"396 51 OFFCURVE",
"352 9 OFFCURVE",
"289 9 CURVE SMOOTH",
"230 9 OFFCURVE",
"182 35 OFFCURVE",
"175 103 CURVE",
"12 103 LINE",
"12 -56 OFFCURVE",
"147 -125 OFFCURVE",
"289 -125 CURVE SMOOTH"
);
}
);
width = 617;
}
);
},
{
glyphname = four.prop;
lastChange = "2019-04-17 21:59:40 +0000";
layers = (
{
layerId = UUID0;
paths = (
{
closed = 1;
nodes = (
"386 -102 LINE",
"386 60 LINE",
"491 60 LINE",
"491 90 LINE",
"386 90 LINE",
"386 516 LINE",
"357 516 LINE",
"30 90 LINE",
"30 60 LINE",
"350 60 LINE",
"350 -102 LINE"
);
},
{
closed = 1;
nodes = (
"350 445 LINE",
"350 90 LINE",
"75 90 LINE"
);
}
);
width = 521;
},
{
layerId = UUID1;
paths = (
{
closed = 1;
nodes = (
"507 -111 LINE",
"507 43 LINE",
"623 43 LINE",
"623 182 LINE",
"507 182 LINE",
"507 604 LINE",
"346 604 LINE",
"12 163 LINE",
"12 43 LINE",
"346 43 LINE",
"346 -111 LINE"
);
},
{
closed = 1;
nodes = (
"354 378 LINE",
"354 163 LINE",
"185 163 LINE"
);
}
);
width = 635;
}
);
},
{
glyphname = five.prop;
lastChange = "2019-04-17 21:59:48 +0000";
layers = (
{
background = {
paths = (
{
closed = 1;
nodes = (
"129 258 OFFCURVE",
"159 228 OFFCURVE",
"195 228 CURVE SMOOTH",
"231 228 OFFCURVE",
"261 258 OFFCURVE",
"261 294 CURVE SMOOTH",
"261 330 OFFCURVE",
"231 360 OFFCURVE",
"195 360 CURVE SMOOTH",
"159 360 OFFCURVE",
"129 330 OFFCURVE",
"129 294 CURVE SMOOTH"
);
}
);
};
layerId = UUID0;
paths = (
{
closed = 1;
nodes = (
"383 -108 OFFCURVE",
"474 -21 OFFCURVE",
"474 95 CURVE SMOOTH",
"474 214 OFFCURVE",
"389 283 OFFCURVE",
"252 283 CURVE SMOOTH",
"220 283 OFFCURVE",
"179 279 OFFCURVE",
"147 273 CURVE",
"157 266 LINE",
"180 493 LINE",
"171 474 LINE",
"448 474 LINE",
"448 508 LINE",
"142 508 LINE",
"117 250 LINE",
"255 250 LINE SMOOTH",
"371 250 OFFCURVE",
"434 190 OFFCURVE",
"434 95 CURVE SMOOTH",
"434 1 OFFCURVE",
"360 -74 OFFCURVE",
"253 -74 CURVE SMOOTH",
"164 -74 OFFCURVE",
"109 -29 OFFCURVE",
"109 56 CURVE",
"73 56 LINE",
"73 -52 OFFCURVE",
"156 -108 OFFCURVE",
"253 -108 CURVE SMOOTH"
);
}
);
width = 547;
},
{
background = {
paths = (
{
closed = 1;
nodes = (
"74 263 OFFCURVE",
"104 233 OFFCURVE",
"140 233 CURVE SMOOTH",
"176 233 OFFCURVE",
"206 263 OFFCURVE",
"206 299 CURVE SMOOTH",
"206 335 OFFCURVE",
"176 365 OFFCURVE",
"140 365 CURVE SMOOTH",
"104 365 OFFCURVE",
"74 335 OFFCURVE",
"74 299 CURVE SMOOTH"
);
}
);
};
layerId = UUID1;
paths = (
{
closed = 1;
nodes = (
"451 -125 OFFCURVE",
"569 -21 OFFCURVE",
"569 126 CURVE SMOOTH",
"569 260 OFFCURVE",
"479 352 OFFCURVE",
"338 352 CURVE SMOOTH",
"299 352 OFFCURVE",
"272 347 OFFCURVE",
"236 335 CURVE",
"243 324 LINE",
"261 505 LINE",
"232 473 LINE",
"532 473 LINE",
"532 618 LINE",
"112 618 LINE",
"78 225 LINE",
"286 225 LINE SMOOTH",
"372 225 OFFCURVE",
"411 188 OFFCURVE",
"411 126 CURVE SMOOTH",
"411 60 OFFCURVE",
"363 21 OFFCURVE",
"304 21 CURVE SMOOTH",
"248 21 OFFCURVE",
"207 52 OFFCURVE",
"207 111 CURVE",
"49 111 LINE",
"49 -41 OFFCURVE",
"169 -125 OFFCURVE",
"300 -125 CURVE SMOOTH"
);
}
);
width = 611;
}
);
},
{
glyphname = six.prop;
lastChange = "2019-04-14 20:13:24 +0000";
layers = (
{
background = {
paths = (
{
closed = 1;
nodes = (
"353 395 LINE",
"342 453 OFFCURVE",
"319 479 OFFCURVE",
"261 479 CURVE SMOOTH",
"150 479 OFFCURVE",
"78 372 OFFCURVE",
"78 230 CURVE SMOOTH",
"78 204 OFFCURVE",
"79 167 OFFCURVE",
"83 139 CURVE",
"84 256 OFFCURVE",
"154 295 OFFCURVE",
"230 295 CURVE SMOOTH",
"315 295 OFFCURVE",
"387 231 OFFCURVE",
"387 141 CURVE SMOOTH",
"387 51 OFFCURVE",
"324 -7 OFFCURVE",
"230 -7 CURVE SMOOTH",
"116 -7 OFFCURVE",
"45 103 OFFCURVE",
"45 240 CURVE SMOOTH",
"45 395 OFFCURVE",
"128 507 OFFCURVE",
"261 507 CURVE SMOOTH",
"334 507 OFFCURVE",
"376 468 OFFCURVE",
"388 395 CURVE"
);
},
{
closed = 1;
nodes = (
"157 262 OFFCURVE",
"105 207 OFFCURVE",
"105 141 CURVE SMOOTH",
"105 66 OFFCURVE",
"157 21 OFFCURVE",
"230 21 CURVE SMOOTH",
"303 21 OFFCURVE",
"354 66 OFFCURVE",
"354 141 CURVE SMOOTH",
"354 216 OFFCURVE",
"303 262 OFFCURVE",
"230 262 CURVE SMOOTH"
);
}
);
};
components = (
{
name = six;
}
);
layerId = UUID0;
width = 537;
},
{
background = {
paths = (
{
closed = 1;
nodes = (
"350 417 LINE",
"345 456 OFFCURVE",
"322 479 OFFCURVE",
"289 479 CURVE SMOOTH",
"212 479 OFFCURVE",
"163 391 OFFCURVE",
"163 260 CURVE SMOOTH",
"163 248 OFFCURVE",
"164 236 OFFCURVE",
"165 225 CURVE",
"180 318 OFFCURVE",
"243 356 OFFCURVE",
"315 356 CURVE SMOOTH",
"423 356 OFFCURVE",
"496 280 OFFCURVE",
"496 177 CURVE SMOOTH",
"496 67 OFFCURVE",
"409 -13 OFFCURVE",
"284 -13 CURVE SMOOTH",
"138 -13 OFFCURVE",
"35 101 OFFCURVE",
"35 281 CURVE SMOOTH",
"35 479 OFFCURVE",
"139 599 OFFCURVE",
"288 599 CURVE SMOOTH",
"404 599 OFFCURVE",
"488 523 OFFCURVE",
"488 417 CURVE"
);
},
{
closed = 1;
nodes = (
"244 252 OFFCURVE",
"207 216 OFFCURVE",
"207 174 CURVE SMOOTH",
"207 134 OFFCURVE",
"244 102 OFFCURVE",
"284 102 CURVE SMOOTH",
"324 102 OFFCURVE",
"361 134 OFFCURVE",
"361 174 CURVE SMOOTH",
"361 216 OFFCURVE",
"324 252 OFFCURVE",
"283 252 CURVE SMOOTH"
);
}
);
};
components = (
{
name = six;
}
);
layerId = UUID1;
width = 643;
}
);
},
{
glyphname = seven.prop;
lastChange = "2019-04-14 20:13:24 +0000";
layers = (
{
layerId = UUID0;
paths = (
{
closed = 1;
nodes = (
"24 482 LINE",
"379 482 LINE",
"74 -91 LINE",
"122 -91 LINE",
"423 486 LINE",
"423 516 LINE",
"24 516 LINE"
);
}
);
width = 441;
},
{
layerId = UUID1;
paths = (
{
closed = 1;
nodes = (
"24 479 LINE",
"349 479 LINE",
"17 -111 LINE",
"210 -111 LINE",
"509 479 LINE",
"509 618 LINE",
"24 618 LINE"
);
}
);
width = 527;
}
);
},
{
glyphname = eight.prop;
lastChange = "2019-04-17 22:00:17 +0000";
layers = (
{
layerId = UUID0;
paths = (
{
closed = 1;
nodes = (
"435 -9 OFFCURVE",
"521 51 OFFCURVE",
"521 142 CURVE SMOOTH",
"521 217 OFFCURVE",
"473 259 OFFCURVE",
"384 292 CURVE SMOOTH",
"228 350 LINE SMOOTH",
"163 374 OFFCURVE",
"122 402 OFFCURVE",
"122 460 CURVE SMOOTH",
"122 526 OFFCURVE",
"193 582 OFFCURVE",
"290 582 CURVE SMOOTH",
"390 582 OFFCURVE",
"457 526 OFFCURVE",
"457 453 CURVE SMOOTH",
"457 375 OFFCURVE",
"388 322 OFFCURVE",
"293 322 CURVE",
"293 305 LINE",
"304 303 OFFCURVE",
"315 303 OFFCURVE",
"326 303 CURVE SMOOTH",
"441 303 OFFCURVE",
"497 373 OFFCURVE",
"497 453 CURVE SMOOTH",
"497 546 OFFCURVE",
"414 616 OFFCURVE",
"290 616 CURVE SMOOTH",
"160 616 OFFCURVE",
"81 546 OFFCURVE",
"81 460 CURVE SMOOTH",
"81 382 OFFCURVE",
"151 339 OFFCURVE",
"209 317 CURVE SMOOTH",
"371 256 LINE SMOOTH",
"437 232 OFFCURVE",
"481 198 OFFCURVE",
"481 142 CURVE SMOOTH",
"481 72 OFFCURVE",
"403 26 OFFCURVE",
"290 26 CURVE SMOOTH",
"180 26 OFFCURVE",
"101 73 OFFCURVE",
"101 162 CURVE SMOOTH",
"101 234 OFFCURVE",
"174 303 OFFCURVE",
"289 303 CURVE",
"289 321 LINE",
"279 322 OFFCURVE",
"267 322 OFFCURVE",
"256 322 CURVE SMOOTH",
"143 322 OFFCURVE",
"61 260 OFFCURVE",
"61 162 CURVE SMOOTH",
"61 62 OFFCURVE",
"163 -9 OFFCURVE",
"290 -9 CURVE SMOOTH"
);
}
);
width = 582;
},
{
layerId = UUID1;
paths = (
{
closed = 1;
nodes = (
"530 -16 OFFCURVE",
"638 70 OFFCURVE",
"638 187 CURVE SMOOTH",
"638 279 OFFCURVE",
"582 321 OFFCURVE",
"484 360 CURVE SMOOTH",
"275 442 LINE SMOOTH",
"243 456 OFFCURVE",
"230 470 OFFCURVE",
"230 490 CURVE SMOOTH",
"230 521 OFFCURVE",
"279 541 OFFCURVE",
"340 541 CURVE SMOOTH",
"405 541 OFFCURVE",
"451 519 OFFCURVE",
"451 476 CURVE SMOOTH",
"451 437 OFFCURVE",
"399 413 OFFCURVE",
"347 413 CURVE",
"347 371 LINE",
"385 357 OFFCURVE",
"408 351 OFFCURVE",
"440 351 CURVE SMOOTH",
"548 351 OFFCURVE",
"615 416 OFFCURVE",
"615 488 CURVE SMOOTH",
"615 603 OFFCURVE",
"491 686 OFFCURVE",
"340 686 CURVE SMOOTH",
"164 686 OFFCURVE",
"66 618 OFFCURVE",
"66 498 CURVE SMOOTH",
"66 396 OFFCURVE",
"157 334 OFFCURVE",
"228 306 CURVE SMOOTH",
"425 230 LINE SMOOTH",
"457 217 OFFCURVE",
"474 199 OFFCURVE",
"474 179 CURVE SMOOTH",
"474 151 OFFCURVE",
"439 130 OFFCURVE",
"340 130 CURVE SMOOTH",
"270 130 OFFCURVE",
"207 158 OFFCURVE",
"207 200 CURVE SMOOTH",
"207 239 OFFCURVE",
"262 267 OFFCURVE",
"332 267 CURVE",
"332 301 LINE",
"288 313 OFFCURVE",
"262 321 OFFCURVE",
"226 321 CURVE SMOOTH",
"123 321 OFFCURVE",
"43 271 OFFCURVE",
"43 181 CURVE SMOOTH",
"43 70 OFFCURVE",
"152 -16 OFFCURVE",
"340 -16 CURVE SMOOTH"
);
}
);
width = 680;
}
);
},
{
glyphname = nine.prop;
lastChange = "2019-04-17 22:00:39 +0000";
layers = (
{
layerId = UUID0;
paths = (
{
closed = 1;
nodes = (
"428 -108 OFFCURVE",
"495 16 OFFCURVE",
"495 216 CURVE SMOOTH",
"495 401 OFFCURVE",
"403 516 OFFCURVE",
"270 516 CURVE SMOOTH",
"156 516 OFFCURVE",
"79 446 OFFCURVE",
"79 337 CURVE SMOOTH",
"79 227 OFFCURVE",
"166 149 OFFCURVE",
"270 149 CURVE SMOOTH",
"373 149 OFFCURVE",
"440 214 OFFCURVE",
"448 320 CURVE",
"453 284 OFFCURVE",
"454 260 OFFCURVE",
"454 228 CURVE SMOOTH",
"454 41 OFFCURVE",
"397 -74 OFFCURVE",
"270 -74 CURVE SMOOTH",
"173 -74 OFFCURVE",
"119 -13 OFFCURVE",
"119 80 CURVE",
"80 80 LINE",
"80 -27 OFFCURVE",
"156 -108 OFFCURVE",
"270 -108 CURVE SMOOTH"
);
},
{
closed = 1;
nodes = (
"181 190 OFFCURVE",
"119 245 OFFCURVE",
"119 337 CURVE SMOOTH",
"119 428 OFFCURVE",
"181 482 OFFCURVE",
"270 482 CURVE SMOOTH",
"358 482 OFFCURVE",
"422 428 OFFCURVE",
"422 337 CURVE SMOOTH",
"422 256 OFFCURVE",
"358 190 OFFCURVE",
"270 190 CURVE SMOOTH"
);
}
);
width = 549;
},
{
layerId = UUID1;
paths = (
{
closed = 1;
nodes = (
"469 -125 OFFCURVE",
"598 12 OFFCURVE",
"598 248 CURVE SMOOTH",
"598 418 OFFCURVE",
"505 618 OFFCURVE",
"296 618 CURVE SMOOTH",
"146 618 OFFCURVE",
"40 518 OFFCURVE",
"40 388 CURVE SMOOTH",
"40 262 OFFCURVE",
"140 170 OFFCURVE",
"270 170 CURVE SMOOTH",
"350 170 OFFCURVE",
"422 219 OFFCURVE",
"437 315 CURVE",
"439 301 OFFCURVE",
"440 276 OFFCURVE",
"440 256 CURVE SMOOTH",
"440 113 OFFCURVE",
"399 21 OFFCURVE",
"303 21 CURVE SMOOTH",
"253 21 OFFCURVE",
"226 45 OFFCURVE",
"220 89 CURVE",
"52 89 LINE",
"52 -40 OFFCURVE",
"163 -125 OFFCURVE",
"303 -125 CURVE SMOOTH"
);
},
{
closed = 1;
nodes = (
"237 296 OFFCURVE",
"204 337 OFFCURVE",
"204 388 CURVE SMOOTH",
"204 436 OFFCURVE",
"236 479 OFFCURVE",
"296 479 CURVE SMOOTH",
"357 479 OFFCURVE",
"390 436 OFFCURVE",
"390 388 CURVE SMOOTH",
"390 337 OFFCURVE",
"358 296 OFFCURVE",
"298 296 CURVE SMOOTH"
);
}
);
width = 640;
}
);
},
{
glyphname = dollar;
lastChange = "2019-04-17 22:01:12 +0000";
layers = (
{
layerId = UUID0;
paths = (
{
closed = 1;
nodes = (
"425 -9 OFFCURVE",
"498 74 OFFCURVE",
"498 157 CURVE SMOOTH",
"498 244 OFFCURVE",
"437 292 OFFCURVE",
"355 316 CURVE SMOOTH",
"289 335 LINE",
"289 299 LINE",
"346 282 LINE SMOOTH",
"416 261 OFFCURVE",
"457 220 OFFCURVE",
"457 157 CURVE SMOOTH",
"457 91 OFFCURVE",
"394 26 OFFCURVE",
"284 26 CURVE SMOOTH",
"190 26 OFFCURVE",
"109 72 OFFCURVE",
"109 173 CURVE",
"73 173 LINE",
"73 60 OFFCURVE",
"168 -9 OFFCURVE",
"284 -9 CURVE SMOOTH"
);
},
{
closed = 1;
nodes = (
"303 -81 LINE",
"303 686 LINE",
"266 686 LINE",
"266 -81 LINE"
);
},
{
closed = 1;
nodes = (
"281 338 LINE",
"236 351 LINE SMOOTH",
"163 373 OFFCURVE",
"131 403 OFFCURVE",
"131 460 CURVE SMOOTH",
"131 531 OFFCURVE",
"187 581 OFFCURVE",
"286 581 CURVE SMOOTH",
"373 581 OFFCURVE",
"426 547 OFFCURVE",
"437 482 CURVE",
"474 482 LINE",
"463 560 OFFCURVE",
"396 615 OFFCURVE",
"286 615 CURVE SMOOTH",
"159 615 OFFCURVE",
"92 552 OFFCURVE",
"92 463 CURVE SMOOTH",
"92 380 OFFCURVE",
"145 343 OFFCURVE",
"253 310 CURVE SMOOTH",
"281 301 LINE"
);
}
);
width = 571;
},
{
layerId = UUID1;
paths = (
{
closed = 1;
nodes = (
"600 -16 OFFCURVE",
"689 81 OFFCURVE",
"689 182 CURVE SMOOTH",
"689 266 OFFCURVE",
"646 317 OFFCURVE",
"537 357 CURVE SMOOTH",
"377 416 LINE",
"377 279 LINE",
"456 247 LINE SMOOTH",
"490 232 OFFCURVE",
"509 211 OFFCURVE",
"509 186 CURVE SMOOTH",
"509 152 OFFCURVE",
"480 130 OFFCURVE",
"399 130 CURVE SMOOTH",
"275 130 OFFCURVE",
"219 152 OFFCURVE",
"219 219 CURVE",
"61 219 LINE",
"61 50 OFFCURVE",
"216 -16 OFFCURVE",
"391 -16 CURVE SMOOTH"
);
},
{
closed = 1;
nodes = (
"431 -111 LINE",
"431 764 LINE",
"322 764 LINE",
"322 -111 LINE"
);
},
{
closed = 1;
nodes = (
"350 414 LINE",
"292 440 LINE SMOOTH",
"260 453 OFFCURVE",
"245 469 OFFCURVE",
"245 492 CURVE SMOOTH",
"245 526 OFFCURVE",
"284 550 OFFCURVE",
"367 550 CURVE SMOOTH",
"451 550 OFFCURVE",
"498 508 OFFCURVE",
"507 464 CURVE",
"665 464 LINE",
"640 603 OFFCURVE",
"554 686 OFFCURVE",
"369 686 CURVE SMOOTH",
"175 686 OFFCURVE",
"70 609 OFFCURVE",
"70 496 CURVE SMOOTH",
"70 399 OFFCURVE",
"139 349 OFFCURVE",
"253 309 CURVE SMOOTH",
"350 275 LINE"
);
}
);
width = 750;
}
);
unicode = 0024;
},
{
glyphname = question;
lastChange = "2019-04-17 01:56:00 +0000";
layers = (
{
layerId = UUID0;
paths = (
{
closed = 1;
nodes = (
"215 125 LINE",
"215 176 LINE SMOOTH",
"215 255 OFFCURVE",
"238 276 OFFCURVE",
"307 316 CURVE SMOOTH",
"386 361 OFFCURVE",
"419 400 OFFCURVE",
"419 468 CURVE SMOOTH",
"419 547 OFFCURVE",
"350 616 OFFCURVE",
"236 616 CURVE SMOOTH",
"114 616 OFFCURVE",
"47 560 OFFCURVE",
"36 482 CURVE",
"79 482 LINE",
"95 548 OFFCURVE",
"142 582 OFFCURVE",
"236 582 CURVE SMOOTH",
"326 582 OFFCURVE",
"379 535 OFFCURVE",
"379 471 CURVE SMOOTH",
"379 407 OFFCURVE",
"349 382 OFFCURVE",
"278 341 CURVE SMOOTH",
"199 296 OFFCURVE",
"179 262 OFFCURVE",
"179 176 CURVE SMOOTH",
"179 125 LINE"
);
},
{
closed = 1;
nodes = (
"215 -9 OFFCURVE",
"231 6 OFFCURVE",
"231 23 CURVE SMOOTH",
"231 41 OFFCURVE",
"215 57 OFFCURVE",
"196 57 CURVE SMOOTH",
"177 57 OFFCURVE",
"163 41 OFFCURVE",
"163 23 CURVE SMOOTH",
"163 6 OFFCURVE",
"177 -9 OFFCURVE",
"196 -9 CURVE SMOOTH"
);
}
);
width = 479;
},
{
layerId = UUID1;
paths = (
{
closed = 1;
nodes = (
"333 230 LINE",
"333 247 LINE SMOOTH",
"333 286 OFFCURVE",
"351 306 OFFCURVE",
"413 335 CURVE SMOOTH",
"485 369 OFFCURVE",
"519 417 OFFCURVE",
"519 488 CURVE SMOOTH",
"519 601 OFFCURVE",
"422 686 OFFCURVE",
"265 686 CURVE SMOOTH",
"109 686 OFFCURVE",
"23 600 OFFCURVE",
"18 464 CURVE",
"182 464 LINE",
"182 507 OFFCURVE",
"215 541 OFFCURVE",
"272 541 CURVE SMOOTH",
"315 541 OFFCURVE",
"343 519 OFFCURVE",
"343 488 CURVE SMOOTH",
"343 462 OFFCURVE",
"332 443 OFFCURVE",
"273 416 CURVE SMOOTH",
"205 384 OFFCURVE",
"173 351 OFFCURVE",
"173 264 CURVE SMOOTH",
"173 230 LINE"
);
},
{
closed = 1;
nodes = (
"321 -16 OFFCURVE",
"367 27 OFFCURVE",
"367 86 CURVE SMOOTH",
"367 145 OFFCURVE",
"321 188 OFFCURVE",
"258 188 CURVE SMOOTH",
"194 188 OFFCURVE",
"151 145 OFFCURVE",
"151 86 CURVE SMOOTH",
"151 27 OFFCURVE",
"194 -16 OFFCURVE",
"258 -16 CURVE SMOOTH"
);
}
);
width = 537;
}
);
unicode = 003F;
},
{
glyphname = sterling;
lastChange = "2019-04-17 22:01:34 +0000";
layers = (
{
layerId = UUID0;
paths = (
{
closed = 1;
nodes = (
"135 18 OFFCURVE",
"157 46 OFFCURVE",
"157 123 CURVE SMOOTH",
"157 419 LINE SMOOTH",
"157 533 OFFCURVE",
"205 582 OFFCURVE",
"284 582 CURVE SMOOTH",
"338 582 OFFCURVE",
"386 555 OFFCURVE",
"399 492 CURVE",
"435 492 LINE",
"420 573 OFFCURVE",
"361 616 OFFCURVE",
"284 616 CURVE SMOOTH",
"164 616 OFFCURVE",
"120 535 OFFCURVE",
"120 419 CURVE SMOOTH",
"120 123 LINE SMOOTH",
"120 60 OFFCURVE",
"95 30 OFFCURVE",
"41 30 CURVE",
"41 18 LINE"
);
},
{
closed = 1;
nodes = (
"351 0 LINE SMOOTH",
"447 0 OFFCURVE",
"480 49 OFFCURVE",
"491 122 CURVE",
"454 122 LINE",
"443 58 OFFCURVE",
"414 30 OFFCURVE",
"351 30 CURVE SMOOTH",
"18 30 LINE",
"18 0 LINE"
);
},
{
closed = 1;
nodes = (
"349 253 LINE",
"349 284 LINE",
"22 284 LINE",
"22 253 LINE"
);
}
);
width = 527;
},
{
layerId = UUID1;
paths = (
{
closed = 1;
nodes = (
"225 100 OFFCURVE",
"282 147 OFFCURVE",
"282 242 CURVE SMOOTH",
"282 457 LINE SMOOTH",
"282 514 OFFCURVE",
"309 541 OFFCURVE",
"346 541 CURVE SMOOTH",
"380 541 OFFCURVE",
"399 518 OFFCURVE",
"402 485 CURVE",
"559 485 LINE",
"543 618 OFFCURVE",
"474 686 OFFCURVE",
"346 686 CURVE SMOOTH",
"222 686 OFFCURVE",
"122 616 OFFCURVE",
"122 457 CURVE SMOOTH",
"122 230 LINE SMOOTH",
"122 173 OFFCURVE",
"107 146 OFFCURVE",
"61 146 CURVE",
"61 100 LINE"
);
},
{
closed = 1;
nodes = (
"334 0 LINE SMOOTH",
"531 0 OFFCURVE",
"604 78 OFFCURVE",
"604 216 CURVE",
"428 216 LINE",
"424 169 OFFCURVE",
"401 146 OFFCURVE",
"333 146 CURVE SMOOTH",
"24 146 LINE",
"24 0 LINE"
);
},
{
closed = 1;
nodes = (
"442 295 LINE",
"442 399 LINE",
"47 399 LINE",
"47 295 LINE"
);
}
);
width = 640;
}
);
unicode = 00A3;
},
{
glyphname = grave;
lastChange = "2019-04-14 20:13:24 +0000";
layers = (
{
anchors = (
{
name = _above;
position = "{135, 607}";
}
);
layerId = UUID0;
paths = (
{
closed = 1;
nodes = (
"232 659 LINE",
"248 682 LINE",
"46 816 LINE",
"24 782 LINE"
);
}
);
width = 270;
},
{
anchors = (
{
name = _above;
position = "{200, 690}";
}
);
layerId = UUID1;
paths = (
{
closed = 1;
nodes = (
"340 712 LINE",
"377 813 LINE",
"77 944 LINE",
"24 807 LINE"
);
}
);
width = 401;
}
);
unicode = 0060;
},
{
glyphname = acute;
lastChange = "2019-04-17 22:01:43 +0000";
layers = (
{
anchors = (
{
name = _above;
position = "{135, 607}";
}
);
layerId = UUID0;
paths = (
{
closed = 1;
nodes = (
"245 782 LINE",
"224 816 LINE",
"22 682 LINE",
"38 659 LINE"
);
}
);
width = 270;
},
{
anchors = (
{
name = _above;
position = "{200, 690}";
}
);
layerId = UUID1;
paths = (
{
closed = 1;
nodes = (
"377 807 LINE",
"324 944 LINE",
"24 813 LINE",
"61 712 LINE"
);
}
);
width = 401;
}
);
unicode = 00B4;
},
{
glyphname = circumflex;
lastChange = "2019-04-17 22:01:59 +0000";
layers = (
{
anchors = (
{
name = _above;
position = "{173, 607}";
}
);
background = {
paths = (
{
closed = 1;
nodes = (
"142 638 LINE",
"245 542 LINE",
"264 557 LINE",
"142 682 LINE"
);
}
);
};
layerId = UUID0;
paths = (
{
closed = 1;
nodes = (
"173 775 LINE",
"298 659 LINE",
"321 677 LINE",
"173 829 LINE",
"24 677 LINE",
"47 659 LINE"
);
}
);
width = 345;
},
{
anchors = (
{
name = _above;
position = "{264, 690}";
}
);
background = {
paths = (
{
closed = 1;
nodes = (
"217 662 LINE",
"104 585 LINE",
"20 651 LINE",
"217 787 LINE"
);
}
);
};
layerId = UUID1;
paths = (
{
closed = 1;
nodes = (
"264 804 LINE",
"401 711 LINE",
"503 791 LINE",
"264 956 LINE",
"24 791 LINE",
"126 711 LINE"
);
}
);
width = 527;
}
);
unicode = 02C6;
},
{
glyphname = tilde;
lastChange = "2019-04-17 22:02:22 +0000";
layers = (
{
anchors = (
{
name = _above;
position = "{164, 607}";
}
);
background = {
paths = (
{
closed = 1;
nodes = (
"143 638 LINE",
"176 621 OFFCURVE",
"183 618 OFFCURVE",
"194 618 CURVE SMOOTH",
"210 618 OFFCURVE",
"226 631 OFFCURVE",
"238 663 CURVE",
"253 654 LINE",
"239 609 OFFCURVE",
"218 590 OFFCURVE",
"194 590 CURVE SMOOTH",
"182 590 OFFCURVE",
"174 593 OFFCURVE",
"134 612 CURVE"
);
}
);
};
layerId = UUID0;
paths = (
{
closed = 1;
nodes = (
"55 744 OFFCURVE",
"74 759 OFFCURVE",
"94 759 CURVE SMOOTH",
"107 759 OFFCURVE",
"115 756 OFFCURVE",
"156 735 CURVE SMOOTH",
"204 710 OFFCURVE",
"220 705 OFFCURVE",
"236 705 CURVE SMOOTH",
"265 705 OFFCURVE",
"290 728 OFFCURVE",
"307 782 CURVE",
"289 793 LINE",
"275 755 OFFCURVE",
"255 739 OFFCURVE",
"236 739 CURVE SMOOTH",
"222 739 OFFCURVE",
"214 742 OFFCURVE",
"166 767 CURVE SMOOTH",
"118 791 OFFCURVE",
"108 793 OFFCURVE",
"94 793 CURVE SMOOTH",
"64 793 OFFCURVE",
"39 770 OFFCURVE",
"22 716 CURVE",
"40 705 LINE"
);
}
);
width = 335;
},
{
anchors = (
{
name = _above;
position = "{213, 690}";
}
);
background = {
paths = (
{
closed = 1;
nodes = (
"167 605 LINE",
"144 617 OFFCURVE",
"134 622 OFFCURVE",
"122 622 CURVE SMOOTH",
"104 622 OFFCURVE",
"88 615 OFFCURVE",
"70 583 CURVE",
"20 613 LINE",
"32 691 OFFCURVE",
"71 740 OFFCURVE",
"122 740 CURVE SMOOTH",
"140 740 OFFCURVE",
"158 733 OFFCURVE",
"183 721 CURVE"
);
}
);
};
layerId = UUID1;
paths = (
{
closed = 1;
nodes = (
"107 784 OFFCURVE",
"126 792 OFFCURVE",
"148 792 CURVE SMOOTH",
"163 792 OFFCURVE",
"175 786 OFFCURVE",
"203 772 CURVE SMOOTH",
"236 755 OFFCURVE",
"258 745 OFFCURVE",
"286 745 CURVE SMOOTH",
"334 745 OFFCURVE",
"389 810 OFFCURVE",
"401 891 CURVE",
"334 936 LINE",
"321 904 OFFCURVE",
"301 889 OFFCURVE",
"282 889 CURVE SMOOTH",
"264 889 OFFCURVE",
"249 899 OFFCURVE",
"222 912 CURVE SMOOTH",
"192 927 OFFCURVE",
"170 936 OFFCURVE",
"148 936 CURVE SMOOTH",
"86 936 OFFCURVE",
"39 876 OFFCURVE",
"24 781 CURVE",
"85 745 LINE"
);
}
);
width = 425;
}
);
unicode = 02DC;
},
{
glyphname = ampersand;
lastChange = "2019-04-17 22:02:41 +0000";
layers = (
{
layerId = UUID0;
paths = (
{
closed = 1;
nodes = (
"779 -9 OFFCURVE",
"816 33 OFFCURVE",
"824 114 CURVE",
"784 114 LINE",
"778 47 OFFCURVE",
"746 24 OFFCURVE",
"710 24 CURVE SMOOTH",
"678 24 OFFCURVE",
"662 33 OFFCURVE",
"633 57 CURVE SMOOTH",
"288 354 LINE SMOOTH",
"239 395 OFFCURVE",
"222 433 OFFCURVE",
"222 475 CURVE SMOOTH",
"222 533 OFFCURVE",
"265 586 OFFCURVE",
"352 586 CURVE SMOOTH",
"422 586 OFFCURVE",
"468 544 OFFCURVE",
"468 487 CURVE SMOOTH",
"468 436 OFFCURVE",
"454 388 OFFCURVE",
"320 324 CURVE",
"343 301 LINE",
"470 361 OFFCURVE",
"508 417 OFFCURVE",
"508 482 CURVE SMOOTH",
"508 560 OFFCURVE",
"439 616 OFFCURVE",
"352 616 CURVE SMOOTH",
"252 616 OFFCURVE",
"182 561 OFFCURVE",
"182 480 CURVE SMOOTH",
"182 425 OFFCURVE",
"210 375 OFFCURVE",
"265 329 CURVE SMOOTH",
"605 38 LINE SMOOTH",
"644 4 OFFCURVE",
"673 -9 OFFCURVE",
"710 -9 CURVE SMOOTH"
);
},
{
closed = 1;
nodes = (
"513 -9 OFFCURVE",
"625 163 OFFCURVE",
"685 356 CURVE",
"654 372 LINE",
"598 186 OFFCURVE",
"486 22 OFFCURVE",
"310 22 CURVE SMOOTH",
"187 22 OFFCURVE",
"125 86 OFFCURVE",
"125 162 CURVE SMOOTH",
"125 241 OFFCURVE",
"190 281 OFFCURVE",
"322 295 CURVE",
"322 323 LINE",
"164 309 OFFCURVE",
"85 264 OFFCURVE",
"85 162 CURVE SMOOTH",
"85 67 OFFCURVE",
"175 -9 OFFCURVE",
"310 -9 CURVE SMOOTH"
);
}
);
width = 863;
},
{
layerId = UUID1;
paths = (
{
closed = 1;
nodes = (
"897 -16 OFFCURVE",
"956 66 OFFCURVE",
"956 190 CURVE",
"815 190 LINE",
"815 146 OFFCURVE",
"791 124 OFFCURVE",
"762 124 CURVE SMOOTH",
"731 124 OFFCURVE",
"712 136 OFFCURVE",
"691 156 CURVE SMOOTH",
"403 423 LINE SMOOTH",
"380 445 OFFCURVE",
"366 465 OFFCURVE",
"366 490 CURVE SMOOTH",
"366 521 OFFCURVE",
"391 544 OFFCURVE",
"434 544 CURVE SMOOTH",
"473 544 OFFCURVE",
"502 521 OFFCURVE",
"502 490 CURVE SMOOTH",
"502 437 OFFCURVE",
"448 409 OFFCURVE",
"380 390 CURVE",
"463 313 LINE",
"597 349 OFFCURVE",
"678 412 OFFCURVE",
"678 515 CURVE SMOOTH",
"678 605 OFFCURVE",
"594 683 OFFCURVE",
"434 683 CURVE SMOOTH",
"273 683 OFFCURVE",
"190 605 OFFCURVE",
"190 514 CURVE SMOOTH",
"190 460 OFFCURVE",
"220 409 OFFCURVE",
"256 375 CURVE SMOOTH",
"561 90 LINE SMOOTH",
"637 19 OFFCURVE",
"700 -16 OFFCURVE",
"780 -16 CURVE SMOOTH"
);
},
{
closed = 1;
nodes = (
"569 -16 OFFCURVE",
"724 114 OFFCURVE",
"804 338 CURVE",
"700 396 LINE",
"625 236 OFFCURVE",
"521 130 OFFCURVE",
"388 130 CURVE SMOOTH",
"318 130 OFFCURVE",
"272 163 OFFCURVE",
"272 207 CURVE SMOOTH",
"272 247 OFFCURVE",
"304 277 OFFCURVE",
"391 283 CURVE",
"333 366 LINE",
"188 354 OFFCURVE",
"96 300 OFFCURVE",
"96 197 CURVE SMOOTH",
"96 75 OFFCURVE",
"231 -16 OFFCURVE",
"386 -16 CURVE SMOOTH"
);
}
);
width = 1018;
}
);
unicode = 0026;
},
{
glyphname = at;
lastChange = "2019-04-17 22:03:00 +0000";
layers = (
{
layerId = UUID0;
paths = (
{
closed = 1;
nodes = (
"519 -113 LINE",
"270 -113 OFFCURVE",
"107 24 OFFCURVE",
"107 238 CURVE SMOOTH",
"107 419 OFFCURVE",
"242 584 OFFCURVE",
"460 584 CURVE SMOOTH",
"643 584 OFFCURVE",
"765 465 OFFCURVE",
"765 300 CURVE SMOOTH",
"765 165 OFFCURVE",
"685 73 OFFCURVE",
"618 73 CURVE SMOOTH",
"587 73 OFFCURVE",
"575 90 OFFCURVE",
"575 125 CURVE SMOOTH",
"575 299 LINE SMOOTH",
"575 386 OFFCURVE",
"530 429 OFFCURVE",
"462 429 CURVE SMOOTH",
"357 429 OFFCURVE",
"258 338 OFFCURVE",
"258 210 CURVE SMOOTH",
"258 111 OFFCURVE",
"332 50 OFFCURVE",
"409 50 CURVE SMOOTH",
"475 50 OFFCURVE",
"515 92 OFFCURVE",
"538 140 CURVE",
"538 125 LINE SMOOTH",
"538 75 OFFCURVE",
"569 50 OFFCURVE",
"618 50 CURVE SMOOTH",
"716 50 OFFCURVE",
"806 154 OFFCURVE",
"806 300 CURVE SMOOTH",
"806 473 OFFCURVE",
"666 616 OFFCURVE",
"460 616 CURVE SMOOTH",
"225 616 OFFCURVE",
"67 450 OFFCURVE",
"67 238 CURVE SMOOTH",
"67 13 OFFCURVE",
"247 -143 OFFCURVE",
"519 -143 CURVE"
);
},
{
closed = 1;
nodes = (
"344 80 OFFCURVE",
"298 128 OFFCURVE",
"298 210 CURVE SMOOTH",
"298 328 OFFCURVE",
"392 399 OFFCURVE",
"462 399 CURVE SMOOTH",
"515 399 OFFCURVE",
"538 372 OFFCURVE",
"538 300 CURVE SMOOTH",
"538 187 LINE",
"507 119 OFFCURVE",
"469 80 OFFCURVE",
"409 80 CURVE SMOOTH"
);
}
);
width = 848;
},
{
layerId = UUID1;
paths = (
{
closed = 1;
nodes = (
"595 -125 LINE",
"351 -125 OFFCURVE",
"227 7 OFFCURVE",
"227 183 CURVE SMOOTH",
"227 394 OFFCURVE",
"388 541 OFFCURVE",
"611 541 CURVE SMOOTH",
"806 541 OFFCURVE",
"904 428 OFFCURVE",
"904 289 CURVE SMOOTH",
"904 147 OFFCURVE",
"830 113 OFFCURVE",
"801 113 CURVE SMOOTH",
"782 113 OFFCURVE",
"770 125 OFFCURVE",
"770 163 CURVE SMOOTH",
"770 272 LINE SMOOTH",
"770 388 OFFCURVE",
"708 446 OFFCURVE",
"609 446 CURVE SMOOTH",
"467 446 OFFCURVE",
"349 329 OFFCURVE",
"349 183 CURVE SMOOTH",
"349 70 OFFCURVE",
"433 -16 OFFCURVE",
"521 -16 CURVE SMOOTH",
"592 -16 OFFCURVE",
"623 11 OFFCURVE",
"650 63 CURVE",
"659 46 LINE SMOOTH",
"678 9 OFFCURVE",
"725 -16 OFFCURVE",
"796 -16 CURVE SMOOTH",
"927 -16 OFFCURVE",
"1064 86 OFFCURVE",
"1064 289 CURVE SMOOTH",
"1064 512 OFFCURVE",
"882 686 OFFCURVE",
"611 686 CURVE SMOOTH",
"304 686 OFFCURVE",
"67 496 OFFCURVE",
"67 196 CURVE SMOOTH",
"67 -51 OFFCURVE",
"275 -256 OFFCURVE",
"595 -256 CURVE"
);
},
{
closed = 1;
nodes = (
"520 113 OFFCURVE",
"490 139 OFFCURVE",
"490 186 CURVE SMOOTH",
"490 270 OFFCURVE",
"552 323 OFFCURVE",
"603 323 CURVE SMOOTH",
"638 323 OFFCURVE",
"646 295 OFFCURVE",
"646 269 CURVE SMOOTH",
"646 176 LINE",
"620 132 OFFCURVE",
"598 113 OFFCURVE",
"558 113 CURVE SMOOTH"
);
}
);
width = 1119;
}
);
unicode = 0040;
},
{
glyphname = dieresis;
lastChange = "2019-04-17 22:04:27 +0000";
layers = (
{
anchors = (
{
name = _above;
position = "{129, 677}";
}
);
layerId = UUID0;
paths = (
{
closed = 1;
nodes = (
"218 788 OFFCURVE",
"233 803 OFFCURVE",
"233 820 CURVE SMOOTH",
"233 838 OFFCURVE",
"218 854 OFFCURVE",
"198 854 CURVE SMOOTH",
"180 854 OFFCURVE",
"165 838 OFFCURVE",
"165 820 CURVE SMOOTH",
"165 803 OFFCURVE",
"180 788 OFFCURVE",
"198 788 CURVE SMOOTH"
);
},
{
closed = 1;
nodes = (
"77 788 OFFCURVE",
"92 802 OFFCURVE",
"92 819 CURVE SMOOTH",
"92 837 OFFCURVE",
"77 853 OFFCURVE",
"57 853 CURVE SMOOTH",
"39 853 OFFCURVE",
"24 837 OFFCURVE",
"24 819 CURVE SMOOTH",
"24 802 OFFCURVE",
"39 788 OFFCURVE",
"57 788 CURVE SMOOTH"
);
}
);
width = 259;
},
{
anchors = (
{
name = _above;
position = "{222, 686}";
}
);
layerId = UUID1;
paths = (
{
closed = 1;
nodes = (
"384 761 OFFCURVE",
"422 796 OFFCURVE",
"422 844 CURVE SMOOTH",
"422 893 OFFCURVE",
"384 928 OFFCURVE",
"332 928 CURVE SMOOTH",
"281 928 OFFCURVE",
"243 893 OFFCURVE",
"243 844 CURVE SMOOTH",
"243 796 OFFCURVE",
"281 761 OFFCURVE",
"332 761 CURVE SMOOTH"
);
},
{
closed = 1;
nodes = (
"165 761 OFFCURVE",
"203 796 OFFCURVE",
"203 844 CURVE SMOOTH",
"203 893 OFFCURVE",
"165 928 OFFCURVE",
"113 928 CURVE SMOOTH",
"60 928 OFFCURVE",
"24 893 OFFCURVE",
"24 844 CURVE SMOOTH",
"24 796 OFFCURVE",
"60 761 OFFCURVE",
"113 761 CURVE SMOOTH"
);
}
);
width = 446;
}
);
unicode = 00A8;
},
{
glyphname = dotlessi;
lastChange = "2019-04-14 20:13:24 +0000";
layers = (
{
anchors = (
{
name = above;
position = "{128, 486}";
}
);
layerId = UUID0;
paths = (
{
closed = 1;
nodes = (
"146 0 LINE",
"146 471 LINE",
"109 471 LINE",
"109 0 LINE"
);
}
);
width = 255;
},
{
anchors = (
{
name = above;
position = "{165, 547}";
}
);
layerId = UUID1;
paths = (
{
closed = 1;
nodes = (
"245 0 LINE",
"245 495 LINE",
"85 495 LINE",
"85 0 LINE"
);
}
);
width = 330;
}
);
unicode = 0131;
},
{
glyphname = Rupee;
lastChange = "2019-04-14 20:13:24 +0000";
layers = (
{
background = {
paths = (
{
closed = 1;
nodes = (
"306 10 OFFCURVE",
"313 3 OFFCURVE",
"321 3 CURVE SMOOTH",
"329 3 OFFCURVE",
"336 10 OFFCURVE",
"336 18 CURVE SMOOTH",
"336 26 OFFCURVE",
"329 33 OFFCURVE",
"321 33 CURVE SMOOTH",
"313 33 OFFCURVE",
"306 26 OFFCURVE",
"306 18 CURVE SMOOTH"
);
},
{
closed = 1;
nodes = (
"88 200 OFFCURVE",
"95 193 OFFCURVE",
"103 193 CURVE SMOOTH",
"111 193 OFFCURVE",
"118 200 OFFCURVE",
"118 208 CURVE SMOOTH",
"118 216 OFFCURVE",
"111 223 OFFCURVE",
"103 223 CURVE SMOOTH",
"95 223 OFFCURVE",
"88 216 OFFCURVE",
"88 208 CURVE SMOOTH"
);
}
);
};
layerId = UUID0;
paths = (
{
closed = 1;
nodes = (
"468 577 LINE",
"468 607 LINE",
"102 607 LINE",
"102 577 LINE"
);
},
{
closed = 1;
nodes = (
"468 435 LINE",
"468 465 LINE",
"102 465 LINE",
"102 435 LINE"
);
},
{
closed = 1;
nodes = (
"102 249 LINE",
"388 0 LINE",
"442 0 LINE",
"117 279 LINE",
"102 279 LINE"
);
},
{
closed = 1;
nodes = (
"115 249 LINE",
"154 249 LINE SMOOTH",
"316 249 OFFCURVE",
"380 332 OFFCURVE",
"380 429 CURVE SMOOTH",
"380 526 OFFCURVE",
"311 600 OFFCURVE",
"154 600 CURVE SMOOTH",
"115 600 LINE",
"115 577 LINE",
"154 577 LINE SMOOTH",
"281 577 OFFCURVE",
"340 514 OFFCURVE",
"340 429 CURVE SMOOTH",
"340 344 OFFCURVE",
"281 279 OFFCURVE",
"154 279 CURVE SMOOTH",
"115 279 LINE"
);
}
);
width = 556;
},
{
background = {
paths = (
{
closed = 1;
nodes = (
"269 137 OFFCURVE",
"276 130 OFFCURVE",
"284 130 CURVE SMOOTH",
"292 130 OFFCURVE",
"299 137 OFFCURVE",
"299 145 CURVE SMOOTH",
"299 153 OFFCURVE",
"292 160 OFFCURVE",
"284 160 CURVE SMOOTH",
"276 160 OFFCURVE",
"269 153 OFFCURVE",
"269 145 CURVE SMOOTH"
);
},
{
closed = 1;
nodes = (
"269 137 OFFCURVE",
"276 130 OFFCURVE",
"284 130 CURVE SMOOTH",
"292 130 OFFCURVE",
"299 137 OFFCURVE",
"299 145 CURVE SMOOTH",
"299 153 OFFCURVE",
"292 160 OFFCURVE",
"284 160 CURVE SMOOTH",
"276 160 OFFCURVE",
"269 153 OFFCURVE",
"269 145 CURVE SMOOTH"
);
}
);
};
layerId = UUID1;
paths = (
{
closed = 1;
nodes = (
"587 586 LINE",
"587 671 LINE",
"73 671 LINE",
"73 586 LINE"
);
},
{
closed = 1;
nodes = (
"587 416 LINE",
"587 501 LINE",
"73 501 LINE",
"73 416 LINE"
);
},
{
closed = 1;
nodes = (
"73 245 LINE",
"313 0 LINE",
"536 0 LINE",
"213 330 LINE",
"73 330 LINE"
);
},
{
closed = 1;
nodes = (
"126 245 LINE",
"151 245 LINE SMOOTH",
"391 245 OFFCURVE",
"479 334 OFFCURVE",
"479 458 CURVE SMOOTH",
"479 572 OFFCURVE",
"364 645 OFFCURVE",
"151 645 CURVE SMOOTH",
"126 645 LINE",
"126 586 LINE",
"151 586 LINE SMOOTH",
"261 586 OFFCURVE",
"306 531 OFFCURVE",
"306 458 CURVE SMOOTH",
"306 385 OFFCURVE",
"261 330 OFFCURVE",
"151 330 CURVE SMOOTH",
"126 330 LINE"
);
}
);
width = 629;
}
);
unicode = 20B9;
},
{
glyphname = less;
lastChange = "2019-04-14 20:13:24 +0000";
layers = (
{
background = {
paths = (
{
closed = 1;
nodes = (
"30 249 LINE",
"273 431 LINE",
"292 407 LINE",
"51 231 LINE"
);
}
);
};
layerId = UUID0;
paths = (
{
closed = 1;
nodes = (
"36 303 LINE",
"36 273 LINE",
"332 52 LINE",
"355 83 LINE",
"62 295 LINE",
"62 281 LINE",
"355 495 LINE",
"332 524 LINE"
);
}
);
width = 403;
},
{
background = {
paths = (
{
closed = 1;
nodes = (
"40 220 LINE",
"332 13 LINE",
"420 112 LINE",
"137 308 LINE"
);
}
);
};
layerId = UUID1;
paths = (
{
closed = 1;
nodes = (
"49 413 LINE",
"49 267 LINE",
"403 16 LINE",
"510 136 LINE",
"166 374 LINE",
"166 306 LINE",
"510 544 LINE",
"403 665 LINE"
);
}
);
width = 553;
}
);
unicode = 003C;
},
{
glyphname = greater;
lastChange = "2019-04-17 22:04:49 +0000";
layers = (
{
layerId = UUID0;
paths = (
{
closed = 1;
nodes = (
"367 273 LINE",
"367 303 LINE",
"72 524 LINE",
"49 495 LINE",
"341 281 LINE",
"341 295 LINE",
"49 83 LINE",
"72 52 LINE"
);
}
);
width = 403;
},
{
layerId = UUID1;
paths = (
{
closed = 1;
nodes = (
"504 267 LINE",
"504 413 LINE",
"149 665 LINE",
"43 544 LINE",
"386 306 LINE",
"386 374 LINE",
"43 136 LINE",
"149 16 LINE"
);
}
);
width = 553;
}
);
unicode = 003E;
},
{
glyphname = numbersign;
lastChange = "2019-04-17 02:01:21 +0000";
layers = (
{
background = {
paths = (
{
closed = 1;
nodes = (
"59 333 LINE",
"438 333 LINE",
"441 356 LINE",
"62 356 LINE"
);
},
{
closed = 1;
nodes = (
"40 146 LINE",
"418 146 LINE",
"421 169 LINE",
"43 169 LINE"
);
}
);
};
layerId = UUID0;
paths = (
{
closed = 1;
nodes = (
"175 29 LINE",
"191 177 LINE",
"363 177 LINE",
"347 29 LINE",
"382 29 LINE",
"398 177 LINE",
"508 177 LINE",
"512 205 LINE",
"401 205 LINE",
"422 405 LINE",
"532 405 LINE",
"536 433 LINE",
"425 433 LINE",
"440 578 LINE",
"406 578 LINE",
"390 433 LINE",
"218 433 LINE",
"233 578 LINE",
"199 578 LINE",
"184 433 LINE",
"75 433 LINE",
"72 405 LINE",
"181 405 LINE",
"160 205 LINE",
"52 205 LINE",
"49 177 LINE",
"157 177 LINE",
"141 29 LINE"
);
},
{
closed = 1;
nodes = (
"215 405 LINE",
"387 405 LINE",
"366 205 LINE",
"194 205 LINE"
);
}
);
width = 572;
},
{
background = {
paths = (
{
closed = 1;
nodes = (
"50 129 LINE",
"534 129 LINE",
"542 214 LINE",
"58 214 LINE"
);
},
{
closed = 1;
nodes = (
"70 326 LINE",
"554 326 LINE",
"563 411 LINE",
"79 411 LINE"
);
}
);
};
layerId = UUID1;
paths = (
{
closed = 1;
nodes = (
"283 35 LINE",
"296 157 LINE",
"413 157 LINE",
"400 35 LINE",
"550 35 LINE",
"563 157 LINE",
"649 157 LINE",
"659 260 LINE",
"574 260 LINE",
"588 396 LINE",
"673 396 LINE",
"684 499 LINE",
"599 499 LINE",
"612 621 LINE",
"462 621 LINE",
"449 499 LINE",
"332 499 LINE",
"345 621 LINE",
"194 621 LINE",
"181 499 LINE",
"96 499 LINE",
"85 396 LINE",
"170 396 LINE",
"156 260 LINE",
"70 260 LINE",
"61 157 LINE",
"145 157 LINE",
"132 35 LINE"
);
},
{
closed = 1;
nodes = (
"321 396 LINE",
"438 396 LINE",
"424 260 LINE",
"307 260 LINE"
);
}
);
width = 733;
}
);
unicode = 0023;
},
{
glyphname = asterisk;
lastChange = "2019-04-14 20:13:24 +0000";
layers = (
{
layerId = UUID0;
paths = (
{
closed = 1;
nodes = (
"123 379 LINE",
"208 487 LINE",
"293 379 LINE",
"323 406 LINE",
"228 502 LINE",
"351 546 LINE",
"334 582 LINE",
"220 526 LINE",
"227 663 LINE",
"187 663 LINE",
"194 526 LINE",
"80 582 LINE",
"63 546 LINE",
"186 502 LINE",
"92 406 LINE"
);
}
);
width = 416;
},
{
layerId = UUID1;
paths = (
{
closed = 1;
nodes = (
"137 405 LINE",
"208 502 LINE",
"277 405 LINE",
"350 468 LINE",
"269 543 LINE",
"371 576 LINE",
"334 665 LINE",
"243 615 LINE",
"258 725 LINE",
"156 725 LINE",
"171 615 LINE",
"80 663 LINE",
"43 575 LINE",
"148 542 LINE",
"66 468 LINE"
);
}
);
width = 405;
}
);
unicode = 002A;
},
{
glyphname = slash;
lastChange = "2019-04-14 20:13:24 +0000";
layers = (
{
layerId = UUID0;
paths = (
{
closed = 1;
nodes = (
"98 -64 LINE",
"343 717 LINE",
"305 717 LINE",
"61 -64 LINE"
);
}
);
width = 391;
},
{
layerId = UUID1;
paths = (
{
closed = 1;
nodes = (
"211 -89 LINE",
"476 759 LINE",
"313 759 LINE",
"49 -89 LINE"
);
}
);
width = 513;
}
);
unicode = 002F;
},
{
glyphname = percent;
lastChange = "2019-04-17 22:14:25 +0000";
layers = (
{
background = {
paths = (
{
closed = 1;
nodes = (
"97 507 OFFCURVE",
"50 467 OFFCURVE",
"50 396 CURVE SMOOTH",
"50 324 OFFCURVE",
"97 285 OFFCURVE",
"147 285 CURVE SMOOTH",
"198 285 OFFCURVE",
"245 324 OFFCURVE",
"245 396 CURVE SMOOTH",
"245 467 OFFCURVE",
"198 507 OFFCURVE",
"147 507 CURVE SMOOTH"
);
},
{
closed = 1;
nodes = (
"187 482 OFFCURVE",
"215 452 OFFCURVE",
"215 396 CURVE SMOOTH",
"215 339 OFFCURVE",
"187 310 OFFCURVE",
"147 310 CURVE SMOOTH",
"106 310 OFFCURVE",
"79 339 OFFCURVE",
"79 396 CURVE SMOOTH",
"79 452 OFFCURVE",
"106 482 OFFCURVE",
"147 482 CURVE SMOOTH"
);
}
);
};
layerId = UUID0;
paths = (
{
closed = 1;
nodes = (
"158 0 LINE",
"564 607 LINE",
"522 607 LINE",
"117 0 LINE"
);
},
{
closed = 1;
nodes = (
"563 -9 OFFCURVE",
"620 39 OFFCURVE",
"620 126 CURVE SMOOTH",
"620 213 OFFCURVE",
"563 261 OFFCURVE",
"501 261 CURVE SMOOTH",
"440 261 OFFCURVE",
"383 213 OFFCURVE",
"383 126 CURVE SMOOTH",
"383 39 OFFCURVE",
"440 -9 OFFCURVE",
"501 -9 CURVE SMOOTH"
);
},
{
closed = 1;
nodes = (
"451 22 OFFCURVE",
"418 57 OFFCURVE",
"418 126 CURVE SMOOTH",
"418 194 OFFCURVE",
"451 231 OFFCURVE",
"501 231 CURVE SMOOTH",
"549 231 OFFCURVE",
"583 194 OFFCURVE",
"583 126 CURVE SMOOTH",
"583 57 OFFCURVE",
"549 22 OFFCURVE",
"501 22 CURVE SMOOTH"
);
},
{
closed = 1;
nodes = (
"241 346 OFFCURVE",
"298 394 OFFCURVE",
"298 481 CURVE SMOOTH",
"298 567 OFFCURVE",
"241 616 OFFCURVE",
"179 616 CURVE SMOOTH",
"118 616 OFFCURVE",
"61 567 OFFCURVE",
"61 481 CURVE SMOOTH",
"61 394 OFFCURVE",
"118 346 OFFCURVE",
"179 346 CURVE SMOOTH"
);
},
{
closed = 1;
nodes = (
"129 377 OFFCURVE",
"96 412 OFFCURVE",
"96 481 CURVE SMOOTH",
"96 549 OFFCURVE",
"129 586 OFFCURVE",
"179 586 CURVE SMOOTH",
"227 586 OFFCURVE",
"261 549 OFFCURVE",
"261 481 CURVE SMOOTH",
"261 412 OFFCURVE",
"227 377 OFFCURVE",
"179 377 CURVE SMOOTH"
);
}
);
width = 685;
},
{
background = {
paths = (
{
closed = 1;
nodes = (
"437 251 OFFCURVE",
"382 209 OFFCURVE",
"382 119 CURVE SMOOTH",
"382 29 OFFCURVE",
"437 -13 OFFCURVE",
"502 -13 CURVE SMOOTH",
"567 -13 OFFCURVE",
"623 29 OFFCURVE",
"623 119 CURVE SMOOTH",
"623 209 OFFCURVE",
"567 251 OFFCURVE",
"502 251 CURVE SMOOTH"
);
},
{
closed = 1;
nodes = (
"517 170 OFFCURVE",
"528 159 OFFCURVE",
"528 119 CURVE SMOOTH",
"528 79 OFFCURVE",
"517 68 OFFCURVE",
"502 68 CURVE SMOOTH",
"487 68 OFFCURVE",
"477 79 OFFCURVE",
"477 119 CURVE SMOOTH",
"477 159 OFFCURVE",
"487 170 OFFCURVE",
"502 170 CURVE SMOOTH"
);
}
);
};
guideLines = (
{
position = "{207, 686}";
},
{
position = "{614, -12}";
}
);
layerId = UUID1;
paths = (
{
closed = 1;
nodes = (
"261 0 LINE",
"717 671 LINE",
"558 671 LINE",
"101 0 LINE"
);
},
{
closed = 1;
nodes = (
"693 -12 OFFCURVE",
"761 39 OFFCURVE",
"761 149 CURVE SMOOTH",
"761 258 OFFCURVE",
"693 309 OFFCURVE",
"614 309 CURVE SMOOTH",
"535 309 OFFCURVE",
"468 258 OFFCURVE",
"468 149 CURVE SMOOTH",
"468 39 OFFCURVE",
"535 -12 OFFCURVE",
"614 -12 CURVE SMOOTH"
);
},
{
closed = 1;
nodes = (
"596 87 OFFCURVE",
"584 100 OFFCURVE",
"584 149 CURVE SMOOTH",
"584 197 OFFCURVE",
"596 211 OFFCURVE",
"614 211 CURVE SMOOTH",
"632 211 OFFCURVE",
"646 197 OFFCURVE",
"646 149 CURVE SMOOTH",
"646 100 OFFCURVE",
"632 87 OFFCURVE",
"614 87 CURVE SMOOTH"
);
},
{
closed = 1;
nodes = (
"286 366 OFFCURVE",
"354 417 OFFCURVE",
"354 526 CURVE SMOOTH",
"354 635 OFFCURVE",
"286 686 OFFCURVE",
"207 686 CURVE SMOOTH",
"128 686 OFFCURVE",
"61 635 OFFCURVE",
"61 526 CURVE SMOOTH",
"61 417 OFFCURVE",
"128 366 OFFCURVE",
"207 366 CURVE SMOOTH"
);
},
{
closed = 1;
nodes = (
"188 464 OFFCURVE",
"176 477 OFFCURVE",
"176 526 CURVE SMOOTH",
"176 575 OFFCURVE",
"188 588 OFFCURVE",
"207 588 CURVE SMOOTH",
"225 588 OFFCURVE",
"238 575 OFFCURVE",
"238 526 CURVE SMOOTH",
"238 477 OFFCURVE",
"225 464 OFFCURVE",
"207 464 CURVE SMOOTH"
);
}
);
width = 806;
}
);
unicode = 0025;
},
{
glyphname = bar;
lastChange = "2019-04-14 20:13:24 +0000";
layers = (
{
layerId = UUID0;
paths = (
{
closed = 1;
nodes = (
"146 -122 LINE",
"146 729 LINE",
"109 729 LINE",
"109 -122 LINE"
);
}
);
width = 255;
},
{
layerId = UUID1;
paths = (
{
closed = 1;
nodes = (
"245 -122 LINE",
"245 792 LINE",
"85 792 LINE",
"85 -122 LINE"
);
}
);
width = 330;
}
);
unicode = 007C;
},
{
glyphname = bracketleft;
lastChange = "2019-04-14 20:13:24 +0000";
layers = (
{
layerId = UUID0;
paths = (
{
closed = 1;
nodes = (
"255 -61 LINE",
"255 -30 LINE",
"146 -30 LINE",
"146 638 LINE",
"255 638 LINE",
"255 668 LINE",
"109 668 LINE",
"109 -61 LINE"
);
}
);
width = 279;
},
{
layerId = UUID1;
paths = (
{
closed = 1;
nodes = (
"384 -182 LINE",
"384 -36 LINE",
"245 -36 LINE",
"245 707 LINE",
"384 707 LINE",
"384 853 LINE",
"85 853 LINE",
"85 -182 LINE"
);
}
);
width = 390;
}
);
unicode = 005B;
},
{
glyphname = asciicircum;
lastChange = "2019-04-17 22:07:18 +0000";
layers = (
{
background = {
paths = (
{
closed = 1;
nodes = (
"143 368 LINE",
"165 368 LINE",
"329 125 LINE",
"294 125 LINE",
"149 347 LINE"
);
}
);
};
layerId = UUID0;
paths = (
{
closed = 1;
nodes = (
"66 273 LINE",
"193 533 LINE",
"181 533 LINE",
"309 273 LINE",
"351 273 LINE",
"200 569 LINE",
"174 569 LINE",
"23 273 LINE"
);
}
);
width = 363;
},
{
background = {
paths = (
{
closed = 1;
nodes = (
"306 510 LINE",
"198 510 LINE",
"15 156 LINE",
"160 156 LINE",
"278 413 LINE"
);
}
);
};
layerId = UUID1;
paths = (
{
closed = 1;
nodes = (
"194 190 LINE",
"338 502 LINE",
"275 502 LINE",
"418 190 LINE",
"594 190 LINE",
"372 620 LINE",
"241 620 LINE",
"18 190 LINE"
);
}
);
width = 612;
}
);
unicode = 005E;
},
{
glyphname = braceleft;
lastChange = "2019-04-17 22:07:27 +0000";
layers = (
{
background = {
paths = (
{
closed = 1;
nodes = (
"240 550 LINE",
"160 550 OFFCURVE",
"134 492 OFFCURVE",
"134 396 CURVE SMOOTH",
"134 322 LINE SMOOTH",
"134 273 OFFCURVE",
"123 249 OFFCURVE",
"103 239 CURVE",
"103 237 LINE",
"123 227 OFFCURVE",
"134 203 OFFCURVE",
"134 154 CURVE SMOOTH",
"134 80 LINE SMOOTH",
"134 -16 OFFCURVE",
"160 -74 OFFCURVE",
"240 -74 CURVE",
"240 -99 LINE",
"136 -99 OFFCURVE",
"104 -22 OFFCURVE",
"104 80 CURVE SMOOTH",
"104 155 LINE SMOOTH",
"104 205 OFFCURVE",
"93 225 OFFCURVE",
"72 225 CURVE SMOOTH",
"65 225 LINE",
"65 251 LINE",
"72 251 LINE SMOOTH",
"93 251 OFFCURVE",
"104 271 OFFCURVE",
"104 321 CURVE SMOOTH",
"104 396 LINE SMOOTH",
"104 498 OFFCURVE",
"136 575 OFFCURVE",
"240 575 CURVE"
);
}
);
};
layerId = UUID0;
paths = (
{
closed = 1;
nodes = (
"292 -90 LINE",
"194 -90 OFFCURVE",
"163 -19 OFFCURVE",
"163 97 CURVE SMOOTH",
"163 187 LINE SMOOTH",
"163 247 OFFCURVE",
"149 276 OFFCURVE",
"125 288 CURVE",
"125 290 LINE",
"149 303 OFFCURVE",
"163 332 OFFCURVE",
"163 391 CURVE SMOOTH",
"163 481 LINE SMOOTH",
"163 598 OFFCURVE",
"194 668 OFFCURVE",
"292 668 CURVE",
"292 699 LINE",
"165 699 OFFCURVE",
"126 605 OFFCURVE",
"126 481 CURVE SMOOTH",
"126 390 LINE SMOOTH",
"126 329 OFFCURVE",
"113 305 OFFCURVE",
"87 305 CURVE SMOOTH",
"79 305 LINE",
"79 273 LINE",
"87 273 LINE SMOOTH",
"113 273 OFFCURVE",
"126 249 OFFCURVE",
"126 188 CURVE SMOOTH",
"126 97 LINE SMOOTH",
"126 -27 OFFCURVE",
"165 -120 OFFCURVE",
"292 -120 CURVE"
);
}
);
width = 304;
},
{
background = {
paths = (
{
closed = 1;
nodes = (
"359 17 LINE",
"278 17 OFFCURVE",
"238 45 OFFCURVE",
"238 120 CURVE SMOOTH",
"238 181 LINE SMOOTH",
"238 236 OFFCURVE",
"209 275 OFFCURVE",
"172 293 CURVE",
"172 299 LINE",
"209 317 OFFCURVE",
"238 356 OFFCURVE",
"238 411 CURVE SMOOTH",
"238 472 LINE SMOOTH",
"238 547 OFFCURVE",
"278 575 OFFCURVE",
"359 575 CURVE",
"359 695 LINE",
"185 695 OFFCURVE",
"108 605 OFFCURVE",
"108 474 CURVE SMOOTH",
"108 418 LINE SMOOTH",
"108 375 OFFCURVE",
"104 363 OFFCURVE",
"83 363 CURVE SMOOTH",
"55 363 LINE",
"55 229 LINE",
"83 229 LINE SMOOTH",
"104 229 OFFCURVE",
"108 216 OFFCURVE",
"108 174 CURVE SMOOTH",
"108 118 LINE SMOOTH",
"108 -13 OFFCURVE",
"185 -103 OFFCURVE",
"359 -103 CURVE"
);
}
);
};
layerId = UUID1;
paths = (
{
closed = 1;
nodes = (
"436 -28 LINE",
"338 -28 OFFCURVE",
"289 6 OFFCURVE",
"289 97 CURVE SMOOTH",
"289 196 LINE SMOOTH",
"289 262 OFFCURVE",
"254 310 OFFCURVE",
"209 332 CURVE",
"209 339 LINE",
"254 361 OFFCURVE",
"289 408 OFFCURVE",
"289 475 CURVE SMOOTH",
"289 573 LINE SMOOTH",
"289 665 OFFCURVE",
"338 699 OFFCURVE",
"436 699 CURVE",
"436 844 LINE",
"225 844 OFFCURVE",
"131 735 OFFCURVE",
"131 576 CURVE SMOOTH",
"131 484 LINE SMOOTH",
"131 431 OFFCURVE",
"126 417 OFFCURVE",
"101 417 CURVE SMOOTH",
"67 417 LINE",
"67 254 LINE",
"101 254 LINE SMOOTH",
"126 254 OFFCURVE",
"131 238 OFFCURVE",
"131 187 CURVE SMOOTH",
"131 95 LINE SMOOTH",
"131 -64 OFFCURVE",
"225 -174 OFFCURVE",
"436 -174 CURVE"
);
}
);
width = 436;
}
);
unicode = 007B;
},
{
glyphname = asciitilde;
lastChange = "2019-04-17 22:07:37 +0000";
layers = (
{
anchors = (
{
name = _above;
position = "{256, 190}";
}
);
layerId = UUID0;
paths = (
{
closed = 1;
nodes = (
"90 286 OFFCURVE",
"111 300 OFFCURVE",
"131 300 CURVE SMOOTH",
"149 300 OFFCURVE",
"165 293 OFFCURVE",
"225 270 CURVE SMOOTH",
"276 250 OFFCURVE",
"303 242 OFFCURVE",
"321 242 CURVE SMOOTH",
"357 242 OFFCURVE",
"388 265 OFFCURVE",
"409 324 CURVE",
"388 338 LINE",
"371 299 OFFCURVE",
"346 279 OFFCURVE",
"321 279 CURVE SMOOTH",
"303 279 OFFCURVE",
"288 283 OFFCURVE",
"227 307 CURVE SMOOTH",
"173 329 OFFCURVE",
"153 335 OFFCURVE",
"134 335 CURVE SMOOTH",
"102 335 OFFCURVE",
"69 311 OFFCURVE",
"49 254 CURVE",
"72 242 LINE"
);
}
);
width = 458;
},
{
anchors = (
{
name = _above;
position = "{307, 146}";
}
);
layerId = UUID1;
paths = (
{
closed = 1;
nodes = (
"162 228 OFFCURVE",
"183 247 OFFCURVE",
"211 247 CURVE SMOOTH",
"232 247 OFFCURVE",
"255 239 OFFCURVE",
"298 224 CURVE SMOOTH",
"346 205 OFFCURVE",
"379 196 OFFCURVE",
"403 196 CURVE SMOOTH",
"479 196 OFFCURVE",
"536 249 OFFCURVE",
"566 347 CURVE",
"480 401 LINE",
"465 366 OFFCURVE",
"443 347 OFFCURVE",
"417 347 CURVE SMOOTH",
"396 347 OFFCURVE",
"368 356 OFFCURVE",
"327 372 CURVE SMOOTH",
"281 390 OFFCURVE",
"245 400 OFFCURVE",
"211 400 CURVE SMOOTH",
"128 400 OFFCURVE",
"85 330 OFFCURVE",
"61 230 CURVE",
"145 185 LINE"
);
}
);
width = 627;
}
);
unicode = 007E;
},
{
glyphname = zero.tf;
lastChange = "2019-04-17 01:51:11 +0000";
layers = (
{
layerId = UUID0;
paths = (
{
closed = 1;
nodes = (
"436 -9 OFFCURVE",
"522 97 OFFCURVE",
"522 304 CURVE SMOOTH",
"522 510 OFFCURVE",
"436 616 OFFCURVE",
"300 616 CURVE SMOOTH",
"164 616 OFFCURVE",
"78 510 OFFCURVE",
"78 304 CURVE SMOOTH",
"78 97 OFFCURVE",
"164 -9 OFFCURVE",
"300 -9 CURVE SMOOTH"
);
},
{
closed = 1;
nodes = (
"179 26 OFFCURVE",
"118 128 OFFCURVE",
"118 304 CURVE SMOOTH",
"118 480 OFFCURVE",
"179 582 OFFCURVE",
"300 582 CURVE SMOOTH",
"422 582 OFFCURVE",
"482 480 OFFCURVE",
"482 304 CURVE SMOOTH",
"482 128 OFFCURVE",
"422 26 OFFCURVE",
"300 26 CURVE SMOOTH"
);
}
);
width = 600;
},
{
layerId = UUID1;
paths = (
{
closed = 1;
nodes = (
"470 -16 OFFCURVE",
"594 96 OFFCURVE",
"594 335 CURVE SMOOTH",
"594 575 OFFCURVE",
"470 686 OFFCURVE",
"300 686 CURVE SMOOTH",
"129 686 OFFCURVE",
"6 575 OFFCURVE",
"6 335 CURVE SMOOTH",
"6 96 OFFCURVE",
"129 -16 OFFCURVE",
"300 -16 CURVE SMOOTH"
);
},
{
closed = 1;
nodes = (
"221 130 OFFCURVE",
"170 200 OFFCURVE",
"170 335 CURVE SMOOTH",
"170 470 OFFCURVE",
"221 541 OFFCURVE",
"300 541 CURVE SMOOTH",
"379 541 OFFCURVE",
"430 470 OFFCURVE",
"430 335 CURVE SMOOTH",
"430 200 OFFCURVE",
"379 130 OFFCURVE",
"300 130 CURVE SMOOTH"
);
}
);
width = 600;
}
);
},
{
glyphname = one.tf;
lastChange = "2019-04-15 15:44:04 +0000";
layers = (
{
layerId = UUID0;
paths = (
{
closed = 1;
nodes = (
"450 0 LINE",
"450 35 LINE",
"313 35 LINE",
"318 30 LINE",
"318 607 LINE",
"282 607 LINE",
"255 580 OFFCURVE",
"218 564 OFFCURVE",
"179 558 CURVE",
"179 519 LINE",
"224 522 OFFCURVE",
"273 546 OFFCURVE",
"303 587 CURVE",
"282 587 LINE",
"282 30 LINE",
"287 35 LINE",
"150 35 LINE",
"150 0 LINE"
);
}
);
width = 600;
},
{
layerId = UUID1;
paths = (
{
closed = 1;
nodes = (
"503 0 LINE",
"503 120 LINE",
"338 120 LINE",
"383 75 LINE",
"383 677 LINE",
"266 677 LINE",
"212 640 OFFCURVE",
"167 627 OFFCURVE",
"120 622 CURVE",
"120 470 LINE",
"161 470 OFFCURVE",
"202 477 OFFCURVE",
"259 496 CURVE",
"223 530 LINE",
"223 75 LINE",
"268 120 LINE",
"103 120 LINE",
"103 0 LINE"
);
}
);
width = 600;
}
);
},
{
glyphname = two.tf;
lastChange = "2019-04-17 01:51:27 +0000";
layers = (
{
layerId = UUID0;
paths = (
{
closed = 1;
nodes = (
"495 0 LINE",
"495 35 LINE",
"137 35 LINE",
"137 77 LINE SMOOTH",
"137 148 OFFCURVE",
"178 189 OFFCURVE",
"255 221 CURVE SMOOTH",
"374 271 LINE SMOOTH",
"443 300 OFFCURVE",
"502 352 OFFCURVE",
"502 447 CURVE SMOOTH",
"502 543 OFFCURVE",
"425 616 OFFCURVE",
"313 616 CURVE SMOOTH",
"189 616 OFFCURVE",
"121 559 OFFCURVE",
"111 475 CURVE",
"151 475 LINE",
"161 546 OFFCURVE",
"221 582 OFFCURVE",
"313 582 CURVE SMOOTH",
"405 582 OFFCURVE",
"462 530 OFFCURVE",
"462 452 CURVE SMOOTH",
"462 380 OFFCURVE",
"423 334 OFFCURVE",
"353 305 CURVE SMOOTH",
"239 258 LINE SMOOTH",
"163 227 OFFCURVE",
"100 183 OFFCURVE",
"100 74 CURVE SMOOTH",
"100 0 LINE"
);
}
);
width = 600;
},
{
layerId = UUID1;
paths = (
{
closed = 1;
nodes = (
"568 0 LINE",
"568 146 LINE",
"190 146 LINE",
"190 153 LINE SMOOTH",
"190 175 OFFCURVE",
"202 187 OFFCURVE",
"241 202 CURVE SMOOTH",
"384 255 LINE SMOOTH",
"519 305 OFFCURVE",
"570 372 OFFCURVE",
"570 475 CURVE SMOOTH",
"570 603 OFFCURVE",
"454 686 OFFCURVE",
"313 686 CURVE SMOOTH",
"166 686 OFFCURVE",
"41 617 OFFCURVE",
"41 459 CURVE",
"219 459 LINE",
"224 516 OFFCURVE",
"265 547 OFFCURVE",
"316 547 CURVE SMOOTH",
"371 547 OFFCURVE",
"398 515 OFFCURVE",
"398 479 CURVE SMOOTH",
"398 440 OFFCURVE",
"377 414 OFFCURVE",
"326 395 CURVE SMOOTH",
"183 341 LINE SMOOTH",
"72 299 OFFCURVE",
"30 239 OFFCURVE",
"30 130 CURVE SMOOTH",
"30 0 LINE"
);
}
);
width = 600;
}
);
},
{
glyphname = three.tf;
lastChange = "2019-04-17 01:51:40 +0000";
layers = (
{
layerId = UUID0;
paths = (
{
closed = 1;
nodes = (
"432 -9 OFFCURVE",
"506 62 OFFCURVE",
"506 164 CURVE SMOOTH",
"506 247 OFFCURVE",
"447 299 OFFCURVE",
"366 318 CURVE",
"438 343 OFFCURVE",
"479 389 OFFCURVE",
"479 454 CURVE SMOOTH",
"479 547 OFFCURVE",
"399 616 OFFCURVE",
"290 616 CURVE SMOOTH",
"201 616 OFFCURVE",
"123 581 OFFCURVE",
"105 480 CURVE",
"141 480 LINE",
"163 559 OFFCURVE",
"220 582 OFFCURVE",
"290 582 CURVE SMOOTH",
"383 582 OFFCURVE",
"439 525 OFFCURVE",
"439 454 CURVE SMOOTH",
"439 375 OFFCURVE",
"366 328 OFFCURVE",
"248 328 CURVE SMOOTH",
"225 328 LINE",
"225 298 LINE",
"280 298 LINE SMOOTH",
"416 298 OFFCURVE",
"466 238 OFFCURVE",
"466 164 CURVE SMOOTH",
"466 85 OFFCURVE",
"406 26 OFFCURVE",
"302 26 CURVE SMOOTH",
"202 26 OFFCURVE",
"118 75 OFFCURVE",
"118 180 CURVE",
"82 180 LINE",
"82 56 OFFCURVE",
"186 -9 OFFCURVE",
"302 -9 CURVE SMOOTH"
);
}
);
width = 600;
},
{
layerId = UUID1;
paths = (
{
closed = 1;
nodes = (
"473 -16 OFFCURVE",
"590 69 OFFCURVE",
"590 191 CURVE SMOOTH",
"590 267 OFFCURVE",
"542 320 OFFCURVE",
"466 351 CURVE",
"535 375 OFFCURVE",
"570 428 OFFCURVE",
"570 495 CURVE SMOOTH",
"570 610 OFFCURVE",
"454 686 OFFCURVE",
"297 686 CURVE SMOOTH",
"141 686 OFFCURVE",
"31 617 OFFCURVE",
"19 468 CURVE",
"189 468 LINE",
"197 520 OFFCURVE",
"248 541 OFFCURVE",
"304 541 CURVE SMOOTH",
"370 541 OFFCURVE",
"398 513 OFFCURVE",
"398 473 CURVE SMOOTH",
"398 430 OFFCURVE",
"365 401 OFFCURVE",
"312 401 CURVE SMOOTH",
"212 401 LINE",
"212 275 LINE",
"315 275 LINE SMOOTH",
"380 275 OFFCURVE",
"417 254 OFFCURVE",
"417 208 CURVE SMOOTH",
"417 163 OFFCURVE",
"374 130 OFFCURVE",
"305 130 CURVE SMOOTH",
"231 130 OFFCURVE",
"188 168 OFFCURVE",
"182 217 CURVE",
"11 217 LINE",
"11 64 OFFCURVE",
"157 -16 OFFCURVE",
"305 -16 CURVE SMOOTH"
);
}
);
width = 600;
}
);
},
{
glyphname = four.tf;
lastChange = "2019-04-15 15:26:42 +0000";
layers = (
{
layerId = UUID0;
paths = (
{
closed = 1;
nodes = (
"60 192 LINE",
"60 162 LINE",
"385 162 LINE",
"380 167 LINE",
"380 0 LINE",
"416 0 LINE",
"416 167 LINE",
"412 162 LINE",
"521 162 LINE",
"521 192 LINE",
"411 192 LINE",
"416 187 LINE",
"416 618 LINE",
"387 618 LINE"
);
},
{
closed = 1;
nodes = (
"380 187 LINE",
"385 192 LINE",
"94 192 LINE",
"94 178 LINE",
"408 583 LINE",
"380 592 LINE"
);
}
);
width = 600;
},
{
layerId = UUID1;
paths = (
{
closed = 1;
nodes = (
"10 254 LINE",
"10 134 LINE",
"389 134 LINE",
"334 179 LINE",
"334 0 LINE",
"492 0 LINE",
"492 179 LINE",
"457 134 LINE",
"589 134 LINE",
"589 254 LINE",
"457 254 LINE",
"492 228 LINE",
"492 676 LINE",
"334 676 LINE"
);
},
{
closed = 1;
nodes = (
"342 209 LINE",
"397 254 LINE",
"154 254 LINE",
"161 219 LINE",
"380 502 LINE",
"342 502 LINE"
);
}
);
width = 600;
}
);
},
{
glyphname = five.tf;
lastChange = "2019-04-17 01:51:48 +0000";
layers = (
{
layerId = UUID0;
paths = (
{
closed = 1;
nodes = (
"419 -9 OFFCURVE",
"496 74 OFFCURVE",
"496 190 CURVE SMOOTH",
"496 309 OFFCURVE",
"411 364 OFFCURVE",
"274 364 CURVE SMOOTH",
"242 364 OFFCURVE",
"201 361 OFFCURVE",
"169 355 CURVE",
"179 347 LINE",
"202 593 LINE",
"193 573 LINE",
"470 573 LINE",
"470 607 LINE",
"164 607 LINE",
"139 332 LINE",
"277 332 LINE SMOOTH",
"393 332 OFFCURVE",
"456 284 OFFCURVE",
"456 190 CURVE SMOOTH",
"456 96 OFFCURVE",
"396 26 OFFCURVE",
"289 26 CURVE SMOOTH",
"201 26 OFFCURVE",
"131 70 OFFCURVE",
"131 156 CURVE",
"95 156 LINE",
"95 47 OFFCURVE",
"192 -9 OFFCURVE",
"289 -9 CURVE SMOOTH"
);
}
);
width = 600;
},
{
layerId = UUID1;
paths = (
{
closed = 1;
nodes = (
"457 -16 OFFCURVE",
"565 94 OFFCURVE",
"565 230 CURVE SMOOTH",
"565 351 OFFCURVE",
"478 425 OFFCURVE",
"345 425 CURVE SMOOTH",
"313 425 OFFCURVE",
"259 420 OFFCURVE",
"226 412 CURVE",
"236 400 LINE",
"253 566 LINE",
"223 525 LINE",
"526 525 LINE",
"526 671 LINE",
"94 671 LINE",
"62 307 LINE",
"291 307 LINE SMOOTH",
"365 307 OFFCURVE",
"401 279 OFFCURVE",
"401 230 CURVE SMOOTH",
"401 173 OFFCURVE",
"355 130 OFFCURVE",
"300 130 CURVE SMOOTH",
"242 130 OFFCURVE",
"200 157 OFFCURVE",
"200 213 CURVE",
"36 213 LINE",
"40 68 OFFCURVE",
"138 -16 OFFCURVE",
"300 -16 CURVE SMOOTH"
);
}
);
width = 600;
}
);
},
